  0
SECTION
  2
HEADER
  9
$ACADVER
  1
AC1021
  9
$ACADMAINTVER
 70
    50
  9
$DWGCODEPAGE
  3
ANSI_1252
  9
$AUTHOR
  1
contractor03
  9
$LASTSAVEDBY
  1
contractor03
  9
$INSBASE
 10
0.0
 20
0.0
 30
0.0
  9
$EXTMIN
 10
-10754.632
 20
31039.7
 30
0.0
  9
$EXTMAX
 10
-9929.734
 20
31207.556
 30
0.0
  9
$LIMMIN
 10
-12025.789067
 20
29440.021933
  9
$LIMMAX
 10
-8658.576933
 20
32807.234067
  9
$ORTHOMODE
 70
     0
  9
$REGENMODE
 70
     1
  9
$FILLMODE
 70
     1
  9
$QTEXTMODE
 70
     0
  9
$MIRRTEXT
 70
     0
  9
$LTSCALE
 40
1.0
  9
$ATTMODE
 70
     1
  9
$TEXTSIZE
 40
4.0
  9
$TRACEWID
 40
0.05
  9
$TEXTSTYLE
  7
Standard
  9
$CLAYER
  8
Level 60
  9
$CELTYPE
  6
Continuous
  9
$CECOLOR
 62
     7
  9
$CELTSCALE
 40
1.0
  9
$DISPSILH
 70
     0
  9
$DIMSCALE
 40
1.0
  9
$DIMASZ
 40
5.0
  9
$DIMEXO
 40
1.0
  9
$DIMDLI
 40
0.0
  9
$DIMRND
 40
0.0
  9
$DIMDLE
 40
0.0
  9
$DIMEXE
 40
2.5
  9
$DIMTP
 40
0.0
  9
$DIMTM
 40
4.0
  9
$DIMTXT
 40
5.0
  9
$DIMCEN
 40
0.09
  9
$DIMTSZ
 40
0.0
  9
$DIMTOL
 70
     0
  9
$DIMLIM
 70
     0
  9
$DIMTIH
 70
     0
  9
$DIMTOH
 70
     0
  9
$DIMSE1
 70
     0
  9
$DIMSE2
 70
     0
  9
$DIMTAD
 70
     1
  9
$DIMZIN
 70
    11
  9
$DIMBLK
  1

  9
$DIMASO
 70
     1
  9
$DIMSHO
 70
     1
  9
$DIMPOST
  1

  9
$DIMAPOST
  1

  9
$DIMALT
 70
     0
  9
$DIMALTD
 70
     2
  9
$DIMALTF
 40
0.03937
  9
$DIMLFAC
 40
10.0
  9
$DIMTOFL
 70
     0
  9
$DIMTVP
 40
0.0
  9
$DIMTIX
 70
     0
  9
$DIMSOXD
 70
     0
  9
$DIMSAH
 70
     0
  9
$DIMBLK1
  1

  9
$DIMBLK2
  1

  9
$DIMSTYLE
  2
Standard
  9
$DIMCLRD
 70
     1
  9
$DIMCLRE
 70
     1
  9
$DIMCLRT
 70
     1
  9
$DIMTFAC
 40
1.0
  9
$DIMGAP
 40
2.5
  9
$DIMJUST
 70
     0
  9
$DIMSD1
 70
     0
  9
$DIMSD2
 70
     0
  9
$DIMTOLJ
 70
     0
  9
$DIMTZIN
 70
    11
  9
$DIMALTZ
 70
    15
  9
$DIMALTTZ
 70
    15
  9
$DIMUPT
 70
     0
  9
$DIMDEC
 70
     0
  9
$DIMTDEC
 70
     0
  9
$DIMALTU
 70
     2
  9
$DIMALTTD
 70
     2
  9
$DIMTXSTY
  7
Style-font30
  9
$DIMAUNIT
 70
     0
  9
$DIMADEC
 70
     2
  9
$DIMALTRND
 40
0.0
  9
$DIMAZIN
 70
     3
  9
$DIMDSEP
 70
    46
  9
$DIMATFIT
 70
     1
  9
$DIMFRAC
 70
     0
  9
$DIMLDRBLK
  1

  9
$DIMLUNIT
 70
     2
  9
$DIMLWD
 70
    13
  9
$DIMLWE
 70
    13
  9
$DIMTMOVE
 70
     0
  9
$DIMFXL
 40
1.0
  9
$DIMFXLON
 70
     0
  9
$DIMJOGANG
 40
0.785398
  9
$DIMTFILL
 70
     0
  9
$DIMTFILLCLR
 70
     0
  9
$DIMARCSYM
 70
     0
  9
$DIMLTYPE
  6

  9
$DIMLTEX1
  6

  9
$DIMLTEX2
  6

  9
$LUNITS
 70
     2
  9
$LUPREC
 70
     3
  9
$SKETCHINC
 40
0.1
  9
$FILLETRAD
 40
0.0
  9
$AUNITS
 70
     0
  9
$AUPREC
 70
     4
  9
$MENU
  1
.
  9
$ELEVATION
 40
0.0
  9
$PELEVATION
 40
0.0
  9
$THICKNESS
 40
0.0
  9
$LIMCHECK
 70
     0
  9
$CHAMFERA
 40
0.0
  9
$CHAMFERB
 40
0.0
  9
$CHAMFERC
 40
0.0
  9
$CHAMFERD
 40
0.0
  9
$SKPOLY
 70
     0
  9
$TDCREATE
 40
2454144.778024017
  9
$TDUCREATE
 40
2454144.778024017
  9
$TDUPDATE
 40
2454144.778687026
  9
$TDUUPDATE
 40
2454144.778687026
  9
$TDINDWG
 40
0.0006646412
  9
$TDUSRTIMER
 40
0.0006644560
  9
$USRTIMER
 70
     1
  9
$ANGBASE
 50
0.0
  9
$ANGDIR
 70
     0
  9
$PDMODE
 70
     0
  9
$PDSIZE
 40
0.0
  9
$PLINEWID
 40
0.0
  9
$SPLFRAME
 70
     0
  9
$SPLINETYPE
 70
     6
  9
$SPLINESEGS
 70
     8
  9
$HANDSEED
  5
F33F1
  9
$SURFTAB1
 70
     6
  9
$SURFTAB2
 70
     6
  9
$SURFTYPE
 70
     6
  9
$SURFU
 70
     6
  9
$SURFV
 70
     6
  9
$UCSBASE
  2

  9
$UCSNAME
  2

  9
$UCSORG
 10
0.0
 20
0.0
 30
0.0
  9
$UCSXDIR
 10
1.0
 20
0.0
 30
0.0
  9
$UCSYDIR
 10
0.0
 20
1.0
 30
0.0
  9
$UCSORTHOREF
  2

  9
$UCSORTHOVIEW
 70
     0
  9
$UCSORGTOP
 10
0.0
 20
0.0
 30
0.0
  9
$UCSORGBOTTOM
 10
0.0
 20
0.0
 30
0.0
  9
$UCSORGLEFT
 10
0.0
 20
0.0
 30
0.0
  9
$UCSORGRIGHT
 10
0.0
 20
0.0
 30
0.0
  9
$UCSORGFRONT
 10
0.0
 20
0.0
 30
0.0
  9
$UCSORGBACK
 10
0.0
 20
0.0
 30
0.0
  9
$PUCSBASE
  2

  9
$PUCSNAME
  2

  9
$PUCSORG
 10
0.0
 20
0.0
 30
0.0
  9
$PUCSXDIR
 10
1.0
 20
0.0
 30
0.0
  9
$PUCSYDIR
 10
0.0
 20
1.0
 30
0.0
  9
$PUCSORTHOREF
  2

  9
$PUCSORTHOVIEW
 70
     0
  9
$PUCSORGTOP
 10
0.0
 20
0.0
 30
0.0
  9
$PUCSORGBOTTOM
 10
0.0
 20
0.0
 30
0.0
  9
$PUCSORGLEFT
 10
0.0
 20
0.0
 30
0.0
  9
$PUCSORGRIGHT
 10
0.0
 20
0.0
 30
0.0
  9
$PUCSORGFRONT
 10
0.0
 20
0.0
 30
0.0
  9
$PUCSORGBACK
 10
0.0
 20
0.0
 30
0.0
  9
$USERI1
 70
     0
  9
$USERI2
 70
     0
  9
$USERI3
 70
     0
  9
$USERI4
 70
     0
  9
$USERI5
 70
     0
  9
$USERR1
 40
0.0
  9
$USERR2
 40
0.0
  9
$USERR3
 40
0.0
  9
$USERR4
 40
0.0
  9
$USERR5
 40
0.0
  9
$WORLDVIEW
 70
     1
  9
$SHADEDGE
 70
     3
  9
$SHADEDIF
 70
    70
  9
$TILEMODE
 70
     1
  9
$MAXACTVP
 70
    64
  9
$PINSBASE
 10
0.0
 20
0.0
 30
0.0
  9
$PLIMCHECK
 70
     0
  9
$PEXTMIN
 10
1.049744
 20
0.799667
 30
-0.001526
  9
$PEXTMAX
 10
9.450623
 20
7.200577
 30
0.0
  9
$PLIMMIN
 10
-0.25
 20
-0.25
  9
$PLIMMAX
 10
10.75
 20
8.25
  9
$UNITMODE
 70
     0
  9
$VISRETAIN
 70
     1
  9
$PLINEGEN
 70
     0
  9
$PSLTSCALE
 70
     0
  9
$TREEDEPTH
 70
  3020
  9
$CMLSTYLE
  2
Standard
  9
$CMLJUST
 70
     0
  9
$CMLSCALE
 40
1.0
  9
$PROXYGRAPHICS
 70
     1
  9
$MEASUREMENT
 70
     0
  9
$CELWEIGHT
370
    30
  9
$ENDCAPS
280
     0
  9
$JOINSTYLE
280
     0
  9
$LWDISPLAY
290
     1
  9
$INSUNITS
 70
     4
  9
$HYPERLINKBASE
  1

  9
$STYLESHEET
  1

  9
$XEDIT
290
     1
  9
$CEPSNTYPE
380
     0
  9
$PSTYLEMODE
290
     1
  9
$FINGERPRINTGUID
  2
{E5168F88-8080-494E-898E-26245182A868}
  9
$VERSIONGUID
  2
{82C521FC-BF81-46B3-825E-420B6BD93A99}
  9
$EXTNAMES
290
     1
  9
$PSVPSCALE
 40
0.0
  9
$OLESTARTUP
290
     0
  9
$SORTENTS
280
   127
  9
$INDEXCTL
280
     0
  9
$HIDETEXT
280
     1
  9
$XCLIPFRAME
290
     0
  9
$HALOGAP
280
     0
  9
$OBSCOLOR
 70
   257
  9
$OBSLTYPE
280
     0
  9
$INTERSECTIONDISPLAY
280
     0
  9
$INTERSECTIONCOLOR
 70
   257
  9
$DIMASSOC
280
     1
  9
$PROJECTNAME
  1

  9
$CAMERADISPLAY
290
     0
  9
$LENSLENGTH
 40
50.0
  9
$CAMERAHEIGHT
 40
0.0
  9
$STEPSPERSEC
 40
2.0
  9
$STEPSIZE
 40
6.0
  9
$3DDWFPREC
 40
2.0
  9
$PSOLWIDTH
 40
0.25
  9
$PSOLHEIGHT
 40
4.0
  9
$LOFTANG1
 40
1.570796
  9
$LOFTANG2
 40
1.570796
  9
$LOFTMAG1
 40
0.0
  9
$LOFTMAG2
 40
0.0
  9
$LOFTPARAM
 70
     7
  9
$LOFTNORMALS
280
     1
  9
$LATITUDE
 40
37.795
  9
$LONGITUDE
 40
-122.394
  9
$NORTHDIRECTION
 40
0.0
  9
$TIMEZONE
 70
 -8000
  9
$LIGHTGLYPHDISPLAY
280
     1
  9
$TILEMODELIGHTSYNCH
280
     1
  9
$CMATERIAL
347
F339F
  9
$SOLIDHIST
280
     1
  9
$SHOWHIST
280
     1
  9
$DWFFRAME
280
     2
  9
$DGNFRAME
280
     0
  9
$REALWORLDSCALE
290
     1
  9
$INTERFERECOLOR
 62
     1
  9
$INTERFEREOBJVS
345
F33B5
  9
$INTERFEREVPVS
346
F33B6
  9
$CSHADOW
280
     0
  9
$SHADOWPLANELOCATION
 40
0.0
  0
ENDSEC
  0
SECTION
  2
CLASSES
  0
CLASS
  1
ACDBDICTIONARYWDFLT
  2
AcDbDictionaryWithDefault
  3
ObjectDBX Classes
 90
        0
 91
        1
280
     0
281
     0
  0
CLASS
  1
DICTIONARYVAR
  2
AcDbDictionaryVar
  3
ObjectDBX Classes
 90
        0
 91
        7
280
     0
281
     0
  0
CLASS
  1
TABLESTYLE
  2
AcDbTableStyle
  3
ObjectDBX Classes
 90
     4095
 91
        1
280
     0
281
     0
  0
CLASS
  1
MATERIAL
  2
AcDbMaterial
  3
ObjectDBX Classes
 90
     1153
 91
        3
280
     0
281
     0
  0
CLASS
  1
VISUALSTYLE
  2
AcDbVisualStyle
  3
ObjectDBX Classes
 90
     4095
 91
        3
280
     0
281
     0
  0
CLASS
  1
SCALE
  2
AcDbScale
  3
ObjectDBX Classes
 90
     1153
 91
       33
280
     0
281
     0
  0
CLASS
  1
MLEADERSTYLE
  2
AcDbMLeaderStyle
  3
ACDB_MLEADERSTYLE_CLASS
 90
     4095
 91
        0
280
     0
281
     0
  0
CLASS
  1
CELLSTYLEMAP
  2
AcDbCellStyleMap
  3
ObjectDBX Classes
 90
     1152
 91
        1
280
     0
281
     0
  0
ENDSEC
  0
SECTION
  2
TABLES
  0
TABLE
  2
VPORT
  5
F3393
330
0
100
AcDbSymbolTable
 70
     2
  0
VPORT
  5
F2DAB
330
F3393
100
AcDbSymbolTableRecord
100
AcDbViewportTableRecord
  2
*ACTIVE
 70
     0
 10
0.0
 20
0.0
 11
1.0
 21
1.0
 12
-10342.183073
 22
31123.628125
 13
0.0
 23
0.0
 14
0.001
 24
0.001
 15
1.0
 25
1.0
 16
0.0
 26
0.0
 36
1.0
 17
0.0
 27
0.0
 37
0.0
 40
419.965836
 41
2.042767
 42
50.0
 43
0.0
 44
0.0
 50
0.0
 51
0.0
 71
     0
 72
   100
 73
     1
 74
     0
 75
     0
 76
     0
 77
     0
 78
     1
281
     0
 65
     1
110
0.0
120
0.0
130
0.0
111
1.0
121
0.0
131
0.0
112
0.0
122
1.0
132
0.0
 79
     0
146
0.0
348
F3395
 60
     3
 61
    10
292
     1
282
     1
141
0.0
142
0.0
 63
   250
421
  3355443
  0
ENDTAB
  0
TABLE
  2
LTYPE
  5
F338E
330
0
100
AcDbSymbolTable
 70
     3
  0
LTYPE
  5
F338F
330
F338E
100
AcDbSymbolTableRecord
100
AcDbLinetypeTableRecord
  2
ByBlock
 70
     0
  3

 72
    65
 73
     0
 40
0.0
  0
LTYPE
  5
F3390
330
F338E
100
AcDbSymbolTableRecord
100
AcDbLinetypeTableRecord
  2
ByLayer
 70
     0
  3

 72
    65
 73
     0
 40
0.0
  0
LTYPE
  5
F337D
330
F338E
100
AcDbSymbolTableRecord
100
AcDbLinetypeTableRecord
  2
Continuous
 70
     0
  3
Solid line
 72
    65
 73
     0
 40
0.0
  0
LTYPE
  5
F33DD
330
F338E
100
AcDbSymbolTableRecord
100
AcDbLinetypeTableRecord
  2
DGN Style 6
 70
     0
  3
Dgn Style 6
 72
    65
 73
     6
 40
16.317115
 49
0.008579
 74
     0
 49
-3.43157
 74
     0
 49
6.005247
 74
     0
 49
-3.43157
 74
     0
 49
0.008579
 74
     0
 49
-3.43157
 74
     0
  0
LTYPE
  5
F33DE
330
F338E
100
AcDbSymbolTableRecord
100
AcDbLinetypeTableRecord
  2
DGN Style 4
 70
     0
  3
Dgn Style 4
 72
    65
 73
     4
 40
13.734859
 49
6.86314
 74
     0
 49
-3.43157
 74
     0
 49
0.008579
 74
     0
 49
-3.43157
 74
     0
  0
ENDTAB
  0
TABLE
  2
LAYER
  5
F3388
102
{ACAD_XDICTIONARY
360
F3389
102
}
330
0
100
AcDbSymbolTable
 70
    64
  0
LAYER
  5
F3370
330
F3388
100
AcDbSymbolTableRecord
100
AcDbLayerTableRecord
  2
0
 70
     0
 62
     7
  6
Continuous
370
    -3
390
F3371
347
F3374
  0
LAYER
  5
F2D64
330
F3388
100
AcDbSymbolTableRecord
100
AcDbLayerTableRecord
  2
Level 1
 70
     0
 62
     7
  6
Continuous
370
     0
390
F3371
347
F3374
  0
LAYER
  5
F2D65
330
F3388
100
AcDbSymbolTableRecord
100
AcDbLayerTableRecord
  2
Level 2
 70
     0
 62
     7
  6
Continuous
370
     0
390
F3371
347
F3374
  0
LAYER
  5
F2D66
330
F3388
100
AcDbSymbolTableRecord
100
AcDbLayerTableRecord
  2
Level 3
 70
     0
 62
     7
  6
Continuous
370
     0
390
F3371
347
F3374
  0
LAYER
  5
F2D67
330
F3388
100
AcDbSymbolTableRecord
100
AcDbLayerTableRecord
  2
Level 4
 70
     0
 62
     7
  6
Continuous
370
     0
390
F3371
347
F3374
  0
LAYER
  5
F2D68
330
F3388
100
AcDbSymbolTableRecord
100
AcDbLayerTableRecord
  2
Level 5
 70
     0
 62
     7
  6
Continuous
370
     0
390
F3371
347
F3374
  0
LAYER
  5
F2D69
330
F3388
100
AcDbSymbolTableRecord
100
AcDbLayerTableRecord
  2
Level 6
 70
     0
 62
     7
  6
Continuous
370
     0
390
F3371
347
F3374
  0
LAYER
  5
F2D6A
330
F3388
100
AcDbSymbolTableRecord
100
AcDbLayerTableRecord
  2
Level 7
 70
     0
 62
     7
  6
Continuous
370
     0
390
F3371
347
F3374
  0
LAYER
  5
F2D6B
330
F3388
100
AcDbSymbolTableRecord
100
AcDbLayerTableRecord
  2
Level 8
 70
     0
 62
     7
  6
Continuous
370
     0
390
F3371
347
F3374
  0
LAYER
  5
F2D6C
330
F3388
100
AcDbSymbolTableRecord
100
AcDbLayerTableRecord
  2
Level 9
 70
     0
 62
     7
  6
Continuous
370
     0
390
F3371
347
F3374
  0
LAYER
  5
F2D6D
330
F3388
100
AcDbSymbolTableRecord
100
AcDbLayerTableRecord
  2
Level 10
 70
     0
 62
     7
  6
Continuous
370
     0
390
F3371
347
F3374
  0
LAYER
  5
F2D6E
330
F3388
100
AcDbSymbolTableRecord
100
AcDbLayerTableRecord
  2
Level 11
 70
     0
 62
     7
  6
Continuous
370
     0
390
F3371
347
F3374
  0
LAYER
  5
F2D6F
330
F3388
100
AcDbSymbolTableRecord
100
AcDbLayerTableRecord
  2
Level 12
 70
     0
 62
     7
  6
Continuous
370
     0
390
F3371
347
F3374
  0
LAYER
  5
F2D70
330
F3388
100
AcDbSymbolTableRecord
100
AcDbLayerTableRecord
  2
Level 13
 70
     0
 62
     7
  6
Continuous
370
     0
390
F3371
347
F3374
  0
LAYER
  5
F2D71
330
F3388
100
AcDbSymbolTableRecord
100
AcDbLayerTableRecord
  2
Level 14
 70
     0
 62
     7
  6
Continuous
370
     0
390
F3371
347
F3374
  0
LAYER
  5
F2D72
330
F3388
100
AcDbSymbolTableRecord
100
AcDbLayerTableRecord
  2
Level 15
 70
     0
 62
     7
  6
Continuous
370
     0
390
F3371
347
F3374
  0
LAYER
  5
F2D73
330
F3388
100
AcDbSymbolTableRecord
100
AcDbLayerTableRecord
  2
Level 16
 70
     0
 62
     7
  6
Continuous
370
     0
390
F3371
347
F3374
  0
LAYER
  5
F2D74
330
F3388
100
AcDbSymbolTableRecord
100
AcDbLayerTableRecord
  2
Level 17
 70
     0
 62
     7
  6
Continuous
370
     0
390
F3371
347
F3374
  0
LAYER
  5
F2D75
330
F3388
100
AcDbSymbolTableRecord
100
AcDbLayerTableRecord
  2
Level 18
 70
     0
 62
     7
  6
Continuous
370
     0
390
F3371
347
F3374
  0
LAYER
  5
F2D76
330
F3388
100
AcDbSymbolTableRecord
100
AcDbLayerTableRecord
  2
Level 19
 70
     0
 62
     7
  6
Continuous
370
     0
390
F3371
347
F3374
  0
LAYER
  5
F2D77
330
F3388
100
AcDbSymbolTableRecord
100
AcDbLayerTableRecord
  2
Level 20
 70
     0
 62
     7
  6
Continuous
370
     0
390
F3371
347
F3374
  0
LAYER
  5
F2D78
330
F3388
100
AcDbSymbolTableRecord
100
AcDbLayerTableRecord
  2
Level 21
 70
     0
 62
     7
  6
Continuous
370
     0
390
F3371
347
F3374
  0
LAYER
  5
F2D79
330
F3388
100
AcDbSymbolTableRecord
100
AcDbLayerTableRecord
  2
Level 22
 70
     0
 62
     7
  6
Continuous
370
     0
390
F3371
347
F3374
  0
LAYER
  5
F2D7A
330
F3388
100
AcDbSymbolTableRecord
100
AcDbLayerTableRecord
  2
Level 23
 70
     0
 62
     7
  6
Continuous
370
     0
390
F3371
347
F3374
  0
LAYER
  5
F2D7B
330
F3388
100
AcDbSymbolTableRecord
100
AcDbLayerTableRecord
  2
Level 24
 70
     0
 62
     7
  6
Continuous
370
     0
390
F3371
347
F3374
  0
LAYER
  5
F2D7C
330
F3388
100
AcDbSymbolTableRecord
100
AcDbLayerTableRecord
  2
Level 25
 70
     0
 62
     7
  6
Continuous
370
     0
390
F3371
347
F3374
  0
LAYER
  5
F2D7D
330
F3388
100
AcDbSymbolTableRecord
100
AcDbLayerTableRecord
  2
Level 26
 70
     0
 62
     7
  6
Continuous
370
     0
390
F3371
347
F3374
  0
LAYER
  5
F2D7E
330
F3388
100
AcDbSymbolTableRecord
100
AcDbLayerTableRecord
  2
Level 27
 70
     0
 62
     7
  6
Continuous
370
     0
390
F3371
347
F3374
  0
LAYER
  5
F2D7F
330
F3388
100
AcDbSymbolTableRecord
100
AcDbLayerTableRecord
  2
Level 28
 70
     0
 62
     7
  6
Continuous
370
     0
390
F3371
347
F3374
  0
LAYER
  5
F2D80
330
F3388
100
AcDbSymbolTableRecord
100
AcDbLayerTableRecord
  2
Level 29
 70
     0
 62
     7
  6
Continuous
370
     0
390
F3371
347
F3374
  0
LAYER
  5
F2D81
330
F3388
100
AcDbSymbolTableRecord
100
AcDbLayerTableRecord
  2
Level 30
 70
     0
 62
     7
  6
Continuous
370
     0
390
F3371
347
F3374
  0
LAYER
  5
F2D82
330
F3388
100
AcDbSymbolTableRecord
100
AcDbLayerTableRecord
  2
Level 31
 70
     0
 62
     7
  6
Continuous
370
     0
390
F3371
347
F3374
  0
LAYER
  5
F2D83
330
F3388
100
AcDbSymbolTableRecord
100
AcDbLayerTableRecord
  2
Level 32
 70
     0
 62
     7
  6
Continuous
370
     0
390
F3371
347
F3374
  0
LAYER
  5
F2D84
330
F3388
100
AcDbSymbolTableRecord
100
AcDbLayerTableRecord
  2
Level 33
 70
     0
 62
     7
  6
Continuous
370
     0
390
F3371
347
F3374
  0
LAYER
  5
F2D85
330
F3388
100
AcDbSymbolTableRecord
100
AcDbLayerTableRecord
  2
Level 34
 70
     0
 62
     7
  6
Continuous
370
     0
390
F3371
347
F3374
  0
LAYER
  5
F2D86
330
F3388
100
AcDbSymbolTableRecord
100
AcDbLayerTableRecord
  2
Level 35
 70
     0
 62
     7
  6
Continuous
370
     0
390
F3371
347
F3374
  0
LAYER
  5
F2D87
330
F3388
100
AcDbSymbolTableRecord
100
AcDbLayerTableRecord
  2
Level 36
 70
     0
 62
     7
  6
Continuous
370
     0
390
F3371
347
F3374
  0
LAYER
  5
F2D88
330
F3388
100
AcDbSymbolTableRecord
100
AcDbLayerTableRecord
  2
Level 37
 70
     0
 62
     7
  6
Continuous
370
     0
390
F3371
347
F3374
  0
LAYER
  5
F2D89
330
F3388
100
AcDbSymbolTableRecord
100
AcDbLayerTableRecord
  2
Level 38
 70
     0
 62
     7
  6
Continuous
370
     0
390
F3371
347
F3374
  0
LAYER
  5
F2D8A
330
F3388
100
AcDbSymbolTableRecord
100
AcDbLayerTableRecord
  2
Level 39
 70
     0
 62
     7
  6
Continuous
370
     0
390
F3371
347
F3374
  0
LAYER
  5
F2D8B
330
F3388
100
AcDbSymbolTableRecord
100
AcDbLayerTableRecord
  2
Level 40
 70
     0
 62
     7
  6
Continuous
370
     0
390
F3371
347
F3374
  0
LAYER
  5
F2D8C
330
F3388
100
AcDbSymbolTableRecord
100
AcDbLayerTableRecord
  2
Level 41
 70
     0
 62
     7
  6
Continuous
370
     0
390
F3371
347
F3374
  0
LAYER
  5
F2D8D
330
F3388
100
AcDbSymbolTableRecord
100
AcDbLayerTableRecord
  2
Level 42
 70
     0
 62
     7
  6
Continuous
370
     0
390
F3371
347
F3374
  0
LAYER
  5
F2D8E
330
F3388
100
AcDbSymbolTableRecord
100
AcDbLayerTableRecord
  2
Level 43
 70
     0
 62
     7
  6
Continuous
370
     0
390
F3371
347
F3374
  0
LAYER
  5
F2D8F
330
F3388
100
AcDbSymbolTableRecord
100
AcDbLayerTableRecord
  2
Level 44
 70
     0
 62
     7
  6
Continuous
370
     0
390
F3371
347
F3374
  0
LAYER
  5
F2D90
330
F3388
100
AcDbSymbolTableRecord
100
AcDbLayerTableRecord
  2
Level 45
 70
     0
 62
     7
  6
Continuous
370
     0
390
F3371
347
F3374
  0
LAYER
  5
F2D91
330
F3388
100
AcDbSymbolTableRecord
100
AcDbLayerTableRecord
  2
Level 46
 70
     0
 62
     7
  6
Continuous
370
     0
390
F3371
347
F3374
  0
LAYER
  5
F2D92
330
F3388
100
AcDbSymbolTableRecord
100
AcDbLayerTableRecord
  2
Level 47
 70
     0
 62
     7
  6
Continuous
370
     0
390
F3371
347
F3374
  0
LAYER
  5
F2D93
330
F3388
100
AcDbSymbolTableRecord
100
AcDbLayerTableRecord
  2
Level 48
 70
     0
 62
     7
  6
Continuous
370
     0
390
F3371
347
F3374
  0
LAYER
  5
F2D94
330
F3388
100
AcDbSymbolTableRecord
100
AcDbLayerTableRecord
  2
Level 49
 70
     0
 62
     7
  6
Continuous
370
     0
390
F3371
347
F3374
  0
LAYER
  5
F2D95
330
F3388
100
AcDbSymbolTableRecord
100
AcDbLayerTableRecord
  2
Level 50
 70
     0
 62
     7
  6
Continuous
370
     0
390
F3371
347
F3374
  0
LAYER
  5
F2D96
330
F3388
100
AcDbSymbolTableRecord
100
AcDbLayerTableRecord
  2
Level 51
 70
     0
 62
     7
  6
Continuous
370
     0
390
F3371
347
F3374
  0
LAYER
  5
F2D97
330
F3388
100
AcDbSymbolTableRecord
100
AcDbLayerTableRecord
  2
Level 52
 70
     0
 62
     7
  6
Continuous
370
     0
390
F3371
347
F3374
  0
LAYER
  5
F2D98
330
F3388
100
AcDbSymbolTableRecord
100
AcDbLayerTableRecord
  2
Level 53
 70
     0
 62
     7
  6
Continuous
370
     0
390
F3371
347
F3374
  0
LAYER
  5
F2D99
330
F3388
100
AcDbSymbolTableRecord
100
AcDbLayerTableRecord
  2
Level 54
 70
     0
 62
     7
  6
Continuous
370
     0
390
F3371
347
F3374
  0
LAYER
  5
F2D9A
330
F3388
100
AcDbSymbolTableRecord
100
AcDbLayerTableRecord
  2
Level 55
 70
     0
 62
     7
  6
Continuous
370
     0
390
F3371
347
F3374
  0
LAYER
  5
F2D9B
330
F3388
100
AcDbSymbolTableRecord
100
AcDbLayerTableRecord
  2
Level 56
 70
     0
 62
     7
  6
Continuous
370
     0
390
F3371
347
F3374
  0
LAYER
  5
F2D9C
330
F3388
100
AcDbSymbolTableRecord
100
AcDbLayerTableRecord
  2
Level 57
 70
     0
 62
     7
  6
Continuous
370
     0
390
F3371
347
F3374
  0
LAYER
  5
F2D9D
330
F3388
100
AcDbSymbolTableRecord
100
AcDbLayerTableRecord
  2
Level 58
 70
     0
 62
     7
  6
Continuous
370
     0
390
F3371
347
F3374
  0
LAYER
  5
F2D9E
330
F3388
100
AcDbSymbolTableRecord
100
AcDbLayerTableRecord
  2
Level 59
 70
     0
 62
     7
  6
Continuous
370
     0
390
F3371
347
F3374
  0
LAYER
  5
F2D9F
330
F3388
100
AcDbSymbolTableRecord
100
AcDbLayerTableRecord
  2
Level 60
 70
     0
 62
     7
  6
Continuous
370
     0
390
F3371
347
F3374
  0
LAYER
  5
F2DA0
330
F3388
100
AcDbSymbolTableRecord
100
AcDbLayerTableRecord
  2
Level 61
 70
     0
 62
     7
  6
Continuous
370
     0
390
F3371
347
F3374
  0
LAYER
  5
F2DA1
330
F3388
100
AcDbSymbolTableRecord
100
AcDbLayerTableRecord
  2
Level 62
 70
     0
 62
     7
  6
Continuous
370
     0
390
F3371
347
F3374
  0
LAYER
  5
F2DA2
330
F3388
100
AcDbSymbolTableRecord
100
AcDbLayerTableRecord
  2
Level 63
 70
     0
 62
     7
  6
Continuous
370
     0
390
F3371
347
F3374
  0
ENDTAB
  0
TABLE
  2
STYLE
  5
F338B
330
0
100
AcDbSymbolTable
 70
     2
  0
STYLE
  5
F338C
330
F338B
100
AcDbSymbolTableRecord
100
AcDbTextStyleTableRecord
  2
Standard
 70
     0
 40
0.0
 41
1.0
 50
0.0
 71
     0
 42
4.0
  3
txt
  4

  0
STYLE
  5
F33DB
330
F338B
100
AcDbSymbolTableRecord
100
AcDbTextStyleTableRecord
  2
Style-font30
 70
     0
 40
0.0
 41
1.0
 50
0.0
 71
     0
 42
4.0
  3
font30.shx
  4

  0
ENDTAB
  0
TABLE
  2
VIEW
  5
F3391
330
0
100
AcDbSymbolTable
 70
     0
  0
ENDTAB
  0
TABLE
  2
UCS
  5
F3392
330
0
100
AcDbSymbolTable
 70
     0
  0
ENDTAB
  0
TABLE
  2
APPID
  5
F3397
330
0
100
AcDbSymbolTable
 70
     2
  0
APPID
  5
F3398
330
F3397
100
AcDbSymbolTableRecord
100
AcDbRegAppTableRecord
  2
ACAD
 70
     0
  0
APPID
  5
F3387
330
F3397
100
AcDbSymbolTableRecord
100
AcDbRegAppTableRecord
  2
ACAD_PSEXT
 70
     0
  0
ENDTAB
  0
TABLE
  2
DIMSTYLE
  5
F3399
330
0
100
AcDbSymbolTable
 70
     1
100
AcDbDimStyleTable
 71
     1
340
F339A
  0
DIMSTYLE
105
F339A
330
F3399
100
AcDbSymbolTableRecord
100
AcDbDimStyleTableRecord
  2
Standard
 70
     0
340
F338C
  0
ENDTAB
  0
TABLE
  2
BLOCK_RECORD
  5
F336D
330
0
100
AcDbSymbolTable
 70
     0
  0
BLOCK_RECORD
  5
F336E
330
F336D
100
AcDbSymbolTableRecord
100
AcDbBlockTableRecord
  2
*Model_Space
340
F337F
 70
     0
280
     1
281
     0
  0
BLOCK_RECORD
  5
F3381
330
F336D
100
AcDbSymbolTableRecord
100
AcDbBlockTableRecord
  2
*Paper_Space
340
F3384
 70
     0
280
     1
281
     0
  0
ENDTAB
  0
ENDSEC
  0
SECTION
  2
BLOCKS
  0
BLOCK
  5
F336F
330
F336E
100
AcDbEntity
  8
0
100
AcDbBlockBegin
  2
*Model_Space
 70
     0
 10
0.0
 20
0.0
 30
0.0
  3
*Model_Space
  1

  0
ENDBLK
  5
F337E
330
F336E
100
AcDbEntity
  8
0
100
AcDbBlockEnd
  0
BLOCK
  5
F3382
330
F3381
100
AcDbEntity
 67
     1
  8
0
100
AcDbBlockBegin
  2
*Paper_Space
 70
     0
 10
0.0
 20
0.0
 30
0.0
  3
*Paper_Space
  1

  0
ENDBLK
  5
F3383
330
F3381
100
AcDbEntity
 67
     1
  8
0
100
AcDbBlockEnd
  0
ENDSEC
  0
SECTION
  2
ENTITIES
  0
ARC
  5
F30B4
330
F336E
100
AcDbEntity
  8
Level 40
  6
DGN Style 6
 62
     5
370
    13
100
AcDbCircle
 10
10324.802994
 20
29280.658696
 30
0.0
 40
1837.205830847549
210
0.0
220
0.0
230
-1.0
100
AcDbArc
 50
79.001337
 51
80.712089
  0
ARC
  5
F30B5
330
F336E
100
AcDbEntity
  8
Level 40
  6
DGN Style 6
 62
     5
370
    13
100
AcDbCircle
 10
10621.063426
 20
31092.209932
 30
0.0
 40
1.589278896488678
210
0.0
220
0.0
230
-1.0
100
AcDbArc
 50
80.712083
 51
170.798919
  0
LINE
  5
F30B6
330
F336E
100
AcDbEntity
  8
Level 40
  6
DGN Style 6
 62
     5
370
    13
100
AcDbLine
 10
-10619.492286
 20
31092.46094
 30
0.0
 11
-10615.995875
 21
31070.896418
 31
0.0
  0
ARC
  5
F30B7
330
F336E
100
AcDbEntity
  8
Level 40
  6
DGN Style 6
 62
     5
370
    13
100
AcDbCircle
 10
10617.569193
 20
31070.638503
 30
0.0
 40
1.589278507392843
210
0.0
220
0.0
230
-1.0
100
AcDbArc
 50
170.798883
 51
260.711047
  0
ARC
  5
F30B8
330
F336E
100
AcDbEntity
  8
Level 40
  6
DGN Style 6
 62
     5
370
    13
100
AcDbCircle
 10
-10324.802994
 20
29280.658696
 30
0.0
 40
1812.174695874551
100
AcDbArc
 50
99.288958
 51
100.997194
  0
ARC
  5
F30B9
330
F336E
100
AcDbEntity
  8
Level 40
  6
DGN Style 6
 62
     5
370
    13
100
AcDbCircle
 10
-10324.802994
 20
29280.658696
 30
0.0
 40
1812.174696305632
100
AcDbArc
 50
96.403936
 51
99.113242
  0
ARC
  5
F30BA
330
F336E
100
AcDbEntity
  8
Level 40
  6
DGN Style 6
 62
     5
370
    13
100
AcDbCircle
 10
10612.078289
 20
31071.527942
 30
0.0
 40
1.58927825779836
210
0.0
220
0.0
230
-1.0
100
AcDbArc
 50
260.886764
 51
350.798883
  0
LINE
  5
F30BB
330
F336E
100
AcDbEntity
  8
Level 40
  6
DGN Style 6
 62
     5
370
    13
100
AcDbLine
 10
-10613.65169
 20
31071.273873
 30
0.0
 11
-10617.138167
 21
31092.848326
 31
0.0
  0
ARC
  5
F30BC
330
F336E
100
AcDbEntity
  8
Level 40
  6
DGN Style 6
 62
     5
370
    13
100
AcDbCircle
 10
10615.572523
 20
31093.099373
 30
0.0
 40
1.589278654968899
210
0.0
220
0.0
230
-1.0
100
AcDbArc
 50
350.798886
 51
80.893886
  0
ARC
  5
F30BD
330
F336E
100
AcDbEntity
  8
Level 40
  6
DGN Style 6
 62
     5
370
    13
100
AcDbCircle
 10
10324.802994
 20
29280.658696
 30
0.0
 40
1837.205830540279
210
0.0
220
0.0
230
-1.0
100
AcDbArc
 50
80.885719
 51
83.597111
  0
ARC
  5
F30BE
330
F336E
100
AcDbEntity
  8
Level 40
  6
DGN Style 6
 62
     5
370
    13
100
AcDbCircle
 10
-10324.802994
 20
29280.658696
 30
0.0
 40
1812.174695486763
100
AcDbArc
 50
93.518914
 51
96.228219
  0
ARC
  5
F30BF
330
F336E
100
AcDbEntity
  8
Level 40
  6
DGN Style 6
 62
     5
370
    13
100
AcDbCircle
 10
10324.802994
 20
29280.658696
 30
0.0
 40
1837.205829901889
210
0.0
220
0.0
230
-1.0
100
AcDbArc
 50
83.770733
 51
86.482131
  0
ARC
  5
F30C0
330
F336E
100
AcDbEntity
  8
Level 40
  6
DGN Style 6
 62
     5
370
    13
100
AcDbCircle
 10
10437.436044
 20
31112.816419
 30
0.0
 40
1.589278654180301
210
0.0
220
0.0
230
-1.0
100
AcDbArc
 50
86.482125
 51
176.568961
  0
LINE
  5
F30C1
330
F336E
100
AcDbEntity
  8
Level 40
  6
DGN Style 6
 62
     5
370
    13
100
AcDbLine
 10
-10435.851169
 20
31112.912965
 30
0.0
 11
-10434.540012
 21
31091.10012
 31
0.0
  0
ARC
  5
F30C2
330
F336E
100
AcDbEntity
  8
Level 40
  6
DGN Style 6
 62
     5
370
    13
100
AcDbCircle
 10
10436.128222
 20
31091.002985
 30
0.0
 40
1.589278257356666
210
0.0
220
0.0
230
-1.0
100
AcDbArc
 50
176.568964
 51
266.481083
  0
ARC
  5
F30C3
330
F336E
100
AcDbEntity
  8
Level 40
  6
DGN Style 6
 62
     5
370
    13
100
AcDbCircle
 10
-10324.802994
 20
29280.658696
 30
0.0
 40
1812.174696058674
100
AcDbArc
 50
91.624122
 51
93.343197
  0
ARC
  5
F30C4
330
F336E
100
AcDbEntity
  8
Level 40
  6
DGN Style 6
 62
     5
370
    13
100
AcDbCircle
 10
10430.575718
 20
31091.335886
 30
0.0
 40
1.589278507500667
210
0.0
220
0.0
230
-1.0
100
AcDbArc
 50
266.6568
 51
356.568964
  0
LINE
  5
F30C5
330
F336E
100
AcDbEntity
  8
Level 40
  6
DGN Style 6
 62
     5
370
    13
100
AcDbLine
 10
-10432.166029
 20
31091.239182
 30
0.0
 11
-10433.467251
 21
31113.052028
 31
0.0
  0
ARC
  5
F30C6
330
F336E
100
AcDbEntity
  8
Level 40
  6
DGN Style 6
 62
     5
370
    13
100
AcDbCircle
 10
10431.88354
 20
31113.149318
 30
0.0
 40
1.589278897473056
210
0.0
220
0.0
230
-1.0
100
AcDbArc
 50
356.568928
 51
86.655764
  0
ARC
  5
F30C7
330
F336E
100
AcDbEntity
  8
Level 40
  6
DGN Style 6
 62
     5
370
    13
100
AcDbCircle
 10
10324.802994
 20
29280.658696
 30
0.0
 40
1837.205830059559
210
0.0
220
0.0
230
-1.0
100
AcDbArc
 50
86.655756
 51
88.377908
  0
ARC
  5
F30C8
330
F336E
100
AcDbEntity
  8
Level 40
  6
DGN Style 6
 62
     5
370
    13
100
AcDbCircle
 10
10376.527659
 20
31107.199304
 30
0.0
 40
9.932990095134393
210
0.0
220
0.0
230
-1.0
100
AcDbArc
 50
88.377908
 51
102.523297
  0
ARC
  5
F30C9
330
F336E
100
AcDbEntity
  8
Level 40
  6
DGN Style 6
 62
     5
370
    13
100
AcDbCircle
 10
-10372.219987
 20
31126.592631
 30
0.0
 40
9.932990317043856
100
AcDbArc
 50
257.476703
 51
271.471447
  0
ARC
  5
F30CA
330
F336E
100
AcDbEntity
  8
Level 40
  6
DGN Style 6
 62
     5
370
    13
100
AcDbCircle
 10
10324.802995
 20
29280.658696
 30
0.0
 40
1836.609850901629
210
0.0
220
0.0
230
-1.0
100
AcDbArc
 50
88.528553
 51
89.216358
  0
ARC
  5
F30CB
330
F336E
100
AcDbEntity
  8
Level 40
  6
DGN Style 6
 62
     5
370
    13
100
AcDbCircle
 10
10349.88102
 20
31114.11715
 30
0.0
 40
2.979896697590161
210
0.0
220
0.0
230
-1.0
100
AcDbArc
 50
89.216358
 51
126.131131
  0
LINE
  5
F30CC
330
F336E
100
AcDbEntity
  8
Level 40
  6
DGN Style 6
 62
     5
370
    13
100
AcDbLine
 10
-10348.122999
 20
31116.51864
 30
0.0
 11
-10345.719217
 21
31114.770435
 31
0.0
  0
ARC
  5
F30CD
330
F336E
100
AcDbEntity
  8
Level 40
  6
DGN Style 6
 62
     5
370
    13
100
AcDbCircle
 10
10346.652855
 20
31113.48221
 30
0.0
 40
1.58927840040456
210
0.0
220
0.0
230
-1.0
100
AcDbArc
 50
126.131128
 51
179.503281
  0
LINE
  5
F30CE
330
F336E
100
AcDbEntity
  8
Level 40
  6
DGN Style 6
 62
     5
370
    13
100
AcDbLine
 10
-10345.06364
 20
31113.499014
 30
0.0
 11
-10344.924578
 21
31096.910921
 31
0.0
  0
ARC
  5
F30CF
330
F336E
100
AcDbEntity
  8
Level 40
  6
DGN Style 6
 62
     5
370
    13
100
AcDbCircle
 10
10346.509033
 20
31096.89291
 30
0.0
 40
1.58927840012669
210
0.0
220
0.0
230
-1.0
100
AcDbArc
 50
179.503281
 51
233.657181
  0
LINE
  5
F30D0
330
F336E
100
AcDbEntity
  8
Level 40
  6
DGN Style 6
 62
     5
370
    13
100
AcDbLine
 10
-10345.570221
 20
31095.609698
 30
0.0
 11
-10347.98394
 21
31093.841625
 31
0.0
  0
ARC
  5
F30D1
330
F336E
100
AcDbEntity
  8
Level 40
  6
DGN Style 6
 62
     5
370
    13
100
AcDbCircle
 10
10349.745849
 20
31096.237941
 30
0.0
 40
2.979896700043219
210
0.0
220
0.0
230
-1.0
100
AcDbArc
 50
233.657183
 51
269.212908
  0
ARC
  5
F30D2
330
F336E
100
AcDbEntity
  8
Level 40
  6
DGN Style 6
 62
     5
370
    13
100
AcDbCircle
 10
-10324.802995
 20
29280.658696
 30
0.0
 40
1812.770675337411
100
AcDbArc
 50
90.787094
 51
91.47145
  0
ARC
  5
F30D3
330
F336E
100
AcDbEntity
  8
Level 40
  6
DGN Style 6
 62
     5
370
    13
100
AcDbCircle
 10
-10371.097692
 20
31082.901887
 30
0.0
 40
9.93299031768355
100
AcDbArc
 50
91.471447
 51
105.617964
  0
ARC
  5
F30D4
330
F336E
100
AcDbEntity
  8
Level 40
  6
DGN Style 6
 62
     5
370
    13
100
AcDbCircle
 10
10376.446046
 20
31102.034384
 30
0.0
 40
9.932994221593178
210
0.0
220
0.0
230
-1.0
100
AcDbArc
 50
254.382047
 51
268.375872
  0
ARC
  5
F30D5
330
F336E
100
AcDbEntity
  8
Level 40
  6
DGN Style 6
 62
     5
370
    13
100
AcDbCircle
 10
-10341.074442
 20
31111.667826
 30
0.0
 40
1.589278399679105
100
AcDbArc
 50
134.087778
 51
180.496719
  0
LINE
  5
F30D6
330
F336E
100
AcDbEntity
  8
Level 40
  6
DGN Style 6
 62
     5
370
    13
100
AcDbLine
 10
-10342.659855
 20
31111.651475
 30
0.0
 11
-10342.550594
 21
31098.788255
 31
0.0
  0
ARC
  5
F30D7
330
F336E
100
AcDbEntity
  8
Level 40
  6
DGN Style 6
 62
     5
370
    13
100
AcDbCircle
 10
-10340.962931
 20
31098.805586
 30
0.0
 40
1.589278400123006
100
AcDbArc
 50
180.496719
 51
219.842054
  0
ARC
  5
F30D8
330
F336E
100
AcDbEntity
  8
Level 40
  6
DGN Style 6
 62
     5
370
    13
100
AcDbCircle
 10
10352.739174
 20
31105.135094
 30
0.0
 40
14.90021307350201
210
0.0
220
0.0
230
-1.0
100
AcDbArc
 50
224.890809
 51
233.657183
  0
LINE
  5
F30D9
330
F336E
100
AcDbEntity
  8
Level 40
  6
DGN Style 6
 62
     5
370
    13
100
AcDbLine
 10
-10343.911414
 20
31093.136384
 30
0.0
 11
-10347.755479
 21
31090.305481
 31
0.0
  0
ARC
  5
F30DA
330
F336E
100
AcDbEntity
  8
Level 40
  6
DGN Style 6
 62
     5
370
    13
100
AcDbCircle
 10
-10324.802994
 20
29280.658696
 30
0.0
 40
1809.790778024604
100
AcDbArc
 50
90.726639
 51
92.974572
  0
ARC
  5
F30DB
330
F336E
100
AcDbEntity
  8
Level 40
  6
DGN Style 6
 62
     5
370
    13
100
AcDbCircle
 10
-10418.614966
 20
31086.027154
 30
0.0
 40
1.986597502499312
100
AcDbArc
 50
92.974575
 51
183.431039
  0
LINE
  5
F30DC
330
F336E
100
AcDbEntity
  8
Level 40
  6
DGN Style 6
 62
     5
370
    13
100
AcDbLine
 10
-10420.594097
 20
31085.905167
 30
0.0
 11
-10420.186843
 21
31079.021605
 31
0.0
  0
ARC
  5
F30DD
330
F336E
100
AcDbEntity
  8
Level 40
  6
DGN Style 6
 62
     5
370
    13
100
AcDbCircle
 10
-10418.203486
 20
31079.142858
 30
0.0
 40
1.985332963492929
100
AcDbArc
 50
183.431056
 51
273.431056
  0
LINE
  5
F30DE
330
F336E
100
AcDbEntity
  8
Level 40
  6
DGN Style 6
 62
     5
370
    13
100
AcDbLine
 10
-10418.081048
 20
31077.164135
 30
0.0
 11
-10414.117786
 21
31077.402528
 31
0.0
  0
LINE
  5
F30DF
330
F336E
100
AcDbEntity
  8
Level 40
  6
DGN Style 6
 62
     5
370
    13
100
AcDbLine
 10
-10414.117786
 20
31077.402528
 30
0.0
 11
-10414.207182
 21
31078.882542
 31
0.0
  0
LINE
  5
F30E0
330
F336E
100
AcDbEntity
  8
Level 40
  6
DGN Style 6
 62
     5
370
    13
100
AcDbLine
 10
-10414.207182
 20
31078.882542
 30
0.0
 11
-10410.154524
 21
31077.64092
 31
0.0
  0
LINE
  5
F30E1
330
F336E
100
AcDbEntity
  8
Level 40
  6
DGN Style 6
 62
     5
370
    13
100
AcDbLine
 10
-10410.154524
 20
31077.64092
 30
0.0
 11
-10409.975728
 21
31074.661023
 31
0.0
  0
LINE
  5
F30E2
330
F336E
100
AcDbEntity
  8
Level 40
  6
DGN Style 6
 62
     5
370
    13
100
AcDbLine
 10
-10409.975728
 20
31074.661023
 30
0.0
 11
-10426.832013
 21
31073.647856
 31
0.0
  0
LINE
  5
F30E3
330
F336E
100
AcDbEntity
  8
Level 40
  6
DGN Style 6
 62
     5
370
    13
100
AcDbLine
 10
-10426.832013
 20
31073.647856
 30
0.0
 11
-10427.010808
 21
31076.627753
 31
0.0
  0
LINE
  5
F30E4
330
F336E
100
AcDbEntity
  8
Level 40
  6
DGN Style 6
 62
     5
370
    13
100
AcDbLine
 10
-10427.010808
 20
31076.627753
 30
0.0
 11
-10424.030911
 21
31076.806548
 31
0.0
  0
ARC
  5
F30E5
330
F336E
100
AcDbEntity
  8
Level 40
  6
DGN Style 6
 62
     5
370
    13
100
AcDbCircle
 10
-10424.09194
 20
31077.795599
 30
0.0
 40
0.9932989998087132
100
AcDbArc
 50
273.431056
 51
3.431056
  0
LINE
  5
F30E6
330
F336E
100
AcDbEntity
  8
Level 40
  6
DGN Style 6
 62
     5
370
    13
100
AcDbLine
 10
-10423.097209
 20
31077.859445
 30
0.0
 11
-10423.573994
 21
31085.776038
 31
0.0
  0
ARC
  5
F30E7
330
F336E
100
AcDbEntity
  8
Level 40
  6
DGN Style 6
 62
     5
370
    13
100
AcDbCircle
 10
-10425.558111
 20
31085.652978
 30
0.0
 40
1.986598497214506
100
AcDbArc
 50
3.431042
 51
93.19495
  0
ARC
  5
F30E8
330
F336E
100
AcDbEntity
  8
Level 40
  6
DGN Style 6
 62
     5
370
    13
100
AcDbCircle
 10
-10324.802994
 20
29280.658696
 30
0.0
 40
1809.790777623781
100
AcDbArc
 50
93.194944
 51
93.667164
  0
ARC
  5
F30E9
330
F336E
100
AcDbEntity
  8
Level 40
  6
DGN Style 6
 62
     5
370
    13
100
AcDbCircle
 10
-10440.43089
 20
31084.761283
 30
0.0
 40
1.986597504285126
100
AcDbArc
 50
93.667169
 51
183.431042
  0
LINE
  5
F30EA
330
F336E
100
AcDbEntity
  8
Level 40
  6
DGN Style 6
 62
     5
370
    13
100
AcDbLine
 10
-10442.416873
 20
31084.643676
 30
0.0
 11
-10441.940092
 21
31076.727083
 31
0.0
  0
ARC
  5
F30EB
330
F336E
100
AcDbEntity
  8
Level 40
  6
DGN Style 6
 62
     5
370
    13
100
AcDbCircle
 10
-10440.947756
 20
31076.78501
 30
0.0
 40
0.9932990002627708
100
AcDbArc
 50
183.431056
 51
273.431056
  0
LINE
  5
F30EC
330
F336E
100
AcDbEntity
  8
Level 40
  6
DGN Style 6
 62
     5
370
    13
100
AcDbLine
 10
-10440.887195
 20
31075.793381
 30
0.0
 11
-10437.917229
 21
31075.972177
 31
0.0
  0
LINE
  5
F30ED
330
F336E
100
AcDbEntity
  8
Level 40
  6
DGN Style 6
 62
     5
370
    13
100
AcDbLine
 10
-10437.917229
 20
31075.972177
 30
0.0
 11
-10437.738437
 21
31072.99228
 31
0.0
  0
LINE
  5
F30EE
330
F336E
100
AcDbEntity
  8
Level 40
  6
DGN Style 6
 62
     5
370
    13
100
AcDbLine
 10
-10437.738437
 20
31072.99228
 30
0.0
 11
-10454.594721
 21
31071.989047
 31
0.0
  0
LINE
  5
F30EF
330
F336E
100
AcDbEntity
  8
Level 40
  6
DGN Style 6
 62
     5
370
    13
100
AcDbLine
 10
-10454.594721
 20
31071.989047
 30
0.0
 11
-10454.763583
 21
31074.959013
 31
0.0
  0
LINE
  5
F30F0
330
F336E
100
AcDbEntity
  8
Level 40
  6
DGN Style 6
 62
     5
370
    13
100
AcDbLine
 10
-10454.763583
 20
31074.959013
 30
0.0
 11
-10450.889716
 21
31076.687351
 31
0.0
  0
LINE
  5
F30F1
330
F336E
100
AcDbEntity
  8
Level 40
  6
DGN Style 6
 62
     5
370
    13
100
AcDbLine
 10
-10450.889716
 20
31076.687351
 30
0.0
 11
-10450.800317
 21
31075.197402
 31
0.0
  0
LINE
  5
F30F2
330
F336E
100
AcDbEntity
  8
Level 40
  6
DGN Style 6
 62
     5
370
    13
100
AcDbLine
 10
-10450.800317
 20
31075.197402
 30
0.0
 11
-10446.837055
 21
31075.435794
 31
0.0
  0
ARC
  5
F30F3
330
F336E
100
AcDbEntity
  8
Level 40
  6
DGN Style 6
 62
     5
370
    13
100
AcDbCircle
 10
-10446.954999
 20
31077.419064
 30
0.0
 40
1.985332962584286
100
AcDbArc
 50
273.431056
 51
3.431056
  0
LINE
  5
F30F4
330
F336E
100
AcDbEntity
  8
Level 40
  6
DGN Style 6
 62
     5
370
    13
100
AcDbLine
 10
-10444.969652
 20
31077.54159
 30
0.0
 11
-10445.386839
 21
31084.425152
 31
0.0
  0
ARC
  5
F30F5
330
F336E
100
AcDbEntity
  8
Level 40
  6
DGN Style 6
 62
     5
370
    13
100
AcDbCircle
 10
-10447.369008
 20
31084.303214
 30
0.0
 40
1.986592192048806
100
AcDbArc
 50
3.431222
 51
93.887644
  0
ARC
  5
F30F6
330
F336E
100
AcDbEntity
  8
Level 40
  6
DGN Style 6
 62
     5
370
    13
100
AcDbCircle
 10
-10324.802994
 20
29280.658696
 30
0.0
 40
1809.790778206117
100
AcDbArc
 50
93.887536
 51
98.744617
  0
ARC
  5
F30F7
330
F336E
100
AcDbEntity
  8
Level 40
  6
DGN Style 6
 62
     5
370
    13
100
AcDbCircle
 10
-10599.644416
 20
31067.448602
 30
0.0
 40
1.986592192322981
100
AcDbArc
 50
98.744508
 51
189.200931
  0
LINE
  5
F30F8
330
F336E
100
AcDbEntity
  8
Level 40
  6
DGN Style 6
 62
     5
370
    13
100
AcDbLine
 10
-10601.602973
 20
31067.131815
 30
0.0
 11
-10600.500411
 21
31060.317785
 31
0.0
  0
ARC
  5
F30F9
330
F336E
100
AcDbEntity
  8
Level 40
  6
DGN Style 6
 62
     5
370
    13
100
AcDbCircle
 10
-10598.542904
 20
31060.640548
 30
0.0
 40
1.985332962862879
100
AcDbArc
 50
189.2011
 51
279.2011
  0
LINE
  5
F30FA
330
F336E
100
AcDbEntity
  8
Level 40
  6
DGN Style 6
 62
     5
370
    13
100
AcDbLine
 10
-10598.225757
 20
31058.67884
 30
0.0
 11
-10594.302224
 21
31059.314552
 31
0.0
  0
LINE
  5
F30FB
330
F336E
100
AcDbEntity
  8
Level 40
  6
DGN Style 6
 62
     5
370
    13
100
AcDbLine
 10
-10594.302224
 20
31059.314552
 30
0.0
 11
-10594.540617
 21
31060.784636
 31
0.0
  0
LINE
  5
F30FC
330
F336E
100
AcDbEntity
  8
Level 40
  6
DGN Style 6
 62
     5
370
    13
100
AcDbLine
 10
-10594.540617
 20
31060.784636
 30
0.0
 11
-10590.378695
 21
31059.950264
 31
0.0
  0
LINE
  5
F30FD
330
F336E
100
AcDbEntity
  8
Level 40
  6
DGN Style 6
 62
     5
370
    13
100
AcDbLine
 10
-10590.378695
 20
31059.950264
 30
0.0
 11
-10589.90191
 21
31057.0101
 31
0.0
  0
LINE
  5
F30FE
330
F336E
100
AcDbEntity
  8
Level 40
  6
DGN Style 6
 62
     5
370
    13
100
AcDbLine
 10
-10589.90191
 20
31057.0101
 30
0.0
 11
-10606.569468
 21
31054.308324
 31
0.0
  0
LINE
  5
F30FF
330
F336E
100
AcDbEntity
  8
Level 40
  6
DGN Style 6
 62
     5
370
    13
100
AcDbLine
 10
-10606.569468
 20
31054.308324
 30
0.0
 11
-10607.04625
 21
31057.248489
 31
0.0
  0
LINE
  5
F3100
330
F336E
100
AcDbEntity
  8
Level 40
  6
DGN Style 6
 62
     5
370
    13
100
AcDbLine
 10
-10607.04625
 20
31057.248489
 30
0.0
 11
-10604.106086
 21
31057.725274
 31
0.0
  0
ARC
  5
F3101
330
F336E
100
AcDbEntity
  8
Level 40
  6
DGN Style 6
 62
     5
370
    13
100
AcDbCircle
 10
-10604.266075
 20
31058.708113
 30
0.0
 40
0.9932990004165635
100
AcDbArc
 50
279.2011
 51
9.2011
  0
LINE
  5
F3102
330
F336E
100
AcDbEntity
  8
Level 40
  6
DGN Style 6
 62
     5
370
    13
100
AcDbLine
 10
-10603.281648
 20
31058.867569
 30
0.0
 11
-10604.553072
 21
31066.694763
 31
0.0
  0
ARC
  5
F3103
330
F336E
100
AcDbEntity
  8
Level 40
  6
DGN Style 6
 62
     5
370
    13
100
AcDbCircle
 10
-10606.514768
 20
31066.37828
 30
0.0
 40
1.986597504705911
100
AcDbArc
 50
9.201114
 51
98.964986
  0
ARC
  5
F3104
330
F336E
100
AcDbEntity
  8
Level 40
  6
DGN Style 6
 62
     5
370
    13
100
AcDbCircle
 10
-10324.802996
 20
29280.658696
 30
0.0
 40
1809.790777282022
100
AcDbArc
 50
98.964989
 51
99.437208
  0
ARC
  5
F3105
330
F336E
100
AcDbEntity
  8
Level 40
  6
DGN Style 6
 62
     5
370
    13
100
AcDbCircle
 10
-10621.222544
 20
31063.995849
 30
0.0
 40
1.986598496212672
100
AcDbArc
 50
99.437206
 51
189.201114
  0
LINE
  5
F3106
330
F336E
100
AcDbEntity
  8
Level 40
  6
DGN Style 6
 62
     5
370
    13
100
AcDbLine
 10
-10623.18736
 20
31063.675134
 30
0.0
 11
-10621.915936
 21
31055.847939
 31
0.0
  0
ARC
  5
F3107
330
F336E
100
AcDbEntity
  8
Level 40
  6
DGN Style 6
 62
     5
370
    13
100
AcDbCircle
 10
-10620.934888
 20
31056.008026
 30
0.0
 40
0.9932989999466899
100
AcDbArc
 50
189.2011
 51
279.2011
  0
LINE
  5
F3108
330
F336E
100
AcDbEntity
  8
Level 40
  6
DGN Style 6
 62
     5
370
    13
100
AcDbLine
 10
-10620.773644
 20
31055.023502
 30
0.0
 11
-10617.833477
 21
31055.500283
 31
0.0
  0
LINE
  5
F3109
330
F336E
100
AcDbEntity
  8
Level 40
  6
DGN Style 6
 62
     5
370
    13
100
AcDbLine
 10
-10617.833477
 20
31055.500283
 30
0.0
 11
-10617.356695
 21
31052.560119
 31
0.0
  0
LINE
  5
F310A
330
F336E
100
AcDbEntity
  8
Level 40
  6
DGN Style 6
 62
     5
370
    13
100
AcDbLine
 10
-10617.356695
 20
31052.560119
 30
0.0
 11
-10634.02425
 21
31049.858347
 31
0.0
  0
LINE
  5
F310B
330
F336E
100
AcDbEntity
  8
Level 40
  6
DGN Style 6
 62
     5
370
    13
100
AcDbLine
 10
-10634.02425
 20
31049.858347
 30
0.0
 11
-10634.501035
 21
31052.808445
 31
0.0
  0
LINE
  5
F310C
330
F336E
100
AcDbEntity
  8
Level 40
  6
DGN Style 6
 62
     5
370
    13
100
AcDbLine
 10
-10634.501035
 20
31052.808445
 30
0.0
 11
-10630.815895
 21
31054.914238
 31
0.0
  0
LINE
  5
F310D
330
F336E
100
AcDbEntity
  8
Level 40
  6
DGN Style 6
 62
     5
370
    13
100
AcDbLine
 10
-10630.815895
 20
31054.914238
 30
0.0
 11
-10630.577506
 21
31053.444154
 31
0.0
  0
LINE
  5
F310E
330
F336E
100
AcDbEntity
  8
Level 40
  6
DGN Style 6
 62
     5
370
    13
100
AcDbLine
 10
-10630.577506
 20
31053.444154
 30
0.0
 11
-10626.653973
 21
31054.079866
 31
0.0
  0
ARC
  5
F310F
330
F336E
100
AcDbEntity
  8
Level 40
  6
DGN Style 6
 62
     5
370
    13
100
AcDbCircle
 10
-10626.97544
 20
31056.034922
 30
0.0
 40
1.985332963800563
100
AcDbArc
 50
279.2011
 51
9.2011
  0
LINE
  5
F3110
330
F336E
100
AcDbEntity
  8
Level 40
  6
DGN Style 6
 62
     5
370
    13
100
AcDbLine
 10
-10625.015031
 20
31056.35452
 30
0.0
 11
-10626.117591
 21
31063.158619
 31
0.0
  0
ARC
  5
F3111
330
F336E
100
AcDbEntity
  8
Level 40
  6
DGN Style 6
 62
     5
370
    13
100
AcDbCircle
 10
-10628.079453
 20
31062.842566
 30
0.0
 40
1.98659750345772
100
AcDbArc
 50
9.201114
 51
99.657578
  0
ARC
  5
F3112
330
F336E
100
AcDbEntity
  8
Level 40
  6
DGN Style 6
 62
     5
370
    13
100
AcDbCircle
 10
-10324.802994
 20
29280.658696
 30
0.0
 40
1809.790777990316
100
AcDbArc
 50
99.657581
 51
100.128378
  0
ARC
  5
F3113
330
F336E
100
AcDbEntity
  8
Level 40
  6
DGN Style 6
 62
     5
370
    13
100
AcDbCircle
 10
10324.802994
 20
29280.658696
 30
0.0
 40
1839.589748512679
210
0.0
220
0.0
230
-1.0
100
AcDbArc
 50
77.935629
 51
89.278392
  0
LINE
  5
F3114
330
F336E
100
AcDbEntity
  8
Level 40
  6
DGN Style 6
 62
     5
370
    13
100
AcDbLine
 10
-10347.974006
 20
31120.104451
 30
0.0
 11
-10343.951144
 21
31117.17422
 31
0.0
  0
ARC
  5
F3115
330
F336E
100
AcDbEntity
  8
Level 40
  6
DGN Style 6
 62
     5
370
    13
100
AcDbCircle
 10
10352.739174
 20
31105.135094
 30
0.0
 40
14.90021308116823
210
0.0
220
0.0
230
-1.0
100
AcDbArc
 50
126.131128
 51
135.10648
  0
LINE
  5
F3129
330
F336E
100
AcDbEntity
  8
Level 45
  6
DGN Style 4
 62
     1
370
    13
100
AcDbLine
 10
-10342.183073
 20
31055.925638
 30
0.0
 11
-10342.183073
 21
31207.555994
 31
0.0
  0
LINE
  5
F312A
330
F336E
100
AcDbEntity
  8
Level 40
  6
DGN Style 6
 62
     5
370
    13
100
AcDbLine
 10
-10715.762827
 20
31078.316362
 30
0.0
 11
-10711.203583
 21
31076.329764
 31
0.0
  0
ARC
  5
F312B
330
F336E
100
AcDbEntity
  8
Level 40
  6
DGN Style 6
 62
     5
370
    13
100
AcDbCircle
 10
10717.159606
 20
31062.666228
 30
0.0
 40
14.90021307889421
210
0.0
220
0.0
230
-1.0
100
AcDbArc
 50
113.558575
 51
130.180389
  0
ARC
  5
F312C
330
F336E
100
AcDbEntity
  8
Level 40
  6
DGN Style 6
 62
     5
370
    13
100
AcDbCircle
 10
10707.738308
 20
31073.822574
 30
0.0
 40
0.29799019614323
210
0.0
220
0.0
230
-1.0
100
AcDbArc
 50
130.180433
 51
221.349806
  0
LINE
  5
F312D
330
F336E
100
AcDbEntity
  8
Level 40
  6
DGN Style 6
 62
     5
370
    13
100
AcDbLine
 10
-10707.518445
 20
31073.627991
 30
0.0
 11
-10708.392547
 21
31072.634692
 31
0.0
  0
ARC
  5
F312E
330
F336E
100
AcDbEntity
  8
Level 40
  6
DGN Style 6
 62
     5
370
    13
100
AcDbCircle
 10
-10707.196598
 20
31071.581442
 30
0.0
 40
1.589278400601577
100
AcDbArc
 50
138.650292
 51
193.069275
  0
LINE
  5
F312F
330
F336E
100
AcDbEntity
  8
Level 40
  6
DGN Style 6
 62
     5
370
    13
100
AcDbLine
 10
-10708.750137
 20
31071.224206
 30
0.0
 11
-10705.839768
 21
31058.688774
 31
0.0
  0
ARC
  5
F3130
330
F336E
100
AcDbEntity
  8
Level 40
  6
DGN Style 6
 62
     5
370
    13
100
AcDbCircle
 10
-10704.287964
 20
31059.051897
 30
0.0
 40
1.589278400587767
100
AcDbArc
 50
193.069275
 51
247.488258
  0
LINE
  5
F3131
330
F336E
100
AcDbEntity
  8
Level 40
  6
DGN Style 6
 62
     5
370
    13
100
AcDbLine
 10
-10704.896136
 20
31057.586211
 30
0.0
 11
-10703.674378
 21
31057.079631
 31
0.0
  0
ARC
  5
F3132
330
F336E
100
AcDbEntity
  8
Level 40
  6
DGN Style 6
 62
     5
370
    13
100
AcDbCircle
 10
10703.786957
 20
31056.801316
 30
0.0
 40
0.297989599601622
210
0.0
220
0.0
230
-1.0
100
AcDbArc
 50
112.511836
 51
203.681047
  0
ARC
  5
F3133
330
F336E
100
AcDbEntity
  8
Level 40
  6
DGN Style 6
 62
     5
370
    13
100
AcDbCircle
 10
10717.159606
 20
31062.666228
 30
0.0
 40
14.90021308194102
210
0.0
220
0.0
230
-1.0
100
AcDbArc
 50
203.681067
 51
221.084628
  0
LINE
  5
F3134
330
F336E
100
AcDbEntity
  8
Level 40
  6
DGN Style 6
 62
     5
370
    13
100
AcDbLine
 10
-10705.929167
 20
31052.877973
 30
0.0
 11
-10709.067991
 21
31049.272298
 31
0.0
  0
ARC
  5
F3135
330
F336E
100
AcDbEntity
  8
Level 40
  6
DGN Style 6
 62
     5
370
    13
100
AcDbCircle
 10
-10292.749035
 20
29288.019722
 30
0.0
 40
1809.790778251554
100
AcDbArc
 50
103.299194
 51
104.558571
  0
ARC
  5
F3136
330
F336E
100
AcDbEntity
  8
Level 40
  6
DGN Style 6
 62
     5
370
    13
100
AcDbCircle
 10
-10324.802993
 20
29280.658696
 30
0.0
 40
1812.770675124725
100
AcDbArc
 50
101.160706
 51
101.821769
  0
ARC
  5
F3137
330
F336E
100
AcDbEntity
  8
Level 40
  6
DGN Style 6
 62
     5
370
    13
100
AcDbCircle
 10
10696.507251
 20
31056.535378
 30
0.0
 40
1.589278479518759
210
0.0
220
0.0
230
-1.0
100
AcDbArc
 50
258.178225
 51
347.864569
  0
LINE
  5
F3138
330
F336E
100
AcDbEntity
  8
Level 40
  6
DGN Style 6
 62
     5
370
    13
100
AcDbLine
 10
-10698.062237
 20
31056.205526
 30
0.0
 11
-10702.402954
 21
31076.399295
 31
0.0
  0
ARC
  5
F3139
330
F336E
100
AcDbEntity
  8
Level 40
  6
DGN Style 6
 62
     5
370
    13
100
AcDbCircle
 10
10700.850661
 20
31076.7346
 30
0.0
 40
1.589278892043412
210
0.0
220
0.0
230
-1.0
100
AcDbArc
 50
347.864536
 51
78.1747
  0
ARC
  5
F313A
330
F336E
100
AcDbEntity
  8
Level 40
  6
DGN Style 6
 62
     5
370
    13
100
AcDbCircle
 10
10324.802993
 20
29280.658696
 30
0.0
 40
1836.609850517683
210
0.0
220
0.0
230
-1.0
100
AcDbArc
 50
78.174697
 51
78.839294
  0
ARC
  5
F313B
330
F336E
100
AcDbEntity
  8
Level 40
  6
DGN Style 6
 62
     5
370
    13
100
AcDbCircle
 10
-10682.222704
 20
31092.279963
 30
0.0
 40
9.932990316689464
100
AcDbArc
 50
281.160706
 51
295.15545
  0
ARC
  5
F313C
330
F336E
100
AcDbEntity
  8
Level 40
  6
DGN Style 6
 62
     5
370
    13
100
AcDbCircle
 10
10673.77816
 20
31074.298116
 30
0.0
 40
9.932990096073263
210
0.0
220
0.0
230
-1.0
100
AcDbArc
 50
64.844547
 51
78.989936
  0
ARC
  5
F313D
330
F336E
100
AcDbEntity
  8
Level 40
  6
DGN Style 6
 62
     5
370
    13
100
AcDbCircle
 10
10672.728276
 20
31069.240369
 30
0.0
 40
9.932994221501665
210
0.0
220
0.0
230
-1.0
100
AcDbArc
 50
258.991972
 51
272.985797
  0
ARC
  5
F313E
330
F336E
100
AcDbEntity
  8
Level 40
  6
DGN Style 6
 62
     5
370
    13
100
AcDbCircle
 10
-10673.763066
 20
31049.401353
 30
0.0
 40
9.932990315504415
100
AcDbArc
 50
87.014189
 51
101.160706
  0
ARC
  5
F313F
330
F336E
100
AcDbEntity
  8
Level 40
  6
DGN Style 6
 62
     5
370
    13
100
AcDbCircle
 10
-10292.749035
 20
29288.019722
 30
0.0
 40
1812.174695001272
100
AcDbArc
 50
104.196678
 51
104.621119
  0
ARC
  5
F3140
330
F336E
100
AcDbEntity
  8
Level 40
  6
DGN Style 6
 62
     5
370
    13
100
AcDbCircle
 10
10292.749035
 20
29288.019722
 30
0.0
 40
1837.205830673761
210
0.0
220
0.0
230
-1.0
100
AcDbArc
 50
75.439344
 51
75.805356
  0
ARC
  5
F3141
330
F336E
100
AcDbEntity
  8
Level 40
  6
DGN Style 6
 62
     5
370
    13
100
AcDbCircle
 10
10740.826998
 20
31059.502765
 30
0.0
 40
9.932990093920448
210
0.0
220
0.0
230
-1.0
100
AcDbArc
 50
75.805353
 51
89.950742
  0
ARC
  5
F3142
330
F336E
100
AcDbEntity
  8
Level 40
  6
DGN Style 6
 62
     5
370
    13
100
AcDbCircle
 10
-10740.844078
 20
31079.368738
 30
0.0
 40
9.932990317911469
100
AcDbArc
 50
270.049258
 51
284.044003
  0
ARC
  5
F3143
330
F336E
100
AcDbEntity
  8
Level 40
  6
DGN Style 6
 62
     5
370
    13
100
AcDbCircle
 10
10292.749036
 20
29288.019722
 30
0.0
 40
1836.609850829088
210
0.0
220
0.0
230
-1.0
100
AcDbArc
 50
75.955997
 51
76.643803
  0
ARC
  5
F3144
330
F336E
100
AcDbEntity
  8
Level 40
  6
DGN Style 6
 62
     5
370
    13
100
AcDbCircle
 10
10716.325163
 20
31072.055056
 30
0.0
 40
2.979896697710882
210
0.0
220
0.0
230
-1.0
100
AcDbArc
 50
76.643803
 51
113.558575
  0
LINE
  5
F3145
330
F336E
100
AcDbEntity
  8
Level 40
  6
DGN Style 6
 62
     5
370
    13
100
AcDbLine
 10
-10715.137049
 20
31074.790152
 30
0.0
 11
-10712.405475
 21
31073.598193
 31
0.0
  0
ARC
  5
F3146
330
F336E
100
AcDbEntity
  8
Level 40
  6
DGN Style 6
 62
     5
370
    13
100
AcDbCircle
 10
10713.036195
 20
31072.138034
 30
0.0
 40
1.589278400160924
210
0.0
220
0.0
230
-1.0
100
AcDbArc
 50
113.558575
 51
166.930728
  0
LINE
  5
F3147
330
F336E
100
AcDbEntity
  8
Level 40
  6
DGN Style 6
 62
     5
370
    13
100
AcDbLine
 10
-10711.491641
 20
31072.49563
 30
0.0
 11
-10707.73697
 21
31056.334655
 31
0.0
  0
ARC
  5
F3148
330
F336E
100
AcDbEntity
  8
Level 40
  6
DGN Style 6
 62
     5
370
    13
100
AcDbCircle
 10
10709.284733
 20
31055.977834
 30
0.0
 40
1.589278400594298
210
0.0
220
0.0
230
-1.0
100
AcDbArc
 50
166.930725
 51
221.084625
  0
LINE
  5
F3149
330
F336E
100
AcDbEntity
  8
Level 40
  6
DGN Style 6
 62
     5
370
    13
100
AcDbLine
 10
-10708.084626
 20
31054.934102
 30
0.0
 11
-10710.051356
 21
31052.679313
 31
0.0
  0
ARC
  5
F314A
330
F336E
100
AcDbEntity
  8
Level 40
  6
DGN Style 6
 62
     5
370
    13
100
AcDbCircle
 10
10712.301363
 20
31054.633993
 30
0.0
 40
2.979896697820597
210
0.0
220
0.0
230
-1.0
100
AcDbArc
 50
221.084628
 51
256.640353
  0
ARC
  5
F314B
330
F336E
100
AcDbEntity
  8
Level 40
  6
DGN Style 6
 62
     5
370
    13
100
AcDbCircle
 10
-10292.749036
 20
29288.019722
 30
0.0
 40
1812.770674282626
100
AcDbArc
 50
103.359647
 51
104.044003
  0
ARC
  5
F314C
330
F336E
100
AcDbEntity
  8
Level 40
  6
DGN Style 6
 62
     5
370
    13
100
AcDbCircle
 10
-10730.238278
 20
31036.969944
 30
0.0
 40
9.93299031715645
100
AcDbArc
 50
104.044003
 51
118.190519
  0
ARC
  5
F314D
330
F336E
100
AcDbEntity
  8
Level 40
  6
DGN Style 6
 62
     5
370
    13
100
AcDbCircle
 10
10739.623065
 20
31054.479459
 30
0.0
 40
9.932994220344516
210
0.0
220
0.0
230
-1.0
100
AcDbArc
 50
241.809492
 51
255.803317
  0
LINE
  5
F314E
330
F336E
100
AcDbEntity
  8
Level 40
  6
DGN Style 6
 62
     5
370
    13
100
AcDbLine
 10
-10703.068465
 20
31050.474191
 30
0.0
 11
-10705.889434
 21
31052.917706
 31
0.0
  0
ARC
  5
F314F
330
F336E
100
AcDbEntity
  8
Level 40
  6
DGN Style 6
 62
     5
370
    13
100
AcDbCircle
 10
-10717.159606
 20
31062.666228
 30
0.0
 40
14.89948500334837
100
AcDbArc
 50
319.146392
 51
335.371436
  0
LINE
  5
F3150
330
F336E
100
AcDbEntity
  8
Level 40
  6
DGN Style 6
 62
     5
370
    13
100
AcDbLine
 10
-10703.614781
 20
31056.45385
 30
0.0
 11
-10703.098263
 21
31056.225391
 31
0.0
  0
ARC
  5
F3151
330
F336E
100
AcDbEntity
  8
Level 40
  6
DGN Style 6
 62
     5
370
    13
100
AcDbCircle
 10
-10702.440216
 20
31057.666699
 30
0.0
 40
1.589356961916567
100
AcDbArc
 50
245.371433
 51
12.135447
  0
LINE
  5
F3152
330
F336E
100
AcDbEntity
  8
Level 40
  6
DGN Style 6
 62
     5
370
    13
100
AcDbLine
 10
-10700.883207
 20
31058.003399
 30
0.0
 11
-10704.260424
 21
31073.677655
 31
0.0
  0
ARC
  5
F3153
330
F336E
100
AcDbEntity
  8
Level 40
  6
DGN Style 6
 62
     5
370
    13
100
AcDbCircle
 10
-10705.811341
 20
31073.344265
 30
0.0
 40
1.589356962913074
100
AcDbArc
 50
12.135447
 51
139.111378
  0
LINE
  5
F3154
330
F336E
100
AcDbEntity
  8
Level 40
  6
DGN Style 6
 62
     5
370
    13
100
AcDbLine
 10
-10707.011862
 20
31074.382898
 30
0.0
 11
-10707.409182
 21
31073.925981
 31
0.0
  0
ARC
  5
F3155
330
F336E
100
AcDbEntity
  8
Level 40
  6
DGN Style 6
 62
     5
370
    13
100
AcDbCircle
 10
-10717.159606
 20
31062.666228
 30
0.0
 40
14.89948499827943
100
AcDbArc
 50
49.111375
 51
65.124503
  0
LINE
  5
F3156
330
F336E
100
AcDbEntity
  8
Level 40
  6
DGN Style 6
 62
     5
370
    13
100
AcDbLine
 10
-10710.895662
 20
31076.18077
 30
0.0
 11
-10709.29645
 21
31079.617584
 31
0.0
  0
ARC
  5
F3157
330
F336E
100
AcDbEntity
  8
Level 40
  6
DGN Style 6
 62
     5
370
    13
100
AcDbCircle
 10
-10324.802994
 20
29280.658696
 30
0.0
 40
1809.790777990316
100
AcDbArc
 50
99.657581
 51
102.064294
  0
ARC
  5
F3158
330
F336E
100
AcDbEntity
  8
Level 40
  6
DGN Style 6
 62
     5
370
    13
100
AcDbCircle
 10
10292.749035
 20
29288.019722
 30
0.0
 40
1839.589748410751
210
0.0
220
0.0
230
-1.0
100
AcDbArc
 50
75.461484
 51
76.705836
  0
ARC
  5
F3161
330
F336E
100
AcDbEntity
  8
Level 40
  6
DGN Style 6
 62
     5
370
    13
100
AcDbCircle
 10
10529.509191
 20
31104.825218
 30
0.0
 40
1.589278506945956
210
0.0
220
0.0
230
-1.0
100
AcDbArc
 50
83.597108
 51
173.683906
  0
LINE
  5
F3162
330
F336E
100
AcDbEntity
  8
Level 40
  6
DGN Style 6
 62
     5
370
    13
100
AcDbLine
 10
-10527.929987
 20
31104.996372
 30
0.0
 11
-10525.526201
 21
31083.282856
 31
0.0
  0
ARC
  5
F3163
330
F336E
100
AcDbEntity
  8
Level 40
  6
DGN Style 6
 62
     5
370
    13
100
AcDbCircle
 10
10527.105115
 20
31083.105257
 30
0.0
 40
1.589278195725133
210
0.0
220
0.0
230
-1.0
100
AcDbArc
 50
173.683906
 51
263.596058
  0
ARC
  5
F3164
330
F336E
100
AcDbEntity
  8
Level 40
  6
DGN Style 6
 62
     5
370
    13
100
AcDbCircle
 10
10521.576405
 20
31083.717202
 30
0.0
 40
1.589277900797683
210
0.0
220
0.0
230
-1.0
100
AcDbArc
 50
263.771786
 51
353.683903
  0
LINE
  5
F3165
330
F336E
100
AcDbEntity
  8
Level 40
  6
DGN Style 6
 62
     5
370
    13
100
AcDbLine
 10
-10523.152217
 20
31083.541114
 30
0.0
 11
-10525.556
 21
31105.264563
 31
0.0
  0
ARC
  5
F3166
330
F336E
100
AcDbEntity
  8
Level 40
  6
DGN Style 6
 62
     5
370
    13
100
AcDbCircle
 10
10523.98048
 20
31105.437164
 30
0.0
 40
1.589278293221674
210
0.0
220
0.0
230
-1.0
100
AcDbArc
 50
353.683942
 51
83.770731
  0
ARC
  5
F32D6
330
F336E
100
AcDbEntity
  8
Level 40
  6
DGN Style 6
 62
     5
370
    13
100
AcDbCircle
 10
-10359.563152
 20
29280.658696
 30
0.0
 40
1837.205830847549
100
AcDbArc
 50
79.001337
 51
80.712089
  0
ARC
  5
F32D7
330
F336E
100
AcDbEntity
  8
Level 40
  6
DGN Style 6
 62
     5
370
    13
100
AcDbCircle
 10
-10063.30272
 20
31092.209932
 30
0.0
 40
1.589278896488678
100
AcDbArc
 50
80.712083
 51
170.798919
  0
LINE
  5
F32D8
330
F336E
100
AcDbEntity
  8
Level 40
  6
DGN Style 6
 62
     5
370
    13
100
AcDbLine
 10
-10064.87386
 20
31092.46094
 30
0.0
 11
-10068.370271
 21
31070.896418
 31
0.0
  0
ARC
  5
F32D9
330
F336E
100
AcDbEntity
  8
Level 40
  6
DGN Style 6
 62
     5
370
    13
100
AcDbCircle
 10
-10066.796954
 20
31070.638503
 30
0.0
 40
1.589278507392843
100
AcDbArc
 50
170.798883
 51
260.711047
  0
ARC
  5
F32DA
330
F336E
100
AcDbEntity
  8
Level 40
  6
DGN Style 6
 62
     5
370
    13
100
AcDbCircle
 10
10359.563152
 20
29280.658696
 30
0.0
 40
1812.174695874551
210
0.0
220
0.0
230
-1.0
100
AcDbArc
 50
99.288958
 51
100.997194
  0
ARC
  5
F32DB
330
F336E
100
AcDbEntity
  8
Level 40
  6
DGN Style 6
 62
     5
370
    13
100
AcDbCircle
 10
10359.563152
 20
29280.658696
 30
0.0
 40
1812.174696305632
210
0.0
220
0.0
230
-1.0
100
AcDbArc
 50
96.403936
 51
99.113242
  0
ARC
  5
F32DC
330
F336E
100
AcDbEntity
  8
Level 40
  6
DGN Style 6
 62
     5
370
    13
100
AcDbCircle
 10
-10072.287857
 20
31071.527942
 30
0.0
 40
1.58927825779836
100
AcDbArc
 50
260.886764
 51
350.798883
  0
LINE
  5
F32DD
330
F336E
100
AcDbEntity
  8
Level 40
  6
DGN Style 6
 62
     5
370
    13
100
AcDbLine
 10
-10070.714457
 20
31071.273873
 30
0.0
 11
-10067.227979
 21
31092.848326
 31
0.0
  0
ARC
  5
F32DE
330
F336E
100
AcDbEntity
  8
Level 40
  6
DGN Style 6
 62
     5
370
    13
100
AcDbCircle
 10
-10068.793624
 20
31093.099373
 30
0.0
 40
1.589278654968899
100
AcDbArc
 50
350.798886
 51
80.893886
  0
ARC
  5
F32DF
330
F336E
100
AcDbEntity
  8
Level 40
  6
DGN Style 6
 62
     5
370
    13
100
AcDbCircle
 10
-10359.563152
 20
29280.658696
 30
0.0
 40
1837.205830540279
100
AcDbArc
 50
80.885719
 51
83.597111
  0
ARC
  5
F32E0
330
F336E
100
AcDbEntity
  8
Level 40
  6
DGN Style 6
 62
     5
370
    13
100
AcDbCircle
 10
10359.563152
 20
29280.658696
 30
0.0
 40
1812.174695486763
210
0.0
220
0.0
230
-1.0
100
AcDbArc
 50
93.518914
 51
96.228219
  0
ARC
  5
F32E1
330
F336E
100
AcDbEntity
  8
Level 40
  6
DGN Style 6
 62
     5
370
    13
100
AcDbCircle
 10
-10359.563152
 20
29280.658696
 30
0.0
 40
1837.205829901889
100
AcDbArc
 50
83.770733
 51
86.482131
  0
ARC
  5
F32E2
330
F336E
100
AcDbEntity
  8
Level 40
  6
DGN Style 6
 62
     5
370
    13
100
AcDbCircle
 10
-10246.930102
 20
31112.816419
 30
0.0
 40
1.589278654180301
100
AcDbArc
 50
86.482125
 51
176.568961
  0
LINE
  5
F32E3
330
F336E
100
AcDbEntity
  8
Level 40
  6
DGN Style 6
 62
     5
370
    13
100
AcDbLine
 10
-10248.514978
 20
31112.912965
 30
0.0
 11
-10249.826134
 21
31091.10012
 31
0.0
  0
ARC
  5
F32E4
330
F336E
100
AcDbEntity
  8
Level 40
  6
DGN Style 6
 62
     5
370
    13
100
AcDbCircle
 10
-10248.237924
 20
31091.002985
 30
0.0
 40
1.589278257356666
100
AcDbArc
 50
176.568964
 51
266.481083
  0
ARC
  5
F32E5
330
F336E
100
AcDbEntity
  8
Level 40
  6
DGN Style 6
 62
     5
370
    13
100
AcDbCircle
 10
10359.563152
 20
29280.658696
 30
0.0
 40
1812.174696058674
210
0.0
220
0.0
230
-1.0
100
AcDbArc
 50
91.624122
 51
93.343197
  0
ARC
  5
F32E6
330
F336E
100
AcDbEntity
  8
Level 40
  6
DGN Style 6
 62
     5
370
    13
100
AcDbCircle
 10
-10253.790428
 20
31091.335886
 30
0.0
 40
1.589278507500667
100
AcDbArc
 50
266.6568
 51
356.568964
  0
LINE
  5
F32E7
330
F336E
100
AcDbEntity
  8
Level 40
  6
DGN Style 6
 62
     5
370
    13
100
AcDbLine
 10
-10252.200118
 20
31091.239182
 30
0.0
 11
-10250.898895
 21
31113.052028
 31
0.0
  0
ARC
  5
F32E8
330
F336E
100
AcDbEntity
  8
Level 40
  6
DGN Style 6
 62
     5
370
    13
100
AcDbCircle
 10
-10252.482606
 20
31113.149318
 30
0.0
 40
1.589278897473056
100
AcDbArc
 50
356.568928
 51
86.655764
  0
ARC
  5
F32E9
330
F336E
100
AcDbEntity
  8
Level 40
  6
DGN Style 6
 62
     5
370
    13
100
AcDbCircle
 10
-10359.563152
 20
29280.658696
 30
0.0
 40
1837.205830059559
100
AcDbArc
 50
86.655756
 51
88.377908
  0
ARC
  5
F32EA
330
F336E
100
AcDbEntity
  8
Level 40
  6
DGN Style 6
 62
     5
370
    13
100
AcDbCircle
 10
-10307.838488
 20
31107.199304
 30
0.0
 40
9.932990095134393
100
AcDbArc
 50
88.377908
 51
102.523297
  0
ARC
  5
F32EB
330
F336E
100
AcDbEntity
  8
Level 40
  6
DGN Style 6
 62
     5
370
    13
100
AcDbCircle
 10
10312.146159
 20
31126.592631
 30
0.0
 40
9.932990317043856
210
0.0
220
0.0
230
-1.0
100
AcDbArc
 50
257.476703
 51
271.471447
  0
ARC
  5
F32EC
330
F336E
100
AcDbEntity
  8
Level 40
  6
DGN Style 6
 62
     5
370
    13
100
AcDbCircle
 10
-10359.563151
 20
29280.658696
 30
0.0
 40
1836.609850901629
100
AcDbArc
 50
88.528553
 51
89.216358
  0
ARC
  5
F32ED
330
F336E
100
AcDbEntity
  8
Level 40
  6
DGN Style 6
 62
     5
370
    13
100
AcDbCircle
 10
-10334.485126
 20
31114.11715
 30
0.0
 40
2.979896697590161
100
AcDbArc
 50
89.216358
 51
126.131131
  0
LINE
  5
F32EE
330
F336E
100
AcDbEntity
  8
Level 40
  6
DGN Style 6
 62
     5
370
    13
100
AcDbLine
 10
-10336.243147
 20
31116.51864
 30
0.0
 11
-10338.646929
 21
31114.770435
 31
0.0
  0
ARC
  5
F32EF
330
F336E
100
AcDbEntity
  8
Level 40
  6
DGN Style 6
 62
     5
370
    13
100
AcDbCircle
 10
-10337.713291
 20
31113.48221
 30
0.0
 40
1.58927840040456
100
AcDbArc
 50
126.131128
 51
179.503281
  0
LINE
  5
F32F0
330
F336E
100
AcDbEntity
  8
Level 40
  6
DGN Style 6
 62
     5
370
    13
100
AcDbLine
 10
-10339.302506
 20
31113.499014
 30
0.0
 11
-10339.441569
 21
31096.910921
 31
0.0
  0
ARC
  5
F32F1
330
F336E
100
AcDbEntity
  8
Level 40
  6
DGN Style 6
 62
     5
370
    13
100
AcDbCircle
 10
-10337.857114
 20
31096.89291
 30
0.0
 40
1.58927840012669
100
AcDbArc
 50
179.503281
 51
233.657181
  0
LINE
  5
F32F2
330
F336E
100
AcDbEntity
  8
Level 40
  6
DGN Style 6
 62
     5
370
    13
100
AcDbLine
 10
-10338.795926
 20
31095.609698
 30
0.0
 11
-10336.382206
 21
31093.841625
 31
0.0
  0
ARC
  5
F32F3
330
F336E
100
AcDbEntity
  8
Level 40
  6
DGN Style 6
 62
     5
370
    13
100
AcDbCircle
 10
-10334.620297
 20
31096.237941
 30
0.0
 40
2.979896700043219
100
AcDbArc
 50
233.657183
 51
269.212908
  0
ARC
  5
F32F4
330
F336E
100
AcDbEntity
  8
Level 40
  6
DGN Style 6
 62
     5
370
    13
100
AcDbCircle
 10
10359.563151
 20
29280.658696
 30
0.0
 40
1812.770675337411
210
0.0
220
0.0
230
-1.0
100
AcDbArc
 50
90.787094
 51
91.47145
  0
ARC
  5
F32F5
330
F336E
100
AcDbEntity
  8
Level 40
  6
DGN Style 6
 62
     5
370
    13
100
AcDbCircle
 10
10313.268455
 20
31082.901887
 30
0.0
 40
9.93299031768355
210
0.0
220
0.0
230
-1.0
100
AcDbArc
 50
91.471447
 51
105.617964
  0
ARC
  5
F32F6
330
F336E
100
AcDbEntity
  8
Level 40
  6
DGN Style 6
 62
     5
370
    13
100
AcDbCircle
 10
-10307.920101
 20
31102.034384
 30
0.0
 40
9.932994221593178
100
AcDbArc
 50
254.382047
 51
268.375872
  0
ARC
  5
F32F7
330
F336E
100
AcDbEntity
  8
Level 40
  6
DGN Style 6
 62
     5
370
    13
100
AcDbCircle
 10
10343.291705
 20
31111.667826
 30
0.0
 40
1.589278399679105
210
0.0
220
0.0
230
-1.0
100
AcDbArc
 50
134.087778
 51
180.496719
  0
LINE
  5
F32F8
330
F336E
100
AcDbEntity
  8
Level 40
  6
DGN Style 6
 62
     5
370
    13
100
AcDbLine
 10
-10341.706292
 20
31111.651475
 30
0.0
 11
-10341.815552
 21
31098.788255
 31
0.0
  0
ARC
  5
F32F9
330
F336E
100
AcDbEntity
  8
Level 40
  6
DGN Style 6
 62
     5
370
    13
100
AcDbCircle
 10
10343.403215
 20
31098.805586
 30
0.0
 40
1.589278400123005
210
0.0
220
0.0
230
-1.0
100
AcDbArc
 50
180.496719
 51
219.842054
  0
ARC
  5
F32FA
330
F336E
100
AcDbEntity
  8
Level 40
  6
DGN Style 6
 62
     5
370
    13
100
AcDbCircle
 10
-10331.626972
 20
31105.135094
 30
0.0
 40
14.90021307350201
100
AcDbArc
 50
224.890809
 51
233.657183
  0
LINE
  5
F32FB
330
F336E
100
AcDbEntity
  8
Level 40
  6
DGN Style 6
 62
     5
370
    13
100
AcDbLine
 10
-10340.454732
 20
31093.136384
 30
0.0
 11
-10336.610668
 21
31090.305481
 31
0.0
  0
ARC
  5
F32FC
330
F336E
100
AcDbEntity
  8
Level 40
  6
DGN Style 6
 62
     5
370
    13
100
AcDbCircle
 10
10359.563152
 20
29280.658696
 30
0.0
 40
1809.790778024604
210
0.0
220
0.0
230
-1.0
100
AcDbArc
 50
90.726639
 51
92.974572
  0
ARC
  5
F32FD
330
F336E
100
AcDbEntity
  8
Level 40
  6
DGN Style 6
 62
     5
370
    13
100
AcDbCircle
 10
10265.75118
 20
31086.027154
 30
0.0
 40
1.986597502499312
210
0.0
220
0.0
230
-1.0
100
AcDbArc
 50
92.974575
 51
183.431039
  0
LINE
  5
F32FE
330
F336E
100
AcDbEntity
  8
Level 40
  6
DGN Style 6
 62
     5
370
    13
100
AcDbLine
 10
-10263.77205
 20
31085.905167
 30
0.0
 11
-10264.179303
 21
31079.021605
 31
0.0
  0
ARC
  5
F32FF
330
F336E
100
AcDbEntity
  8
Level 40
  6
DGN Style 6
 62
     5
370
    13
100
AcDbCircle
 10
10266.16266
 20
31079.142858
 30
0.0
 40
1.985332963492929
210
0.0
220
0.0
230
-1.0
100
AcDbArc
 50
183.431056
 51
273.431056
  0
LINE
  5
F3300
330
F336E
100
AcDbEntity
  8
Level 40
  6
DGN Style 6
 62
     5
370
    13
100
AcDbLine
 10
-10266.285099
 20
31077.164135
 30
0.0
 11
-10270.248361
 21
31077.402528
 31
0.0
  0
LINE
  5
F3301
330
F336E
100
AcDbEntity
  8
Level 40
  6
DGN Style 6
 62
     5
370
    13
100
AcDbLine
 10
-10270.248361
 20
31077.402528
 30
0.0
 11
-10270.158965
 21
31078.882542
 31
0.0
  0
LINE
  5
F3302
330
F336E
100
AcDbEntity
  8
Level 40
  6
DGN Style 6
 62
     5
370
    13
100
AcDbLine
 10
-10270.158965
 20
31078.882542
 30
0.0
 11
-10274.211623
 21
31077.64092
 31
0.0
  0
LINE
  5
F3303
330
F336E
100
AcDbEntity
  8
Level 40
  6
DGN Style 6
 62
     5
370
    13
100
AcDbLine
 10
-10274.211623
 20
31077.64092
 30
0.0
 11
-10274.390418
 21
31074.661023
 31
0.0
  0
LINE
  5
F3304
330
F336E
100
AcDbEntity
  8
Level 40
  6
DGN Style 6
 62
     5
370
    13
100
AcDbLine
 10
-10274.390418
 20
31074.661023
 30
0.0
 11
-10257.534134
 21
31073.647856
 31
0.0
  0
LINE
  5
F3305
330
F336E
100
AcDbEntity
  8
Level 40
  6
DGN Style 6
 62
     5
370
    13
100
AcDbLine
 10
-10257.534134
 20
31073.647856
 30
0.0
 11
-10257.355339
 21
31076.627753
 31
0.0
  0
LINE
  5
F3306
330
F336E
100
AcDbEntity
  8
Level 40
  6
DGN Style 6
 62
     5
370
    13
100
AcDbLine
 10
-10257.355339
 20
31076.627753
 30
0.0
 11
-10260.335236
 21
31076.806548
 31
0.0
  0
ARC
  5
F3307
330
F336E
100
AcDbEntity
  8
Level 40
  6
DGN Style 6
 62
     5
370
    13
100
AcDbCircle
 10
10260.274206
 20
31077.795599
 30
0.0
 40
0.9932989998087132
210
0.0
220
0.0
230
-1.0
100
AcDbArc
 50
273.431056
 51
3.431056
  0
LINE
  5
F3308
330
F336E
100
AcDbEntity
  8
Level 40
  6
DGN Style 6
 62
     5
370
    13
100
AcDbLine
 10
-10261.268937
 20
31077.859445
 30
0.0
 11
-10260.792153
 21
31085.776038
 31
0.0
  0
ARC
  5
F3309
330
F336E
100
AcDbEntity
  8
Level 40
  6
DGN Style 6
 62
     5
370
    13
100
AcDbCircle
 10
10258.808035
 20
31085.652978
 30
0.0
 40
1.986598497214505
210
0.0
220
0.0
230
-1.0
100
AcDbArc
 50
3.431042
 51
93.19495
  0
ARC
  5
F330A
330
F336E
100
AcDbEntity
  8
Level 40
  6
DGN Style 6
 62
     5
370
    13
100
AcDbCircle
 10
10359.563153
 20
29280.658696
 30
0.0
 40
1809.790777623781
210
0.0
220
0.0
230
-1.0
100
AcDbArc
 50
93.194944
 51
93.667164
  0
ARC
  5
F330B
330
F336E
100
AcDbEntity
  8
Level 40
  6
DGN Style 6
 62
     5
370
    13
100
AcDbCircle
 10
10243.935257
 20
31084.761283
 30
0.0
 40
1.986597504285126
210
0.0
220
0.0
230
-1.0
100
AcDbArc
 50
93.667169
 51
183.431042
  0
LINE
  5
F330C
330
F336E
100
AcDbEntity
  8
Level 40
  6
DGN Style 6
 62
     5
370
    13
100
AcDbLine
 10
-10241.949273
 20
31084.643676
 30
0.0
 11
-10242.426055
 21
31076.727083
 31
0.0
  0
ARC
  5
F330D
330
F336E
100
AcDbEntity
  8
Level 40
  6
DGN Style 6
 62
     5
370
    13
100
AcDbCircle
 10
10243.418391
 20
31076.78501
 30
0.0
 40
0.9932990002627708
210
0.0
220
0.0
230
-1.0
100
AcDbArc
 50
183.431056
 51
273.431056
  0
LINE
  5
F330E
330
F336E
100
AcDbEntity
  8
Level 40
  6
DGN Style 6
 62
     5
370
    13
100
AcDbLine
 10
-10243.478951
 20
31075.793381
 30
0.0
 11
-10246.448917
 21
31075.972177
 31
0.0
  0
LINE
  5
F330F
330
F336E
100
AcDbEntity
  8
Level 40
  6
DGN Style 6
 62
     5
370
    13
100
AcDbLine
 10
-10246.448917
 20
31075.972177
 30
0.0
 11
-10246.627709
 21
31072.99228
 31
0.0
  0
LINE
  5
F3310
330
F336E
100
AcDbEntity
  8
Level 40
  6
DGN Style 6
 62
     5
370
    13
100
AcDbLine
 10
-10246.627709
 20
31072.99228
 30
0.0
 11
-10229.771425
 21
31071.989047
 31
0.0
  0
LINE
  5
F3311
330
F336E
100
AcDbEntity
  8
Level 40
  6
DGN Style 6
 62
     5
370
    13
100
AcDbLine
 10
-10229.771425
 20
31071.989047
 30
0.0
 11
-10229.602564
 21
31074.959013
 31
0.0
  0
LINE
  5
F3312
330
F336E
100
AcDbEntity
  8
Level 40
  6
DGN Style 6
 62
     5
370
    13
100
AcDbLine
 10
-10229.602564
 20
31074.959013
 30
0.0
 11
-10233.47643
 21
31076.687351
 31
0.0
  0
LINE
  5
F3313
330
F336E
100
AcDbEntity
  8
Level 40
  6
DGN Style 6
 62
     5
370
    13
100
AcDbLine
 10
-10233.47643
 20
31076.687351
 30
0.0
 11
-10233.565829
 21
31075.197402
 31
0.0
  0
LINE
  5
F3314
330
F336E
100
AcDbEntity
  8
Level 40
  6
DGN Style 6
 62
     5
370
    13
100
AcDbLine
 10
-10233.565829
 20
31075.197402
 30
0.0
 11
-10237.529091
 21
31075.435794
 31
0.0
  0
ARC
  5
F3315
330
F336E
100
AcDbEntity
  8
Level 40
  6
DGN Style 6
 62
     5
370
    13
100
AcDbCircle
 10
10237.411148
 20
31077.419064
 30
0.0
 40
1.985332962584286
210
0.0
220
0.0
230
-1.0
100
AcDbArc
 50
273.431056
 51
3.431056
  0
LINE
  5
F3316
330
F336E
100
AcDbEntity
  8
Level 40
  6
DGN Style 6
 62
     5
370
    13
100
AcDbLine
 10
-10239.396495
 20
31077.54159
 30
0.0
 11
-10238.979307
 21
31084.425152
 31
0.0
  0
ARC
  5
F3317
330
F336E
100
AcDbEntity
  8
Level 40
  6
DGN Style 6
 62
     5
370
    13
100
AcDbCircle
 10
10236.997138
 20
31084.303214
 30
0.0
 40
1.986592192048806
210
0.0
220
0.0
230
-1.0
100
AcDbArc
 50
3.431222
 51
93.887644
  0
ARC
  5
F3318
330
F336E
100
AcDbEntity
  8
Level 40
  6
DGN Style 6
 62
     5
370
    13
100
AcDbCircle
 10
10359.563152
 20
29280.658696
 30
0.0
 40
1809.790778206117
210
0.0
220
0.0
230
-1.0
100
AcDbArc
 50
93.887536
 51
98.744617
  0
ARC
  5
F3319
330
F336E
100
AcDbEntity
  8
Level 40
  6
DGN Style 6
 62
     5
370
    13
100
AcDbCircle
 10
10084.72173
 20
31067.448602
 30
0.0
 40
1.986592192322981
210
0.0
220
0.0
230
-1.0
100
AcDbArc
 50
98.744508
 51
189.200931
  0
LINE
  5
F331A
330
F336E
100
AcDbEntity
  8
Level 40
  6
DGN Style 6
 62
     5
370
    13
100
AcDbLine
 10
-10082.763173
 20
31067.131815
 30
0.0
 11
-10083.865736
 21
31060.317785
 31
0.0
  0
ARC
  5
F331B
330
F336E
100
AcDbEntity
  8
Level 40
  6
DGN Style 6
 62
     5
370
    13
100
AcDbCircle
 10
10085.823243
 20
31060.640548
 30
0.0
 40
1.985332962862879
210
0.0
220
0.0
230
-1.0
100
AcDbArc
 50
189.2011
 51
279.2011
  0
LINE
  5
F331C
330
F336E
100
AcDbEntity
  8
Level 40
  6
DGN Style 6
 62
     5
370
    13
100
AcDbLine
 10
-10086.14039
 20
31058.67884
 30
0.0
 11
-10090.063922
 21
31059.314552
 31
0.0
  0
LINE
  5
F331D
330
F336E
100
AcDbEntity
  8
Level 40
  6
DGN Style 6
 62
     5
370
    13
100
AcDbLine
 10
-10090.063922
 20
31059.314552
 30
0.0
 11
-10089.82553
 21
31060.784636
 31
0.0
  0
LINE
  5
F331E
330
F336E
100
AcDbEntity
  8
Level 40
  6
DGN Style 6
 62
     5
370
    13
100
AcDbLine
 10
-10089.82553
 20
31060.784636
 30
0.0
 11
-10093.987452
 21
31059.950264
 31
0.0
  0
LINE
  5
F331F
330
F336E
100
AcDbEntity
  8
Level 40
  6
DGN Style 6
 62
     5
370
    13
100
AcDbLine
 10
-10093.987452
 20
31059.950264
 30
0.0
 11
-10094.464237
 21
31057.0101
 31
0.0
  0
LINE
  5
F3320
330
F336E
100
AcDbEntity
  8
Level 40
  6
DGN Style 6
 62
     5
370
    13
100
AcDbLine
 10
-10094.464237
 20
31057.0101
 30
0.0
 11
-10077.796678
 21
31054.308324
 31
0.0
  0
LINE
  5
F3321
330
F336E
100
AcDbEntity
  8
Level 40
  6
DGN Style 6
 62
     5
370
    13
100
AcDbLine
 10
-10077.796678
 20
31054.308324
 30
0.0
 11
-10077.319896
 21
31057.248489
 31
0.0
  0
LINE
  5
F3322
330
F336E
100
AcDbEntity
  8
Level 40
  6
DGN Style 6
 62
     5
370
    13
100
AcDbLine
 10
-10077.319896
 20
31057.248489
 30
0.0
 11
-10080.260061
 21
31057.725274
 31
0.0
  0
ARC
  5
F3323
330
F336E
100
AcDbEntity
  8
Level 40
  6
DGN Style 6
 62
     5
370
    13
100
AcDbCircle
 10
10080.100072
 20
31058.708113
 30
0.0
 40
0.9932990004165635
210
0.0
220
0.0
230
-1.0
100
AcDbArc
 50
279.2011
 51
9.2011
  0
LINE
  5
F3324
330
F336E
100
AcDbEntity
  8
Level 40
  6
DGN Style 6
 62
     5
370
    13
100
AcDbLine
 10
-10081.084499
 20
31058.867569
 30
0.0
 11
-10079.813075
 21
31066.694763
 31
0.0
  0
ARC
  5
F3325
330
F336E
100
AcDbEntity
  8
Level 40
  6
DGN Style 6
 62
     5
370
    13
100
AcDbCircle
 10
10077.851379
 20
31066.37828
 30
0.0
 40
1.986597504705911
210
0.0
220
0.0
230
-1.0
100
AcDbArc
 50
9.201114
 51
98.964986
  0
ARC
  5
F3326
330
F336E
100
AcDbEntity
  8
Level 40
  6
DGN Style 6
 62
     5
370
    13
100
AcDbCircle
 10
10359.563151
 20
29280.658696
 30
0.0
 40
1809.790777282022
210
0.0
220
0.0
230
-1.0
100
AcDbArc
 50
98.964989
 51
99.437208
  0
ARC
  5
F3327
330
F336E
100
AcDbEntity
  8
Level 40
  6
DGN Style 6
 62
     5
370
    13
100
AcDbCircle
 10
10063.143603
 20
31063.995849
 30
0.0
 40
1.986598496212672
210
0.0
220
0.0
230
-1.0
100
AcDbArc
 50
99.437206
 51
189.201114
  0
LINE
  5
F3328
330
F336E
100
AcDbEntity
  8
Level 40
  6
DGN Style 6
 62
     5
370
    13
100
AcDbLine
 10
-10061.178786
 20
31063.675134
 30
0.0
 11
-10062.45021
 21
31055.847939
 31
0.0
  0
ARC
  5
F3329
330
F336E
100
AcDbEntity
  8
Level 40
  6
DGN Style 6
 62
     5
370
    13
100
AcDbCircle
 10
10063.431259
 20
31056.008026
 30
0.0
 40
0.9932989999466899
210
0.0
220
0.0
230
-1.0
100
AcDbArc
 50
189.2011
 51
279.2011
  0
LINE
  5
F332A
330
F336E
100
AcDbEntity
  8
Level 40
  6
DGN Style 6
 62
     5
370
    13
100
AcDbLine
 10
-10063.592502
 20
31055.023502
 30
0.0
 11
-10066.53267
 21
31055.500283
 31
0.0
  0
LINE
  5
F332B
330
F336E
100
AcDbEntity
  8
Level 40
  6
DGN Style 6
 62
     5
370
    13
100
AcDbLine
 10
-10066.53267
 20
31055.500283
 30
0.0
 11
-10067.009452
 21
31052.560119
 31
0.0
  0
LINE
  5
F332C
330
F336E
100
AcDbEntity
  8
Level 40
  6
DGN Style 6
 62
     5
370
    13
100
AcDbLine
 10
-10067.009452
 20
31052.560119
 30
0.0
 11
-10050.341896
 21
31049.858347
 31
0.0
  0
LINE
  5
F332D
330
F336E
100
AcDbEntity
  8
Level 40
  6
DGN Style 6
 62
     5
370
    13
100
AcDbLine
 10
-10050.341896
 20
31049.858347
 30
0.0
 11
-10049.865111
 21
31052.808445
 31
0.0
  0
LINE
  5
F332E
330
F336E
100
AcDbEntity
  8
Level 40
  6
DGN Style 6
 62
     5
370
    13
100
AcDbLine
 10
-10049.865111
 20
31052.808445
 30
0.0
 11
-10053.550252
 21
31054.914238
 31
0.0
  0
LINE
  5
F332F
330
F336E
100
AcDbEntity
  8
Level 40
  6
DGN Style 6
 62
     5
370
    13
100
AcDbLine
 10
-10053.550252
 20
31054.914238
 30
0.0
 11
-10053.788641
 21
31053.444154
 31
0.0
  0
LINE
  5
F3330
330
F336E
100
AcDbEntity
  8
Level 40
  6
DGN Style 6
 62
     5
370
    13
100
AcDbLine
 10
-10053.788641
 20
31053.444154
 30
0.0
 11
-10057.712174
 21
31054.079866
 31
0.0
  0
ARC
  5
F3331
330
F336E
100
AcDbEntity
  8
Level 40
  6
DGN Style 6
 62
     5
370
    13
100
AcDbCircle
 10
10057.390706
 20
31056.034922
 30
0.0
 40
1.985332963800563
210
0.0
220
0.0
230
-1.0
100
AcDbArc
 50
279.2011
 51
9.2011
  0
LINE
  5
F3332
330
F336E
100
AcDbEntity
  8
Level 40
  6
DGN Style 6
 62
     5
370
    13
100
AcDbLine
 10
-10059.351115
 20
31056.35452
 30
0.0
 11
-10058.248556
 21
31063.158619
 31
0.0
  0
ARC
  5
F3333
330
F336E
100
AcDbEntity
  8
Level 40
  6
DGN Style 6
 62
     5
370
    13
100
AcDbCircle
 10
10056.286693
 20
31062.842566
 30
0.0
 40
1.986597503457721
210
0.0
220
0.0
230
-1.0
100
AcDbArc
 50
9.201114
 51
99.657578
  0
ARC
  5
F3334
330
F336E
100
AcDbEntity
  8
Level 40
  6
DGN Style 6
 62
     5
370
    13
100
AcDbCircle
 10
10359.563152
 20
29280.658696
 30
0.0
 40
1809.790777990316
210
0.0
220
0.0
230
-1.0
100
AcDbArc
 50
99.657581
 51
100.128378
  0
ARC
  5
F3335
330
F336E
100
AcDbEntity
  8
Level 40
  6
DGN Style 6
 62
     5
370
    13
100
AcDbCircle
 10
-10359.563152
 20
29280.658696
 30
0.0
 40
1839.589748512679
100
AcDbArc
 50
77.935629
 51
89.278392
  0
LINE
  5
F3336
330
F336E
100
AcDbEntity
  8
Level 40
  6
DGN Style 6
 62
     5
370
    13
100
AcDbLine
 10
-10336.39214
 20
31120.104451
 30
0.0
 11
-10340.415003
 21
31117.17422
 31
0.0
  0
ARC
  5
F3337
330
F336E
100
AcDbEntity
  8
Level 40
  6
DGN Style 6
 62
     5
370
    13
100
AcDbCircle
 10
-10331.626972
 20
31105.135094
 30
0.0
 40
14.90021308116823
100
AcDbArc
 50
126.131128
 51
135.10648
  0
LINE
  5
F3338
330
F336E
100
AcDbEntity
  8
Level 40
  6
DGN Style 6
 62
     5
370
    13
100
AcDbLine
 10
-9968.603319
 20
31078.316362
 30
0.0
 11
-9973.162564
 21
31076.329764
 31
0.0
  0
ARC
  5
F3339
330
F336E
100
AcDbEntity
  8
Level 40
  6
DGN Style 6
 62
     5
370
    13
100
AcDbCircle
 10
-9967.20654
 20
31062.666228
 30
0.0
 40
14.90021307889421
100
AcDbArc
 50
113.558575
 51
130.180389
  0
ARC
  5
F333A
330
F336E
100
AcDbEntity
  8
Level 40
  6
DGN Style 6
 62
     5
370
    13
100
AcDbCircle
 10
-9976.627839
 20
31073.822574
 30
0.0
 40
0.2979901961432299
100
AcDbArc
 50
130.180433
 51
221.349806
  0
LINE
  5
F333B
330
F336E
100
AcDbEntity
  8
Level 40
  6
DGN Style 6
 62
     5
370
    13
100
AcDbLine
 10
-9976.847701
 20
31073.627991
 30
0.0
 11
-9975.9736
 21
31072.634692
 31
0.0
  0
ARC
  5
F333C
330
F336E
100
AcDbEntity
  8
Level 40
  6
DGN Style 6
 62
     5
370
    13
100
AcDbCircle
 10
9977.169548
 20
31071.581442
 30
0.0
 40
1.589278400601577
210
0.0
220
0.0
230
-1.0
100
AcDbArc
 50
138.650292
 51
193.069275
  0
LINE
  5
F333D
330
F336E
100
AcDbEntity
  8
Level 40
  6
DGN Style 6
 62
     5
370
    13
100
AcDbLine
 10
-9975.61601
 20
31071.224206
 30
0.0
 11
-9978.526378
 21
31058.688774
 31
0.0
  0
ARC
  5
F333E
330
F336E
100
AcDbEntity
  8
Level 40
  6
DGN Style 6
 62
     5
370
    13
100
AcDbCircle
 10
9980.078183
 20
31059.051897
 30
0.0
 40
1.589278400587767
210
0.0
220
0.0
230
-1.0
100
AcDbArc
 50
193.069275
 51
247.488258
  0
LINE
  5
F333F
330
F336E
100
AcDbEntity
  8
Level 40
  6
DGN Style 6
 62
     5
370
    13
100
AcDbLine
 10
-9979.470011
 20
31057.586211
 30
0.0
 11
-9980.691768
 21
31057.079631
 31
0.0
  0
ARC
  5
F3340
330
F336E
100
AcDbEntity
  8
Level 40
  6
DGN Style 6
 62
     5
370
    13
100
AcDbCircle
 10
-9980.579189
 20
31056.801316
 30
0.0
 40
0.297989599601622
100
AcDbArc
 50
112.511836
 51
203.681047
  0
ARC
  5
F3341
330
F336E
100
AcDbEntity
  8
Level 40
  6
DGN Style 6
 62
     5
370
    13
100
AcDbCircle
 10
-9967.20654
 20
31062.666228
 30
0.0
 40
14.90021308194103
100
AcDbArc
 50
203.681067
 51
221.084628
  0
LINE
  5
F3342
330
F336E
100
AcDbEntity
  8
Level 40
  6
DGN Style 6
 62
     5
370
    13
100
AcDbLine
 10
-9978.436979
 20
31052.877973
 30
0.0
 11
-9975.298155
 21
31049.272298
 31
0.0
  0
ARC
  5
F3343
330
F336E
100
AcDbEntity
  8
Level 40
  6
DGN Style 6
 62
     5
370
    13
100
AcDbCircle
 10
10391.617111
 20
29288.019722
 30
0.0
 40
1809.790778251554
210
0.0
220
0.0
230
-1.0
100
AcDbArc
 50
103.299194
 51
104.558571
  0
ARC
  5
F3344
330
F336E
100
AcDbEntity
  8
Level 40
  6
DGN Style 6
 62
     5
370
    13
100
AcDbCircle
 10
10359.563153
 20
29280.658696
 30
0.0
 40
1812.770675124725
210
0.0
220
0.0
230
-1.0
100
AcDbArc
 50
101.160706
 51
101.821769
  0
ARC
  5
F3345
330
F336E
100
AcDbEntity
  8
Level 40
  6
DGN Style 6
 62
     5
370
    13
100
AcDbCircle
 10
-9987.858896
 20
31056.535378
 30
0.0
 40
1.589278479518759
100
AcDbArc
 50
258.178225
 51
347.864569
  0
LINE
  5
F3346
330
F336E
100
AcDbEntity
  8
Level 40
  6
DGN Style 6
 62
     5
370
    13
100
AcDbLine
 10
-9986.303909
 20
31056.205526
 30
0.0
 11
-9981.963192
 21
31076.399295
 31
0.0
  0
ARC
  5
F3347
330
F336E
100
AcDbEntity
  8
Level 40
  6
DGN Style 6
 62
     5
370
    13
100
AcDbCircle
 10
-9983.515485
 20
31076.7346
 30
0.0
 40
1.589278892043412
100
AcDbArc
 50
347.864536
 51
78.1747
  0
ARC
  5
F3348
330
F336E
100
AcDbEntity
  8
Level 40
  6
DGN Style 6
 62
     5
370
    13
100
AcDbCircle
 10
-10359.563153
 20
29280.658696
 30
0.0
 40
1836.609850517683
100
AcDbArc
 50
78.174697
 51
78.839294
  0
ARC
  5
F3349
330
F336E
100
AcDbEntity
  8
Level 40
  6
DGN Style 6
 62
     5
370
    13
100
AcDbCircle
 10
10002.143442
 20
31092.279963
 30
0.0
 40
9.932990316689464
210
0.0
220
0.0
230
-1.0
100
AcDbArc
 50
281.160706
 51
295.15545
  0
ARC
  5
F334A
330
F336E
100
AcDbEntity
  8
Level 40
  6
DGN Style 6
 62
     5
370
    13
100
AcDbCircle
 10
-10010.587986
 20
31074.298116
 30
0.0
 40
9.932990096073263
100
AcDbArc
 50
64.844547
 51
78.989936
  0
ARC
  5
F334B
330
F336E
100
AcDbEntity
  8
Level 40
  6
DGN Style 6
 62
     5
370
    13
100
AcDbCircle
 10
-10011.63787
 20
31069.240369
 30
0.0
 40
9.932994221501665
100
AcDbArc
 50
258.991972
 51
272.985797
  0
ARC
  5
F334C
330
F336E
100
AcDbEntity
  8
Level 40
  6
DGN Style 6
 62
     5
370
    13
100
AcDbCircle
 10
10010.60308
 20
31049.401353
 30
0.0
 40
9.932990315504415
210
0.0
220
0.0
230
-1.0
100
AcDbArc
 50
87.014189
 51
101.160706
  0
ARC
  5
F334D
330
F336E
100
AcDbEntity
  8
Level 40
  6
DGN Style 6
 62
     5
370
    13
100
AcDbCircle
 10
10391.617111
 20
29288.019722
 30
0.0
 40
1812.174695001272
210
0.0
220
0.0
230
-1.0
100
AcDbArc
 50
104.196678
 51
104.621119
  0
ARC
  5
F334E
330
F336E
100
AcDbEntity
  8
Level 40
  6
DGN Style 6
 62
     5
370
    13
100
AcDbCircle
 10
-10391.617111
 20
29288.019722
 30
0.0
 40
1837.205830673761
100
AcDbArc
 50
75.439344
 51
75.805356
  0
ARC
  5
F334F
330
F336E
100
AcDbEntity
  8
Level 40
  6
DGN Style 6
 62
     5
370
    13
100
AcDbCircle
 10
-9943.539148
 20
31059.502765
 30
0.0
 40
9.932990093920446
100
AcDbArc
 50
75.805353
 51
89.950742
  0
ARC
  5
F3350
330
F336E
100
AcDbEntity
  8
Level 40
  6
DGN Style 6
 62
     5
370
    13
100
AcDbCircle
 10
9943.522069
 20
31079.368738
 30
0.0
 40
9.932990317911469
210
0.0
220
0.0
230
-1.0
100
AcDbArc
 50
270.049258
 51
284.044003
  0
ARC
  5
F3351
330
F336E
100
AcDbEntity
  8
Level 40
  6
DGN Style 6
 62
     5
370
    13
100
AcDbCircle
 10
-10391.61711
 20
29288.019722
 30
0.0
 40
1836.609850829088
100
AcDbArc
 50
75.955997
 51
76.643803
  0
ARC
  5
F3352
330
F336E
100
AcDbEntity
  8
Level 40
  6
DGN Style 6
 62
     5
370
    13
100
AcDbCircle
 10
-9968.040983
 20
31072.055056
 30
0.0
 40
2.979896697710882
100
AcDbArc
 50
76.643803
 51
113.558575
  0
LINE
  5
F3353
330
F336E
100
AcDbEntity
  8
Level 40
  6
DGN Style 6
 62
     5
370
    13
100
AcDbLine
 10
-9969.229097
 20
31074.790152
 30
0.0
 11
-9971.960671
 21
31073.598193
 31
0.0
  0
ARC
  5
F3354
330
F336E
100
AcDbEntity
  8
Level 40
  6
DGN Style 6
 62
     5
370
    13
100
AcDbCircle
 10
-9971.329951
 20
31072.138034
 30
0.0
 40
1.589278400160924
100
AcDbArc
 50
113.558575
 51
166.930728
  0
LINE
  5
F3355
330
F336E
100
AcDbEntity
  8
Level 40
  6
DGN Style 6
 62
     5
370
    13
100
AcDbLine
 10
-9972.874505
 20
31072.49563
 30
0.0
 11
-9976.629176
 21
31056.334655
 31
0.0
  0
ARC
  5
F3356
330
F336E
100
AcDbEntity
  8
Level 40
  6
DGN Style 6
 62
     5
370
    13
100
AcDbCircle
 10
-9975.081414
 20
31055.977834
 30
0.0
 40
1.589278400594298
100
AcDbArc
 50
166.930725
 51
221.084625
  0
LINE
  5
F3357
330
F336E
100
AcDbEntity
  8
Level 40
  6
DGN Style 6
 62
     5
370
    13
100
AcDbLine
 10
-9976.28152
 20
31054.934102
 30
0.0
 11
-9974.31479
 21
31052.679313
 31
0.0
  0
ARC
  5
F3358
330
F336E
100
AcDbEntity
  8
Level 40
  6
DGN Style 6
 62
     5
370
    13
100
AcDbCircle
 10
-9972.064783
 20
31054.633993
 30
0.0
 40
2.979896697820598
100
AcDbArc
 50
221.084628
 51
256.640353
  0
ARC
  5
F3359
330
F336E
100
AcDbEntity
  8
Level 40
  6
DGN Style 6
 62
     5
370
    13
100
AcDbCircle
 10
10391.61711
 20
29288.019722
 30
0.0
 40
1812.770674282626
210
0.0
220
0.0
230
-1.0
100
AcDbArc
 50
103.359647
 51
104.044003
  0
ARC
  5
F335A
330
F336E
100
AcDbEntity
  8
Level 40
  6
DGN Style 6
 62
     5
370
    13
100
AcDbCircle
 10
9954.127869
 20
31036.969944
 30
0.0
 40
9.93299031715645
210
0.0
220
0.0
230
-1.0
100
AcDbArc
 50
104.044003
 51
118.190519
  0
ARC
  5
F335B
330
F336E
100
AcDbEntity
  8
Level 40
  6
DGN Style 6
 62
     5
370
    13
100
AcDbCircle
 10
-9944.743082
 20
31054.479459
 30
0.0
 40
9.932994220344516
100
AcDbArc
 50
241.809492
 51
255.803317
  0
LINE
  5
F335C
330
F336E
100
AcDbEntity
  8
Level 40
  6
DGN Style 6
 62
     5
370
    13
100
AcDbLine
 10
-9981.297682
 20
31050.474191
 30
0.0
 11
-9978.476712
 21
31052.917706
 31
0.0
  0
ARC
  5
F335D
330
F336E
100
AcDbEntity
  8
Level 40
  6
DGN Style 6
 62
     5
370
    13
100
AcDbCircle
 10
9967.20654
 20
31062.666228
 30
0.0
 40
14.89948500334837
210
0.0
220
0.0
230
-1.0
100
AcDbArc
 50
319.146392
 51
335.371436
  0
LINE
  5
F335E
330
F336E
100
AcDbEntity
  8
Level 40
  6
DGN Style 6
 62
     5
370
    13
100
AcDbLine
 10
-9980.751366
 20
31056.45385
 30
0.0
 11
-9981.267883
 21
31056.225391
 31
0.0
  0
ARC
  5
F335F
330
F336E
100
AcDbEntity
  8
Level 40
  6
DGN Style 6
 62
     5
370
    13
100
AcDbCircle
 10
9981.925931
 20
31057.666699
 30
0.0
 40
1.589356961916567
210
0.0
220
0.0
230
-1.0
100
AcDbArc
 50
245.371433
 51
12.135447
  0
LINE
  5
F3360
330
F336E
100
AcDbEntity
  8
Level 40
  6
DGN Style 6
 62
     5
370
    13
100
AcDbLine
 10
-9983.48294
 20
31058.003399
 30
0.0
 11
-9980.105723
 21
31073.677655
 31
0.0
  0
ARC
  5
F3361
330
F336E
100
AcDbEntity
  8
Level 40
  6
DGN Style 6
 62
     5
370
    13
100
AcDbCircle
 10
9978.554806
 20
31073.344265
 30
0.0
 40
1.589356962913074
210
0.0
220
0.0
230
-1.0
100
AcDbArc
 50
12.135447
 51
139.111378
  0
LINE
  5
F3362
330
F336E
100
AcDbEntity
  8
Level 40
  6
DGN Style 6
 62
     5
370
    13
100
AcDbLine
 10
-9977.354284
 20
31074.382898
 30
0.0
 11
-9976.956965
 21
31073.925981
 31
0.0
  0
ARC
  5
F3363
330
F336E
100
AcDbEntity
  8
Level 40
  6
DGN Style 6
 62
     5
370
    13
100
AcDbCircle
 10
9967.20654
 20
31062.666228
 30
0.0
 40
14.89948499827943
210
0.0
220
0.0
230
-1.0
100
AcDbArc
 50
49.111375
 51
65.124503
  0
LINE
  5
F3364
330
F336E
100
AcDbEntity
  8
Level 40
  6
DGN Style 6
 62
     5
370
    13
100
AcDbLine
 10
-9973.470484
 20
31076.18077
 30
0.0
 11
-9975.069697
 21
31079.617584
 31
0.0
  0
ARC
  5
F3365
330
F336E
100
AcDbEntity
  8
Level 40
  6
DGN Style 6
 62
     5
370
    13
100
AcDbCircle
 10
10359.563152
 20
29280.658696
 30
0.0
 40
1809.790777990316
210
0.0
220
0.0
230
-1.0
100
AcDbArc
 50
99.657581
 51
102.064294
  0
ARC
  5
F3366
330
F336E
100
AcDbEntity
  8
Level 40
  6
DGN Style 6
 62
     5
370
    13
100
AcDbCircle
 10
-10391.617111
 20
29288.019722
 30
0.0
 40
1839.589748410751
100
AcDbArc
 50
75.461484
 51
76.705836
  0
ARC
  5
F3367
330
F336E
100
AcDbEntity
  8
Level 40
  6
DGN Style 6
 62
     5
370
    13
100
AcDbCircle
 10
-10154.856956
 20
31104.825218
 30
0.0
 40
1.589278506945956
100
AcDbArc
 50
83.597108
 51
173.683906
  0
LINE
  5
F3368
330
F336E
100
AcDbEntity
  8
Level 40
  6
DGN Style 6
 62
     5
370
    13
100
AcDbLine
 10
-10156.43616
 20
31104.996372
 30
0.0
 11
-10158.839945
 21
31083.282856
 31
0.0
  0
ARC
  5
F3369
330
F336E
100
AcDbEntity
  8
Level 40
  6
DGN Style 6
 62
     5
370
    13
100
AcDbCircle
 10
-10157.261031
 20
31083.105257
 30
0.0
 40
1.589278195725133
100
AcDbArc
 50
173.683906
 51
263.596058
  0
ARC
  5
F336A
330
F336E
100
AcDbEntity
  8
Level 40
  6
DGN Style 6
 62
     5
370
    13
100
AcDbCircle
 10
-10162.789742
 20
31083.717202
 30
0.0
 40
1.589277900797683
100
AcDbArc
 50
263.771786
 51
353.683903
  0
LINE
  5
F336B
330
F336E
100
AcDbEntity
  8
Level 40
  6
DGN Style 6
 62
     5
370
    13
100
AcDbLine
 10
-10161.213929
 20
31083.541114
 30
0.0
 11
-10158.810147
 21
31105.264563
 31
0.0
  0
ARC
  5
F336C
330
F336E
100
AcDbEntity
  8
Level 40
  6
DGN Style 6
 62
     5
370
    13
100
AcDbCircle
 10
-10160.385666
 20
31105.437164
 30
0.0
 40
1.589278293221674
100
AcDbArc
 50
353.683942
 51
83.770731
  0
ENDSEC
  0
SECTION
  2
OBJECTS
  0
DICTIONARY
  5
F3373
330
0
100
AcDbDictionary
281
     1
  3
ACAD_COLOR
350
F33AF
  3
ACAD_GROUP
350
F339C
  3
ACAD_LAYOUT
350
F3380
  3
ACAD_MATERIAL
350
F3375
  3
ACAD_MLEADERSTYLE
350
F33B2
  3
ACAD_MLINESTYLE
350
F339D
  3
ACAD_PLOTSETTINGS
350
F339E
  3
ACAD_PLOTSTYLENAME
350
F3372
  3
ACAD_SCALELIST
350
F33B0
  3
ACAD_TABLESTYLE
350
F33B1
  3
ACAD_VISUALSTYLE
350
F3396
  3
AcadDim
350
F33DC
  3
ACDB_RECOMPOSE_DATA
350
F33EA
  3
AcDbVariableDictionary
350
F33E0
  0
DICTIONARY
  5
F3389
330
F3388
100
AcDbDictionary
280
     1
281
     1
  3
ACAD_LAYERFILTERS
360
F33DA
  3
ACAD_LAYERSTATES
360
F338A
  0
DICTIONARY
  5
F33AF
102
{ACAD_REACTORS
330
F3373
102
}
330
F3373
100
AcDbDictionary
281
     1
  0
DICTIONARY
  5
F339C
102
{ACAD_REACTORS
330
F3373
102
}
330
F3373
100
AcDbDictionary
281
     1
  0
DICTIONARY
  5
F3380
102
{ACAD_REACTORS
330
F3373
102
}
330
F3373
100
AcDbDictionary
281
     1
  3
Layout1
350
F3384
  3
Model
350
F337F
  0
DICTIONARY
  5
F3375
102
{ACAD_REACTORS
330
F3373
102
}
330
F3373
100
AcDbDictionary
281
     1
  3
ByBlock
350
F33A7
  3
ByLayer
350
F339F
  3
Global
350
F3374
  0
DICTIONARY
  5
F33B2
102
{ACAD_REACTORS
330
F3373
102
}
330
F3373
100
AcDbDictionary
281
     1
  0
DICTIONARY
  5
F339D
102
{ACAD_REACTORS
330
F3373
102
}
330
F3373
100
AcDbDictionary
281
     1
  3
Standard
350
F33B3
  0
DICTIONARY
  5
F339E
102
{ACAD_REACTORS
330
F3373
102
}
330
F3373
100
AcDbDictionary
281
     1
  0
ACDBDICTIONARYWDFLT
  5
F3372
102
{ACAD_REACTORS
330
F3373
102
}
330
F3373
100
AcDbDictionary
281
     1
  3
Normal
350
F3371
100
AcDbDictionaryWithDefault
340
F3371
  0
DICTIONARY
  5
F33B0
102
{ACAD_REACTORS
330
F3373
102
}
330
F3373
100
AcDbDictionary
281
     1
  3
A0
350
F33B7
  3
A1
350
F33B8
  3
A2
350
F33B9
  3
A3
350
F33BA
  3
A4
350
F33BB
  3
A5
350
F33BC
  3
A6
350
F33BD
  3
A7
350
F33BE
  3
A8
350
F33BF
  3
A9
350
F33C0
  3
B0
350
F33C1
  3
B1
350
F33C2
  3
B2
350
F33C3
  3
B3
350
F33C4
  3
B4
350
F33C5
  3
B5
350
F33C6
  3
B6
350
F33C7
  3
B7
350
F33C8
  3
B8
350
F33C9
  3
B9
350
F33CA
  3
C0
350
F33CB
  3
C1
350
F33CC
  3
C2
350
F33CD
  3
C3
350
F33CE
  3
C4
350
F33CF
  3
C5
350
F33D0
  3
C6
350
F33D1
  3
C7
350
F33D2
  3
C8
350
F33D3
  3
C9
350
F33D4
  3
D0
350
F33D5
  3
D1
350
F33D6
  3
D2
350
F33D7
  0
DICTIONARY
  5
F33B1
102
{ACAD_REACTORS
330
F3373
102
}
330
F3373
100
AcDbDictionary
281
     1
  3
Standard
350
F33B4
  0
DICTIONARY
  5
F3396
102
{ACAD_REACTORS
330
F3373
102
}
330
F3373
100
AcDbDictionary
281
     1
  3
2dWireframe
350
F3395
  3
3dWireframe
350
F33B6
  3
Realistic
350
F33B5
  0
XRECORD
  5
F33DC
102
{ACAD_REACTORS
330
F3373
102
}
330
F3373
100
AcDbXrecord
280
     1
 90
   990106
  3
 
 60
     0
 61
     0
 62
     1
 63
     1
 64
     0
 65
     0
 66
     0
 67
     3
 68
     1
 69
     1
 70
     0
 71
     0
 72
     0
 40
0.0
170
     0
  0
XRECORD
  5
F33EA
102
{ACAD_REACTORS
330
F3373
102
}
330
F3373
100
AcDbXrecord
280
     1
 90
        1
330
F33B4
  0
DICTIONARY
  5
F33E0
102
{ACAD_REACTORS
330
F3373
102
}
330
F3373
100
AcDbDictionary
281
     1
  3
CANNOSCALE
350
F33E4
  3
CMLEADERSTYLE
350
F33E2
  3
CTABLESTYLE
350
F33E1
  3
LAYEREVAL
350
F33E6
  3
LAYERNOTIFY
350
F33E7
  3
LIGHTINGUNITS
350
F33E5
  3
MSLTSCALE
350
F33E3
  0
DICTIONARY
  5
F33DA
102
{ACAD_REACTORS
330
F3389
102
}
330
F3389
100
AcDbDictionary
281
     1
  0
DICTIONARY
  5
F338A
102
{ACAD_REACTORS
330
F3389
102
}
330
F3389
100
AcDbDictionary
281
     1
  0
LAYOUT
  5
F3384
102
{ACAD_XDICTIONARY
360
F3385
102
}
102
{ACAD_REACTORS
330
F3380
102
}
330
F3380
100
AcDbPlotSettings
  1

  2
none_device
  4
Letter_(8.50_x_11.00_Inches)
  6

 40
6.35
 41
6.35
 42
6.350006
 43
6.350006
 44
215.899994
 45
279.399994
 46
0.0
 47
0.0
 48
0.0
 49
0.0
140
0.0
141
0.0
142
1.0
143
1.0
 70
   688
 72
     0
 73
     1
 74
     5
  7

 75
    16
147
1.0
 76
     0
 77
     2
 78
   300
148
0.0
149
0.0
100
AcDbLayout
  1
Layout1
 70
     1
 71
     1
 10
-0.25
 20
-0.25
 11
10.75
 21
8.25
 12
0.0
 22
0.0
 32
0.0
 14
1.049744
 24
0.799667
 34
-0.001526
 15
9.450623
 25
7.200577
 35
0.0
146
0.0
 13
0.0
 23
0.0
 33
0.0
 16
1.0
 26
0.0
 36
0.0
 17
0.0
 27
1.0
 37
0.0
 76
     0
330
F3381
1001
ACAD_PSEXT
1000
None
1000
None
1000
Not applicable
1000
The layout will not be plotted unless a new plotter configuration name is selected.
1070
     0
  0
LAYOUT
  5
F337F
102
{ACAD_REACTORS
330
F3380
102
}
330
F3380
100
AcDbPlotSettings
  1

  2
none_device
  4
ANSI_A_(8.50_x_11.00_Inches)
  6

 40
6.35
 41
19.049999
 42
6.350006
 43
19.049988
 44
215.899994
 45
279.399994
 46
0.0
 47
0.0
 48
0.0
 49
0.0
140
0.0
141
0.0
142
1.0
143
2.584895
 70
 11952
 72
     0
 73
     1
 74
     0
  7

 75
     0
147
0.386863
 76
     0
 77
     2
 78
   300
148
0.0
149
0.0
100
AcDbLayout
  1
Model
 70
     1
 71
     0
 10
0.0
 20
0.0
 11
12.0
 21
9.0
 12
0.0
 22
0.0
 32
0.0
 14
0.0
 24
0.0
 34
0.0
 15
0.0
 25
0.0
 35
0.0
146
0.0
 13
0.0
 23
0.0
 33
0.0
 16
1.0
 26
0.0
 36
0.0
 17
0.0
 27
1.0
 37
0.0
 76
     0
330
F336E
  0
MATERIAL
  5
F33A7
102
{ACAD_XDICTIONARY
360
F33A8
102
}
102
{ACAD_REACTORS
330
F3375
102
}
330
F3375
100
AcDbMaterial
  1
ByBlock
 72
     0
 43
0.020833
 43
0.0
 43
0.0
 43
0.0
 43
0.0
 43
0.020833
 43
0.0
 43
0.0
 43
0.0
 43
0.0
 43
1.0
 43
0.0
 43
0.0
 43
0.0
 43
0.0
 43
1.0
 77
     0
 47
0.020833
 47
0.0
 47
0.0
 47
0.0
 47
0.0
 47
0.020833
 47
0.0
 47
0.0
 47
0.0
 47
0.0
 47
1.0
 47
0.0
 47
0.0
 47
0.0
 47
0.0
 47
1.0
171
     0
 49
0.020833
 49
0.0
 49
0.0
 49
0.0
 49
0.0
 49
0.020833
 49
0.0
 49
0.0
 49
0.0
 49
0.0
 49
1.0
 49
0.0
 49
0.0
 49
0.0
 49
0.0
 49
1.0
175
     0
142
0.020833
142
0.0
142
0.0
142
0.0
142
0.0
142
0.020833
142
0.0
142
0.0
142
0.0
142
0.0
142
1.0
142
0.0
142
0.0
142
0.0
142
0.0
142
1.0
179
     0
144
0.020833
144
0.0
144
0.0
144
0.0
144
0.0
144
0.020833
144
0.0
144
0.0
144
0.0
144
0.0
144
1.0
144
0.0
144
0.0
144
0.0
144
0.0
144
1.0
147
0.020833
147
0.0
147
0.0
147
0.0
147
0.0
147
0.020833
147
0.0
147
0.0
147
0.0
147
0.0
147
1.0
147
0.0
147
0.0
147
0.0
147
0.0
147
1.0
  0
MATERIAL
  5
F339F
102
{ACAD_XDICTIONARY
360
F33A0
102
}
102
{ACAD_REACTORS
330
F3375
102
}
330
F3375
100
AcDbMaterial
  1
ByLayer
 72
     0
 43
0.020833
 43
0.0
 43
0.0
 43
0.0
 43
0.0
 43
0.020833
 43
0.0
 43
0.0
 43
0.0
 43
0.0
 43
1.0
 43
0.0
 43
0.0
 43
0.0
 43
0.0
 43
1.0
 77
     0
 47
0.020833
 47
0.0
 47
0.0
 47
0.0
 47
0.0
 47
0.020833
 47
0.0
 47
0.0
 47
0.0
 47
0.0
 47
1.0
 47
0.0
 47
0.0
 47
0.0
 47
0.0
 47
1.0
171
     0
 49
0.020833
 49
0.0
 49
0.0
 49
0.0
 49
0.0
 49
0.020833
 49
0.0
 49
0.0
 49
0.0
 49
0.0
 49
1.0
 49
0.0
 49
0.0
 49
0.0
 49
0.0
 49
1.0
175
     0
142
0.020833
142
0.0
142
0.0
142
0.0
142
0.0
142
0.020833
142
0.0
142
0.0
142
0.0
142
0.0
142
1.0
142
0.0
142
0.0
142
0.0
142
0.0
142
1.0
179
     0
144
0.020833
144
0.0
144
0.0
144
0.0
144
0.0
144
0.020833
144
0.0
144
0.0
144
0.0
144
0.0
144
1.0
144
0.0
144
0.0
144
0.0
144
0.0
144
1.0
147
0.020833
147
0.0
147
0.0
147
0.0
147
0.0
147
0.020833
147
0.0
147
0.0
147
0.0
147
0.0
147
1.0
147
0.0
147
0.0
147
0.0
147
0.0
147
1.0
  0
MATERIAL
  5
F3374
102
{ACAD_XDICTIONARY
360
F3376
102
}
102
{ACAD_REACTORS
330
F3375
102
}
330
F3375
100
AcDbMaterial
  1
Global
 72
     0
 43
0.020833
 43
0.0
 43
0.0
 43
0.0
 43
0.0
 43
0.020833
 43
0.0
 43
0.0
 43
0.0
 43
0.0
 43
1.0
 43
0.0
 43
0.0
 43
0.0
 43
0.0
 43
1.0
 77
     0
 47
0.020833
 47
0.0
 47
0.0
 47
0.0
 47
0.0
 47
0.020833
 47
0.0
 47
0.0
 47
0.0
 47
0.0
 47
1.0
 47
0.0
 47
0.0
 47
0.0
 47
0.0
 47
1.0
171
     0
 49
0.020833
 49
0.0
 49
0.0
 49
0.0
 49
0.0
 49
0.020833
 49
0.0
 49
0.0
 49
0.0
 49
0.0
 49
1.0
 49
0.0
 49
0.0
 49
0.0
 49
0.0
 49
1.0
175
     0
142
0.020833
142
0.0
142
0.0
142
0.0
142
0.0
142
0.020833
142
0.0
142
0.0
142
0.0
142
0.0
142
1.0
142
0.0
142
0.0
142
0.0
142
0.0
142
1.0
179
     0
144
0.020833
144
0.0
144
0.0
144
0.0
144
0.0
144
0.020833
144
0.0
144
0.0
144
0.0
144
0.0
144
1.0
144
0.0
144
0.0
144
0.0
144
0.0
144
1.0
147
0.020833
147
0.0
147
0.0
147
0.0
147
0.0
147
0.020833
147
0.0
147
0.0
147
0.0
147
0.0
147
1.0
147
0.0
147
0.0
147
0.0
147
0.0
147
1.0
  0
MLINESTYLE
  5
F33B3
102
{ACAD_REACTORS
330
F339D
102
}
330
F339D
100
AcDbMlineStyle
  2
STANDARD
 70
     0
  3

 62
   256
 51
90.0
 52
90.0
 71
     2
 49
0.5
 62
   256
  6
BYLAYER
 49
-0.5
 62
   256
  6
BYLAYER
  0
ACDBPLACEHOLDER
  5
F3371
102
{ACAD_REACTORS
330
F3372
102
}
330
F3372
  0
SCALE
  5
F33B7
102
{ACAD_REACTORS
330
F33B0
102
}
330
F33B0
100
AcDbScale
 70
     0
300
1:1
140
1.0
141
1.0
290
     1
  0
SCALE
  5
F33B8
102
{ACAD_REACTORS
330
F33B0
102
}
330
F33B0
100
AcDbScale
 70
     0
300
1:2
140
1.0
141
2.0
290
     0
  0
SCALE
  5
F33B9
102
{ACAD_REACTORS
330
F33B0
102
}
330
F33B0
100
AcDbScale
 70
     0
300
1:4
140
1.0
141
4.0
290
     0
  0
SCALE
  5
F33BA
102
{ACAD_REACTORS
330
F33B0
102
}
330
F33B0
100
AcDbScale
 70
     0
300
1:5
140
1.0
141
5.0
290
     0
  0
SCALE
  5
F33BB
102
{ACAD_REACTORS
330
F33B0
102
}
330
F33B0
100
AcDbScale
 70
     0
300
1:8
140
1.0
141
8.0
290
     0
  0
SCALE
  5
F33BC
102
{ACAD_REACTORS
330
F33B0
102
}
330
F33B0
100
AcDbScale
 70
     0
300
1:10
140
1.0
141
10.0
290
     0
  0
SCALE
  5
F33BD
102
{ACAD_REACTORS
330
F33B0
102
}
330
F33B0
100
AcDbScale
 70
     0
300
1:16
140
1.0
141
16.0
290
     0
  0
SCALE
  5
F33BE
102
{ACAD_REACTORS
330
F33B0
102
}
330
F33B0
100
AcDbScale
 70
     0
300
1:20
140
1.0
141
20.0
290
     0
  0
SCALE
  5
F33BF
102
{ACAD_REACTORS
330
F33B0
102
}
330
F33B0
100
AcDbScale
 70
     0
300
1:30
140
1.0
141
30.0
290
     0
  0
SCALE
  5
F33C0
102
{ACAD_REACTORS
330
F33B0
102
}
330
F33B0
100
AcDbScale
 70
     0
300
1:40
140
1.0
141
40.0
290
     0
  0
SCALE
  5
F33C1
102
{ACAD_REACTORS
330
F33B0
102
}
330
F33B0
100
AcDbScale
 70
     0
300
1:50
140
1.0
141
50.0
290
     0
  0
SCALE
  5
F33C2
102
{ACAD_REACTORS
330
F33B0
102
}
330
F33B0
100
AcDbScale
 70
     0
300
1:100
140
1.0
141
100.0
290
     0
  0
SCALE
  5
F33C3
102
{ACAD_REACTORS
330
F33B0
102
}
330
F33B0
100
AcDbScale
 70
     0
300
2:1
140
2.0
141
1.0
290
     0
  0
SCALE
  5
F33C4
102
{ACAD_REACTORS
330
F33B0
102
}
330
F33B0
100
AcDbScale
 70
     0
300
4:1
140
4.0
141
1.0
290
     0
  0
SCALE
  5
F33C5
102
{ACAD_REACTORS
330
F33B0
102
}
330
F33B0
100
AcDbScale
 70
     0
300
8:1
140
8.0
141
1.0
290
     0
  0
SCALE
  5
F33C6
102
{ACAD_REACTORS
330
F33B0
102
}
330
F33B0
100
AcDbScale
 70
     0
300
10:1
140
10.0
141
1.0
290
     0
  0
SCALE
  5
F33C7
102
{ACAD_REACTORS
330
F33B0
102
}
330
F33B0
100
AcDbScale
 70
     0
300
100:1
140
100.0
141
1.0
290
     0
  0
SCALE
  5
F33C8
102
{ACAD_REACTORS
330
F33B0
102
}
330
F33B0
100
AcDbScale
 70
     0
300
1/128" = 1'-0"
140
0.007813
141
12.0
290
     0
  0
SCALE
  5
F33C9
102
{ACAD_REACTORS
330
F33B0
102
}
330
F33B0
100
AcDbScale
 70
     0
300
1/64" = 1'-0"
140
0.015625
141
12.0
290
     0
  0
SCALE
  5
F33CA
102
{ACAD_REACTORS
330
F33B0
102
}
330
F33B0
100
AcDbScale
 70
     0
300
1/32" = 1'-0"
140
0.03125
141
12.0
290
     0
  0
SCALE
  5
F33CB
102
{ACAD_REACTORS
330
F33B0
102
}
330
F33B0
100
AcDbScale
 70
     0
300
1/16" = 1'-0"
140
0.0625
141
12.0
290
     0
  0
SCALE
  5
F33CC
102
{ACAD_REACTORS
330
F33B0
102
}
330
F33B0
100
AcDbScale
 70
     0
300
3/32" = 1'-0"
140
0.09375
141
12.0
290
     0
  0
SCALE
  5
F33CD
102
{ACAD_REACTORS
330
F33B0
102
}
330
F33B0
100
AcDbScale
 70
     0
300
1/8" = 1'-0"
140
0.125
141
12.0
290
     0
  0
SCALE
  5
F33CE
102
{ACAD_REACTORS
330
F33B0
102
}
330
F33B0
100
AcDbScale
 70
     0
300
3/16" = 1'-0"
140
0.1875
141
12.0
290
     0
  0
SCALE
  5
F33CF
102
{ACAD_REACTORS
330
F33B0
102
}
330
F33B0
100
AcDbScale
 70
     0
300
1/4" = 1'-0"
140
0.25
141
12.0
290
     0
  0
SCALE
  5
F33D0
102
{ACAD_REACTORS
330
F33B0
102
}
330
F33B0
100
AcDbScale
 70
     0
300
3/8" = 1'-0"
140
0.375
141
12.0
290
     0
  0
SCALE
  5
F33D1
102
{ACAD_REACTORS
330
F33B0
102
}
330
F33B0
100
AcDbScale
 70
     0
300
1/2" = 1'-0"
140
0.5
141
12.0
290
     0
  0
SCALE
  5
F33D2
102
{ACAD_REACTORS
330
F33B0
102
}
330
F33B0
100
AcDbScale
 70
     0
300
3/4" = 1'-0"
140
0.75
141
12.0
290
     0
  0
SCALE
  5
F33D3
102
{ACAD_REACTORS
330
F33B0
102
}
330
F33B0
100
AcDbScale
 70
     0
300
1" = 1'-0"
140
1.0
141
12.0
290
     0
  0
SCALE
  5
F33D4
102
{ACAD_REACTORS
330
F33B0
102
}
330
F33B0
100
AcDbScale
 70
     0
300
1-1/2" = 1'-0"
140
1.5
141
12.0
290
     0
  0
SCALE
  5
F33D5
102
{ACAD_REACTORS
330
F33B0
102
}
330
F33B0
100
AcDbScale
 70
     0
300
3" = 1'-0"
140
3.0
141
12.0
290
     0
  0
SCALE
  5
F33D6
102
{ACAD_REACTORS
330
F33B0
102
}
330
F33B0
100
AcDbScale
 70
     0
300
6" = 1'-0"
140
6.0
141
12.0
290
     0
  0
SCALE
  5
F33D7
102
{ACAD_REACTORS
330
F33B0
102
}
330
F33B0
100
AcDbScale
 70
     0
300
1'-0" = 1'-0"
140
12.0
141
12.0
290
     0
  0
TABLESTYLE
  5
F33B4
102
{ACAD_XDICTIONARY
360
F33E8
102
}
102
{ACAD_REACTORS
330
F33B1
102
}
330
F33B1
100
AcDbTableStyle
  3
Standard
 70
     0
 71
     0
 40
0.06
 41
0.06
280
     0
281
     0
  7
Standard
140
0.18
170
     2
 62
     0
 63
     7
283
     0
 90
        4
 91
        0
  1

274
    -2
284
     1
 64
     0
275
    -2
285
     1
 65
     0
276
    -2
286
     1
 66
     0
277
    -2
287
     1
 67
     0
278
    -2
288
     1
 68
     0
279
    -2
289
     1
 69
     0
  7
Standard
140
0.25
170
     5
 62
     0
 63
     7
283
     0
 90
        4
 91
        0
  1

274
    -2
284
     1
 64
     0
275
    -2
285
     1
 65
     0
276
    -2
286
     1
 66
     0
277
    -2
287
     1
 67
     0
278
    -2
288
     1
 68
     0
279
    -2
289
     1
 69
     0
  7
Standard
140
0.18
170
     5
 62
     0
 63
     7
283
     0
 90
        4
 91
        0
  1

274
    -2
284
     1
 64
     0
275
    -2
285
     1
 65
     0
276
    -2
286
     1
 66
     0
277
    -2
287
     1
 67
     0
278
    -2
288
     1
 68
     0
279
    -2
289
     1
 69
     0
  0
VISUALSTYLE
  5
F3395
102
{ACAD_XDICTIONARY
360
F33EB
102
}
102
{ACAD_REACTORS
330
F3396
102
}
330
F3396
100
AcDbVisualStyle
  2
2dWireframe
 70
     4
 71
     0
 72
     2
 73
     0
 90
        0
 40
-0.6
 41
-30.0
 62
     5
 63
     7
421
 16777215
 74
     1
 91
        4
 64
     7
 65
   257
 75
     1
175
     1
 42
1.0
 92
        0
 66
   257
 43
1.0
 76
     1
 77
     6
 78
     2
 67
     7
 79
     5
170
     0
171
     0
290
     0
174
     0
 93
        1
 44
0.0
173
     0
291
     0
 45
0.0
1001
ACAD
1000
AcDbSavedByObjectVersion
1070
     0
  0
VISUALSTYLE
  5
F33B6
102
{ACAD_XDICTIONARY
360
F33EF
102
}
102
{ACAD_REACTORS
330
F3396
102
}
330
F3396
100
AcDbVisualStyle
  2
3dWireframe
 70
     5
 71
     0
 72
     2
 73
     0
 90
        0
 40
-0.6
 41
-30.0
 62
     5
 63
     7
421
 16777215
 74
     1
 91
        4
 64
     7
 65
   257
 75
     1
175
     1
 42
1.0
 92
        0
 66
   257
 43
1.0
 76
     1
 77
     6
 78
     2
 67
     7
 79
     5
170
     0
171
     0
290
     0
174
     0
 93
        1
 44
0.0
173
     0
291
     0
 45
0.0
1001
ACAD
1000
AcDbSavedByObjectVersion
1070
     0
  0
VISUALSTYLE
  5
F33B5
102
{ACAD_XDICTIONARY
360
F33ED
102
}
102
{ACAD_REACTORS
330
F3396
102
}
330
F3396
100
AcDbVisualStyle
  2
Realistic
 70
     8
 71
     2
 72
     2
 73
     0
 90
        0
 40
-0.6
 41
-30.0
 62
     5
 63
     7
421
 16777215
 74
     1
 91
        0
 64
     7
 65
   257
 75
     1
175
     1
 42
1.0
 92
        8
 66
     8
424
  7895160
 43
1.0
 76
     1
 77
     6
 78
     2
 67
     7
 79
     5
170
     0
171
     0
290
     0
174
     0
 93
       13
 44
0.0
173
     0
291
     0
 45
0.0
1001
ACAD
1000
AcDbSavedByObjectVersion
1070
     0
  0
DICTIONARYVAR
  5
F33E4
102
{ACAD_REACTORS
330
F33E0
102
}
330
F33E0
100
DictionaryVariables
280
     0
  1
1:1
  0
DICTIONARYVAR
  5
F33E2
102
{ACAD_REACTORS
330
F33E0
102
}
330
F33E0
100
DictionaryVariables
280
     0
  1
STANDARD
  0
DICTIONARYVAR
  5
F33E1
102
{ACAD_REACTORS
330
F33E0
102
}
330
F33E0
100
DictionaryVariables
280
     0
  1
STANDARD
  0
DICTIONARYVAR
  5
F33E6
102
{ACAD_REACTORS
330
F33E0
102
}
330
F33E0
100
DictionaryVariables
280
     0
  1
1
  0
DICTIONARYVAR
  5
F33E7
102
{ACAD_REACTORS
330
F33E0
102
}
330
F33E0
100
DictionaryVariables
280
     0
  1
15
  0
DICTIONARYVAR
  5
F33E5
102
{ACAD_REACTORS
330
F33E0
102
}
330
F33E0
100
DictionaryVariables
280
     0
  1
0
  0
DICTIONARYVAR
  5
F33E3
102
{ACAD_REACTORS
330
F33E0
102
}
330
F33E0
100
DictionaryVariables
280
     0
  1
0
  0
DICTIONARY
  5
F3385
330
F3384
100
AcDbDictionary
280
     1
281
     1
  3
ADSK_XREC_LAYOUTTHUMBNAIL
360
F3386
  0
DICTIONARY
  5
F33A8
330
F33A7
100
AcDbDictionary
280
     1
281
     1
  3
BUMPTILE
360
F33A9
  3
DIFFUSETILE
360
F33AA
  3
OPACITYTILE
360
F33AB
  3
REFLECTIONTILE
360
F33AC
  3
REFRACTIONTILE
360
F33AD
  3
SPECULARTILE
360
F33AE
  0
DICTIONARY
  5
F33A0
330
F339F
100
AcDbDictionary
280
     1
281
     1
  3
BUMPTILE
360
F33A1
  3
DIFFUSETILE
360
F33A2
  3
OPACITYTILE
360
F33A3
  3
REFLECTIONTILE
360
F33A4
  3
REFRACTIONTILE
360
F33A5
  3
SPECULARTILE
360
F33A6
  0
DICTIONARY
  5
F3376
330
F3374
100
AcDbDictionary
280
     1
281
     1
  3
BUMPTILE
360
F3377
  3
DIFFUSETILE
360
F3378
  3
OPACITYTILE
360
F3379
  3
REFLECTIONTILE
360
F337A
  3
REFRACTIONTILE
360
F337B
  3
SPECULARTILE
360
F337C
  0
DICTIONARY
  5
F33E8
330
F33B4
100
AcDbDictionary
280
     1
281
     1
  3
ACAD_ROUNDTRIP_2008_TABLESTYLE_CELLSTYLEMAP
360
F33E9
  0
DICTIONARY
  5
F33EB
330
F3395
100
AcDbDictionary
280
     1
281
     1
  3
ACAD_XREC_ROUNDTRIP
360
F33EC
  0
DICTIONARY
  5
F33EF
330
F33B6
100
AcDbDictionary
280
     1
281
     1
  3
ACAD_XREC_ROUNDTRIP
360
F33F0
  0
DICTIONARY
  5
F33ED
330
F33B5
100
AcDbDictionary
280
     1
281
     1
  3
ACAD_XREC_ROUNDTRIP
360
F33EE
  0
XRECORD
  5
F3386
102
{ACAD_REACTORS
330
F3385
102
}
330
F3385
100
AcDbXrecord
280
     1
310
28000000B40000008B0000000100080000000000BC61000000000000000000000001000000000000FFFFFF0000000000FFFFFF000000000000000000000000000000000000000000000000000000000000000000330000006600000099000000CC000000FF00000000330000333300006633000099330000CC330000FF3300
310
0000660000336600006666000099660000CC660000FF66000000990000339900006699000099990000CC990000FF99000000CC000033CC000066CC000099CC0000CCCC0000FFCC000000FF000033FF000066FF000099FF0000CCFF0000FFFF000000003300330033006600330099003300CC003300FF003300003333003333
310
33006633330099333300CC333300FF33330000663300336633006666330099663300CC663300FF66330000993300339933006699330099993300CC993300FF99330000CC330033CC330066CC330099CC3300CCCC3300FFCC330000FF330033FF330066FF330099FF3300CCFF3300FFFF330000006600330066006600660099
310
006600CC006600FF00660000336600333366006633660099336600CC336600FF33660000666600336666006666660099666600CC666600FF66660000996600339966006699660099996600CC996600FF99660000CC660033CC660066CC660099CC6600CCCC6600FFCC660000FF660033FF660066FF660099FF6600CCFF6600
310
FFFF660000009900330099006600990099009900CC009900FF00990000339900333399006633990099339900CC339900FF33990000669900336699006666990099669900CC669900FF66990000999900339999006699990099999900CC999900FF99990000CC990033CC990066CC990099CC9900CCCC9900FFCC990000FF99
310
0033FF990066FF990099FF9900CCFF9900FFFF99000000CC003300CC006600CC009900CC00CC00CC00FF00CC000033CC003333CC006633CC009933CC00CC33CC00FF33CC000066CC003366CC006666CC009966CC00CC66CC00FF66CC000099CC003399CC006699CC009999CC00CC99CC00FF99CC0000CCCC0033CCCC0066CC
310
CC0099CCCC00CCCCCC00FFCCCC0000FFCC0033FFCC0066FFCC0099FFCC00CCFFCC00FFFFCC000000FF003300FF006600FF009900FF00CC00FF00FF00FF000033FF003333FF006633FF009933FF00CC33FF00FF33FF000066FF003366FF006666FF009966FF00CC66FF00FF66FF000099FF003399FF006699FF009999FF00CC
310
99FF00FF99FF0000CCFF0033CCFF0066CCFF0099CCFF00CCCCFF00FFCCFF0000FFFF0033FFFF0066FFFF0099FFFF00CCFFFF00FFFFFF00000000000D0D0D001A1A1A00282828003535350043434300505050005D5D5D006B6B6B00787878008686860093939300A1A1A100AEAEAE00BBBBBB00C9C9C900D6D6D600E4E4E400
310
F1F1F100FFFFFF0000000000000000000000000000000000000000000000000000000000000000000000000000000000E2E2E2E2E2E2E2E2E2E2E2E2E2E2E2E2E2E2E2E2E2E2E2E2E2E2E2E2E2E2E2E2E2E2E2E2E2E2E2E2E2E2E2E2E2E2E2E2E2E2E2E2E2E2E2E2E2E2E2E2E2E2E2E2E2E2E2E2E2E2E2E2E2E2E2E2E2E2E2
310
E2E2E2E2E2E2E2E2E2E2E2E2E2E2E2E2E2E2E2E2E2E2E2E2E2E2E2E2E2E2E2E2E2E2E2E2E2E2E2E2E2E2E2E2E2E2E2E2E2E2E2E2E2E2E2E2E2E2E2E2E2E2E2E2E2E2E2E2E2E2E2E2E2E2E2E2E2E2E2E2E2E2E2E2E2E2E2E2E2E2E2E2E2E2E2E2E2E2E2E2EFF5F5F5F5F5F5F5F5F5F5F5F5F5F5F5F5F5F5F5F5F5F5F5F5F5F5
310
F5F5F5F5F5F5F5F5F5F5F5F5F5F5F5F5F5F5F5F5F5F5F5F5F5F5F5F5F5F5F5F5F5F5F5F5F5F5F5F5F5F5F5F5F5F5F5F5F5F5F5F5F5F5F5F5F5F5F5F5F5F5F5F5F5F5F5F5F5F5F5F5F5F5F5F5F5F5F5F5F5F5F5F5F5F5F5F5F5F5F5F5F5F5F5F5F5F5F5F5F5F5F5F5F5F5F5F5F5F5F5F5F5F5F5F5F5F5F5F5F5F5F5F5F5F5F5
310
F5F5F5F5F5F5F5F5F5F5F5F5F5F5F5F5F5F5F5F5F5F5F5F5E2E2EFF5F5F5F5F5F5F5F5F5F5F5F5F5F5F5F5F5F5F5F5F5F5F5F5F5F5F5F5F5F5F5F5F5F5F5F5F5F5F5F5F5F5F5F5F5F5F5F5F5F5F5F5F5F5F5F5F5F5F5F5F5F5F5F5F5F5F5F5F5F5F5F5F5F5F5F5F5F5F5F5F5F5F5F5F5F5F5F5F5F5F5F5F5F5F5F5F5F5F5F5
310
F5F5F5F5F5F5F5F5F5F5F5F5F5F5F5F5F5F5F5F5F5F5F5F5F5F5F5F5F5F5F5F5F5F5F5F5F5F5F5F5F5F5F5F5F5F5F5F5F5F5F5F5F5F5F5F5F5F5F5F5F5F5F5F5F5F5F5F5F5F5F5F5F5F5F5F5F5E2E2EFF5F5F5F5F5F5F5F5F5F5F5F5F5F5F5F5F5F5F5F5F5F5F5F5F5F5F5F5F5F5F5F5F5F5F5F5F5F5F5F5F5F5F5F5F5F5F5
310
F5F5F5F5F5F5F5F5F5F5F5F5F5F5F5F5F5F5F5F5F5F5F5F5F5F5F5F5F5F5F5F5F5F5F5F5F5F5F5F5F5F5F5F5F5F5F5F5F5F5F5F5F5F5F5F5F5F5F5F5F5F5F5F5F5F5F5F5F5F5F5F5F5F5F5F5F5F5F5F5F5F5F5F5F5F5F5F5F5F5F5F5F5F5F5F5F5F5F5F5F5F5F5F5F5F5F5F5F5F5F5F5F5F5F5F5F5F5F5F5F5F5F5F5F5F5F5
310
F5F5F5E2E2EFF5F5F5E2E2E2E2E2E2E2E2F5F5F5F5F5F5F5F5F5E2E2E2E2E2E2E2E2E2E2E2E2E2E2E2E2F5F5F5F5F5F5F5F5E2E2E2E2E2E2E2E2E2E2E2E2E2E2E2E2F5F5F5F5F5F5F5F5F5E2E2E2E2E2E2E2E2E2E2E2E2E2E2E2F5F5F5F5F5F5F5F5F5E2E2E2E2E2E2E2E2E2E2E2E2E2E2E2F5F5F5F5F5F5F5F5F5E2E2E2E2
310
E2E2E2E2E2E2E2E2E2E2E2E2F5F5F5F5F5F5F5F5E2E2E2E2E2E2E2E2E2E2E2E2E2E2E2E2F5F5F5F5F5F5F5F5F5E2E2E2E2E2E2E2E2F5F5F5E2E2EFF5F5F5E2F5F5F5F5F5F5F5F5F5F5F5F5F5F5F5F5F5F5F5F5F5F5F5F5F5F5F5F5F5F5F5F5F5F5F5F5F5F5F5F5F5F5F5F5F5F5F5F5F5F5F5F5F5F5F5F5F5F5F5F5F5F5F5F5
310
F5F5F5F5F5F5F5F5F5F5F5F5F5F5F5F5F5F5F5F5F5F5F5F5F5F5F5F5F5F5F5F5F5F5F5F5F5F5F5F5F5F5F5F5F5F5F5F5F5F5F5F5F5F5F5F5F5F5F5F5F5F5F5F5F5F5F5F5F5F5F5F5F5F5F5F5F5F5F5F5F5F5F5F5F5F5F5F5F5F5F5F5F5F5F5F5F5F5F5F5F5F5F5F5F5E2F5F5F5E2E2EFF5F5F5E2F5F5F5F5F5F5F5F5F5F5F5
310
F5F5F5F5F5F5F5F5F5F5F5F5F5F5F5F5F5F5F5F5F5F5F5F5F5F5F5F5F5F5F5F5F5F5F5F5F5F5F5F5F5F5F5F5F5F5F5F5F5F5F5F5F5F5F5F5F5F5F5F5F5F5F5F5F5F5F5F5F5F5F5F5F5F5F5F5F5F5F5F5F5F5F5F5F5F5F5F5F5F5F5F5F5F5F5F5F5F5F5F5F5F5F5F5F5F5F5F5F5F5F5F5F5F5F5F5F5F5F5F5F5F5F5F5F5F5F5
310
F5F5F5F5F5F5F5F5F5F5F5F5F5F5F5F5F5F5F5F5F5F5F5F5F5F5F5F5F5F5F5E2F5F5F5E2E2EFF5F5F5E2F5F5F5F5F5F5F5F5F5F5F5F5F5F5F5F5F5F5F5F5F5F5F5F5F5F5F5F5F5F5F5F5F5F5F5F5F5F5F5F5F5F5F5F5F5F5F5F5F5F5F5F5F5F5F5F5F5F5F5F5F5F5F5F5F5F5F5F5F5F5F5F5F5F5F5F5F5F5F5F5F5F5F5F5F5
310
F5F5F5F5F5F5F5F5F5F5F5F5F5F5F5F5F5F5F5F5F5F5F5F5F5F5F5F5F5F5F5F5F5F5F5F5F5F5F5F5F5F5F5F5F5F5F5F5F5F5F5F5F5F5F5F5F5F5F5F5F5F5F5F5F5F5F5F5F5F5F5F5F5F5F5F5F5F5F5F5F5F5F5F5E2F5F5F5E2E2EFF5F5F5E2F5F5F5F5F5F5F5F5F5F5F5F5F5F5F5F5F5F5F5F5F5F5F5F5F5F5F5F5F5F5F5F5
310
F5F5F5F5F5F5F5F5F5F5F5F5F5F5F5F5F5F5F5F5F5F5F5F5F5F5F5F5F5F5F5F5F5F5F5F5F5F5F5F5F5F5F5F5F5F5F5F5F5F5F5F5F5F5F5F5F5F5F5F5F5F5F5F5F5F5F5F5F5F5F5F5F5F5F5F5F5F5F5F5F5F5F5F5F5F5F5F5F5F5F5F5F5F5F5F5F5F5F5F5F5F5F5F5F5F5F5F5F5F5F5F5F5F5F5F5F5F5F5F5F5F5F5F5F5F5F5
310
F5F5F5F5F5F5F5F5F5F5E2F5F5F5E2E2EFF5F5F5E2F5F5F5F5F5F5F5F5F5F5F5F5F5F5F5F5F5F5F5F5F5F5F5F5F5F5F5F5F5F5F5F5F5F5F5F5F5F5F5F5F5F5F5F5F5F5F5F5F5F5F5F5F5F5F5F5F5F5F5F5F5F5F5F5F5F5F5F5F5F5F5F5F5F5F5F5F5F5F5F5F5F5F5F5F5F5F5F5F5F5F5F5F5F5F5F5F5F5F5F5F5F5F5F5F5F5
310
F5F5F5F5F5F5F5F5F5F5F5F5F5F5F5F5F5F5F5F5F5F5F5F5F5F5F5F5F5F5F5F5F5F5F5F5F5F5F5F5F5F5F5F5F5F5F5F5F5F5F5F5F5F5F5F5F5F5F5F5F5F5F5E2F5F5F5E2E2EFF5F5F5E2F5F5F5F5F5F5F5F5F5F5F5F5F5F5F5F5F5F5F5F5F5F5F5F5F5F5F5F5F5F5F5F5F5F5F5F5F5F5F5F5F5F5F5F5F5F5F5F5F5F5F5F5F5
310
F5F5F5F5F5F5F5F5F5F5F5F5F5F5F5F5F5F5F5F5F5F5F5F5F5F5F5F5F5F5F5F5F5F5F5F5F5F5F5F5F5F5F5F5F5F5F5F5F5F5F5F5F5F5F5F5F5F5F5F5F5F5F5F5F5F5F5F5F5F5F5F5F5F5F5F5F5F5F5F5F5F5F5F5F5F5F5F5F5F5F5F5F5F5F5F5F5F5F5F5F5F5F5F5F5F5F5F5F5F5F5F5F5F5F5F5E2F5F5F5E2E2EFF5F5F5E2
310
F5F5F5F5F5F5F5F5F5F5F5F5F5F5F5F5F5F5F5F5F5F5F5F5F5F5F5F5F5F5F5F5F5F5F5F5F5F5F5F5F5F5F5F5F5F5F5F5F5F5F5F5F5F5F5F5F5F5F5F5F5F5F5F5F5F5F5F5F5F5F5F5F5F5F5F5F5F5F5F5F5F5F5F5F5F5F5F5F5F5F5F5F5F5F5F5F5F5F5F5F5F5F5F5F5F5F5F5F5F5F5F5F5F5F5F5F5F5F5F5F5F5F5F5F5F5F5
310
F5F5F5F5F5F5F5F5F5F5F5F5F5F5F5F5F5F5F5F5F5F5F5F5F5F5F5F5F5F5F5F5F5F5F5F5F5F5F5F5F5F5E2F5F5F5E2E2EFF5F5F5E2F5F5F5F5F5F5F5F5F5F5F5F5F5F5F5F5F5F5F5F5F5F5F5F5F5F5F5F5F5F5F5F5F5F5F5F5F5F5F5F5F5F5F5F5F5F5F5F5F5F5F5F5F5F5F5F5F5F5F5F5F5F5F5F5F5F5F5F5F5F5F5F5F5F5
310
F5F5F5F5F5F5F5F5F5F5F5F5F5F5F5F5F5F5F5F5F5F5F5F5F5F5F5F5F5F5F5F5F5F5F5F5F5F5F5F5F5F5F5F5F5F5F5F5F5F5F5F5F5F5F5F5F5F5F5F5F5F5F5F5F5F5F5F5F5F5F5F5F5F5F5F5F5F5F5F5F5F5F5F5F5F5F5F5F5F5F5F5F5F5F5E2F5F5F5E2E2EFF5F5F5F5F5F5F5F5F5F5F5F5F5F5F5F5F5F5F5F5F5F5F5F5F5
310
F5F5F5F5F5F5F5F5F5F5F5F5F5F5F5F5F5F5F5F5F5F5F5F5F5F5F5F5F5F5F5F5F5F5F5F5F5F5F5F5F5F5F5F5F5F5F5F5F5F5F5F5F5F5F5F5F5F5F5F5F5F5F5F5F5F5F5F5F5F5F5F5F5F5F5F5F5F5F5F5F5F5F5F5F5F5F5F5F5F5F5F5F5F5F5F5F5F5F5F5F5F5F5F5F5F5F5F5F5F5F5F5F5F5F5F5F5F5F5F5F5F5F5F5F5F5F5
310
F5F5F5F5F5F5F5F5F5F5F5F5F5F5F5F5F5F5F5F5F5F5F5F5F5E2E2EFF5F5F5F5F5F5F5F5F5F5F5F5F5F5F5F5F5F5F5F5F5F5F5F5F5F5F5F5F5F5F5F5F5F5F5F5F5F5F5F5F5F5F5F5F5F5F5F5F5F5F5F5F5F5F5F5F5F5F5F5F5F5F5F5F5F5F5F5F5F5F5F5F5F5F5F5F5F5F5F5F5F5F5F5F5F5F5F5F5F5F5F5F5F5F5F5F5F5F5
310
F5F5F5F5F5F5F5F5F5F5F5F5F5F5F5F5F5F5F5F5F5F5F5F5F5F5F5F5F5F5F5F5F5F5F5F5F5F5F5F5F5F5F5F5F5F5F5F5F5F5F5F5F5F5F5F5F5F5F5F5F5F5F5F5F5F5F5F5F5F5F5F5F5F5F5F5F5F5E2E2EFF5F5F5F5F5F5F5F5F5F5F5F5F5F5F5F5F5F5F5F5F5F5F5F5F5F5F5F5F5F5F5F5F5F5F5F5F5F5F5F5F5F5F5F5F5F5
310
F5F5F5F5F5F5F5F5F5F5F5F5F5F5F5F5F5F5F5F5F5F5F5F5F5F5F5F5F5F5F5F5F5F5F5F5F5F5F5F5F5F5F5F5F5F5F5F5F5F5F5F5F5F5F5F5F5F5F5F5F5F5F5F5F5F5F5F5F5F5F5F5F5F5F5F5F5F5F5F5F5F5F5F5F5F5F5F5F5F5F5F5F5F5F5F5F5F5F5F5F5F5F5F5F5F5F5F5F5F5F5F5F5F5F5F5F5F5F5F5F5F5F5F5F5F5F5
310
F5F5F5F5E2E2EFF5F5F5F5F5F5F5F5F5F5F5F5F5F5F5F5F5F5F5F5F5F5F5F5F5F5F5F5F5F5F5F5F5F5F5F5F5F5F5F5F5F5F5F5F5F5F5F5F5F5F5F5F5F5F5F5F5F5F5F5F5F5F5F5F5F5F5F5F5F5F5F5F5F5F5F5F5F5F5F5F5F5F5F5F5F5F5F5F5F5F5F5F5F5F5F5F5F5F5F5F5F5F5F5F5F5F5F5F5F5F5F5F5F5F5F5F5F5F5F5
310
F5F5F5F5F5F5F5F5F5F5F5F5F5F5F5F5F5F5F5F5F5F5F5F5F5F5F5F5F5F5F5F5F5F5F5F5F5F5F5F5F5F5F5F5F5F5F5F5F5F5F5F5F5F5F5F5F5E2E2EFF5F5F5F5F5F5F5F5F5F5F5F5F5F5F5F5F5F5F5F5E2E2E2E2E2E2E2E2E2E2E2E2E2E2E2E2E2E2E2E2E2E2E2E2E2E2E2E2E2E2E2E2E2E2E2E2E2E2E2E2E2E2E2E2E2E2E2
310
E2E2E2E2E2E2E2E2E2E2E2E2E2E2E2E2E2E2E2E2E2E2E2E2E2E2E2E2E2E2E2E2E2E2E2E2E2E2E2E2E2E2E2E2E2E2E2E2E2E2E2E2E2E2E2E2E2E2E2E2E2E2E2E2E2E2E2E2E2E2E2E2E2E2E2E2E2E2E2E2E2E2E2E2E2E2E2E2E2E2F5F5F5F5F5F5F5F5F5F5F5F5F5F5F5F5F5F5F5F5E2E2EFF5F5F5F5F5F5F5F5F5F5F5F5F5F5
310
F5F5F5F5F5F5E2F5F5F5F5F5F5F5F5F5F5F5F5F5F5F5F5F5F5F5F5F5F5F5F5F5F5F5F5F5F5F5F5F5F5F5F5F5F5F5F5F5F5F5F5F5F5F5F5F5F5F5F5F5F5F5F5F5F5F5F5F5F5F5F5F5F5F5F5F5F5F5F5F5F5F5F5F5F5F5F5F5F5F5F5F5F5F5F5F5F5F5F5F5F5F5F5F5F5F5F5F5F5F5F5F5F5F5F5F5F5F5F5F5F5F5F5F5F5F5F5
310
F5F5F5F5F5F5F5F5F5F5F5F5F5F5F5E2F5F5F5F5F5F5F5F5F5F5F5F5F5F5F5F5F5F5F5F5E2E2EFF5F5F5F5F5F5F5F5F5F5F5F5F5F5F5F5F5F5F5F5E2F5F5F5F5F5F5F5F5F5F5F5F5F5F5F5F5F5F5F5F5F5F5F5F5F5F5F5F5F5F5F5F5F5F5F5F5F5F5F5F5F5F5F5F5F5F5F5F5F5F5F5F5F5F5F5F5F5F5F5F5F5F5F5F5F5F5F5
310
F5F5F5F5F5F5F5F5F5F5F5F5F5F5F5F5F5F5F5F5F5F5F5F5F5F5F5F5F5F5F5F5F5F5F5F5F5F5F5F5F5F5F5F5F5F5F5F5F5F5F5F5F5F5F5F5F5F5F5F5F5F5F5F5F5F5F5F5E2F5F5F5F5F5F5F5F5F5F5F5F5F5F5F5F5F5F5F5F5E2E2EFF5F5F5F5F5F5F5F5F5F5F5F5F5F5F5F5F5F5F5F5E2F5F5F5F5F5F5F5F5F5F5F5F5F5F5
310
F5F5F5F5F5F5F5F5F5F5F5F5F5F5F5F5F5F5F5F5F5F5F5F5F5F5F5F5F5F5F5F5F5F5F5F5F5F5F5F5F5F5F5F5F5F5F5F5F5F5F5F5F5F5F5F5F5F5F5F5F5F5F5F5F5F5F5F5F5F5F5F5F5F5F5F5F5F5F5F5F5F5F5F5F5F5F5F5F5F5F5F5F5F5F5F5F5F5F5F5F5F5F5F5F5F5F5F5F5F5F5F5F5F5F5F5F5F5F5F5F5E2F5F5F5F5F5
310
F5F5F5F5F5F5F5F5F5F5F5F5F5F5F5E2E2EFF5F5F5F5F5F5F5F5F5F5F5F5F5F5F5F5F5F5F5F5E2F5F5F5F5F5F5F5F5F5F5F5F5F5F5F5F5F5F5F5F5F5F5F5F5F5F5F5F5F5F5F5F5F5F5F5F5F5F5F5F5F5F5F5F5F5F5F5F5F5F5F5F5F5F5F5F5F5F5F5F5F5F5F5F5F5F5F5F5F5F5F5F5F5F5F5F5F5F5F5F5F5F5F5F5F5F5F5F5
310
F5F5F5F5F5F5F5F5F5F5F5F5F5F5F5F5F5F5F5F5F5F5F5F5F5F5F5F5F5F5F5F5F5F5F5F5F5F5F5F5F5F5F5F5F5F5F5E2F5F5F5F5F5F5F5F5F5F5F5F5F5F5F5F5F5F5F5F5E2E2EFF5F5F5E2F5F5F5F5F5F5F5F5F5F5F5F5F5F5F5F5E2F5F5F5F5F5F5F5F5F5F5F5F5F5F5F5F5F5F5F5F5F5F5F5F5F5F5F5F5F5F5F5F5F5F5F5
310
F5F5F5F5F5F5F5F5F5F5F5F5F5F5F5F5F5F5F5F5F5F5F5F5F5F5F5F5F5F5F5F5F5F5F5F5F5F5F5F5F5F5F5F5F5F5F5F5F5F5F5F5F5F5F5F5F5F5F5F5F5F5F5F5F5F5F5F5F5F5F5F5F5F5F5F5F5F5F5F5F5F5F5F5F5F5F5F5F5F5F5F5F5F5F5F5F5F5F5F5E2F5F5F5F5F5F5F5F5F5F5F5F5F5F5F5F5E2F5F5F5E2E2EFF5F5F5
310
E2F5F5F5F5F5F5F5F5F5F5F5F5F5F5F5F5E2F5F5F5F5F5F5F5F5F5F5F5F5F5F5F5F5F5F5F5F5F5F5F5F5F5F5F5F5F5F5F5F5F5F5F5F5F5F5F5F5F5F5F5F5F5F5F5F5F5F5F5F5F5F5F5F5F5F5F5F5F5F5F5F5F5F5F5F5F5F5F5F5F5F5F5F5F5F5F5F5F5F5F5F5F5F5F5F5F5F5F5F5F5F5F5F5F5F5F5F5F5F5F5F5F5F5F5F5F5
310
F5F5F5F5F5F5F5F5F5F5F5F5F5F5F5F5F5F5F5F5F5F5F5F5F5F5E2F5F5F5F5F5F5F5F5F5F5F5F5F5F5F5F5E2F5F5F5E2E2EFF5F5F5E2F5F5F5F5F5F5F5F5F5F5F5F5F5F5F5F5E2F5F5F5F5F5F5F5F5F5F5F5F5F5F5F5F5F5F5F5F5F5F5F5F5F5F5F5F5F5F5F5F5F5F5F5F5F5F5F5F5F5F5F5F5F5F5F5F5F5F5F5F5F5F5F5F5
310
F5F5F5F5F5F5F5F5F5F5F5F5F5F5F5F5F5F5F5F5F5F5F5F5F5F5F5F5F5F5F5F5F5F5F5F5F5F5F5F5F5F5F5F5F5F5F5F5F5F5F5F5F5F5F5F5F5F5F5F5F5F5F5F5F5F5F5F5F5F5F5F5F5F5F5F5F5F5F5E2F5F5F5F5F5F5F5F5F5F5F5F5F5F5F5F5E2F5F5F5E2E2EFF5F5F5E2F5F5F5F5F5F5F5F5F5F5F5F5F5F5F5F5E2F5F5F5
310
F5F5F5F5F5F5F5F5F5F5F5F5F5F5F5F5F5F5F5F5F5F5F5F5F5F5F5F5F5F5F5F5F5F5F5F5F5F5F5F5F5F5F5F5F5F5F5F5F5F5F5F5F5F5F5F5F5F5F5F5F5F5F5F5F5F5F5F5F5F5F5F5F5F5F5F5F5F5F5F5F5F5F5F5F5F5F5F5F5F5F5F5F5F5F5F5F5F5F5F5F5F5F5F5F5F5F5F5F5F5F5F5F5F5F5F5F5F5F5F5F5F5F5F5F5F5F5
310
F5F5F5F5F5E2F5F5F5F5F5F5F5F5F5F5F5F5F5F5F5F5E2F5F5F5E2E2EFF5F5F5E2F5F5F5F5F5F5F5F5F5F5F5F5F5F5F5F5E2F5F5F5F5F5F5F5F5F5F5F5F5F5F5F5F5F5F5F5F5F5F5F5F5F5F5F5F5F5F5F5F5F5F5F5F5F5F5F5F5F5F5F5F5F5F5F5F5F5F5F5F5F5F5F5F5F5F5F5F5F5F5F5F5F5F5F5F5F5F5F5F5F5F5F5F5F5
310
F5F5F5F5F5F5F5F5F5F5F5F5F5F5F5F5F5F5F5F5F5F5F5F5F5F5F5F5F5F5F5F5F5F5F5F5F5F5F5F5F5F5F5F5F5F5F5F5F5F5F5F5F5F5F5F5F5F5E2F5F5F5F5F5F5F5F5F5F5F5F5F5F5F5F5E2F5F5F5E2E2EFF5F5F5E2F5F5F5F5F5F5F5F5F5F5F5F5F5F5F5F5E2F5F5F5F5F5F5F5F5F5F5F5F5F5F5F5F5F5F5F5F5F5F5F5F5
310
F5F5F5F5F5F5F5F5F5F5F5F5F5F5F5F5F5F5F5F5F5F5F5F5F5F5F5F5F5F5F5F5F5F5F5F5F5F5F5F5F5F5F5F5F5F5F5F5F5F5F5F5F5F5F5F5F5F5F5F5F5F5F5F5F5F5F5F5F5F5F5F5F5F5F5F5F5F5F5F5F5F5F5F5F5F5F5F5F5F5F5F5F5F5F5F5F5F5F5F5F5F5F5F5F5F5F5F5F5F5F5E2F5F5F5F5F5F5F5F5F5F5F5F5F5F5F5
310
F5E2F5F5F5E2E2EFF5F5F5E2F5F5F5F5F5F5F5F5F5F5F5F5F5F5F5F5E2F5F5F5F5F5F5F5F5F5F5F5F5F5F5F5F5F5F5F5F5F5F5F5F5F5F5F5F5F5F5F5F5F5F5F5F5F5F5F5F5F5F5F5F5F5F5F5F5F5F5F5F5F5F5F5F5F5F5F5F5F5F5F5F5F5F5F5F5F5F5F5F5F5F5F5F5F5F5F5F5F5F5F5F5F5F5F5F5F5F5F5F5F5F5F5F5F5F5
310
F5F5F5F5F5F5F5F5F5F5F5F5F5F5F5F5F5F5F5F5F5F5F5F5F5F5F5F5F5F5F5F5F5F5F5F5F5E2F5F5F5F5F5F5F5F5F5F5F5F5F5F5F5F5E2F5F5F5E2E2EFF5F5F5E2F5F5F5F5F5F5F5F5F5F5F5F5F5F5F5F5E2F5F5F5F5F5F5F5F5F5F5F5F5F5F5F5F5F5F5F5F5F5F5F5F5F5F5F5F5F5F5F5F5F5F5F5F5F5F5F5F5F5F5F5F5F5
310
F5F5F5F5F5F5F5F5F5F5F5F5F5F5F5F5F5F5F5F5F5F5F5F5F5F5F5F5F5F5F5F5F5F5F5F5F5F5F5F5F5F5F5F5F5F5F5F5F5F5F5F5F5F5F5F5F5F5F5F5F5F5F5F5F5F5F5F5F5F5F5F5F5F5F5F5F5F5F5F5F5F5F5F5F5F5F5F5F5F5E2F5F5F5F5F5F5F5F5F5F5F5F5F5F5F5F5E2F5F5F5E2E2EFF5F5F5E2F5F5F5F5F5F5F5F5F5
310
F5F5F5F5F5F5F5E2F5F5F5F5F5F5F5F5F5F5F5F5F5F5F5F5F5F5F5F5F5F5F5F5F5F5F5F5F5F5F5F5F5F5F5F5F5F5F5F5F5F5F5F5F5F5F5F5F5F5F5F5F5F5F5F5F5F5F5F5F5F5F5F5F5F5F5F5F5F5F5F5F5F5F5F5F5F5F5F5F5F5F5F5F5F5F5F5F5F5F5F5F5F5F5F5F5F5F5F5F5F5F5F5F5F5F5F5F5F5F5F5F5F5F5F5F5F5F5
310
F5F5F5F5F5F5F5F5F5F5F5F5F5F5F5F5E2F5F5F5F5F5F5F5F5F5F5F5F5F5F5F5F5E2F5F5F5E2E2EFF5F5F5E2F5F5F5F5F5F5F5F5F5F5F5F5F5F5F5F5E2F5F5F5F5F5F5F5F5F5F5F5F5F5F5F5F5F5F5F5F5F5F5F5F5F5F5F5F5F5F5F5F5F5F5F5F5F5F5F5F5F5F5F5F5F5F5F5F5F5F5F5F5F5F5F5F5F5F5F5F5F5F5F5F5F5F5
310
F5F5F5F5F5F5F5F5F5F5F5F5F5F5F5F5F5F5F5F5F5F5F5F5F5F5F5F5F5F5F5F5F5F5F5F5F5F5F5F5F5F5F5F5F5F5F5F5F5F5F5F5F5F5F5F5F5F5F5F5F5F5F5F5F5F5F5F5F5E2F5F5F5F5F5F5F5F5F5F5F5F5F5F5F5F5E2F5F5F5E2E2EFF5F5F5E2F5F5F5F5F5F5F5F5F5F5F5F5F5F5F5F5E2F5F5F5F5F5F5F5F5F5F5F5F5F5
310
F5F5F5F5F5F5F5F5F5F5F5F5F5F5F5F5F5F5F5F5F5F5F5F5F5F5F5F5F5F5F5F5F5F5F5F5F5F5F5F5F5F5F5F5F5F5F5F5F5F5F5F5F5F5F5F5F5F5F5F5F5F5F5F5F5F5F5F5F5F5F5F5F5F5F5F5F5F5F5F5F5F5F5F5F5F5F5F5F5F5F5F5F5F5F5F5F5F5F5F5F5F5F5F5F5F5F5F5F5F5F5F5F5F5F5F5F5F5F5F5F5F5E2F5F5F5F5
310
F5F5F5F5F5F5F5F5F5F5F5F5E2F5F5F5E2E2EFF5F5F5E2F5F5F5F5F5F5F5F5F5F5F5F5F5F5F5F5E2F5F5F5F5F5F5F5F5F5F5F5F5F5F5F5F5F5F5F5F5F5F5F5F5F5F5F5F5F5F5F5F5F5F5F5F5F5F5F5F5F5F5F5F5F5F5F5F5F5F5F5F5F5F5F5F5F5F5F5F5F5F5F5F5F5F5F5F5F5F5F5F5F5F5F5F5F5F5F5F5F5F5F5F5F5F5F5
310
F5F5F5F5F5F5F5F5F5F5F5F5F5F5F5F5F5F5F5F5F5F5F5F5F5F5F5F5F5F5F5F5F5F5F5F5F5F5F5F5F5F5F5F5F5F5F5F5E2F5F5F5F5F5F5F5F5F5F5F5F5F5F5F5F5E2F5F5F5E2E2EFF5F5F5E2F5F5F5F5F5F5F5F5F5F5F5F5F5F5F5F5E2F5F5F5F5F5F5F5F5F5F5F5F5F5F5F5F5F5F5F5F5F5F5F5F5F5F5F5F5F5F5F5F5F5F5
310
F5F5F5F5F5F5F5F5F5F5F5F5F5F5F5F5F5F5F5F5F5F5F5F5F5F5F5F5F5F5F5F5F5F5F5F5F5F5F5F5F5F5F5F5F5F5F5F5F5F5F5F5F5F5F5F5F5F5F5F5F5F5F5F5F5F5F5F5F5F5F5F5F5F5F5F5F5F5F5F5F5F5F5F5F5F5F5F5F5F5F5F5F5F5F5F5F5F5F5F5F5E2F5F5F5F5F5F5F5F5F5F5F5F5F5F5F5F5E2F5F5F5E2E2EFF5F5
310
F5E2F5F5F5F5F5F5F5F5F5F5F5F5F5F5F5F5E2F5F5F5F5F5F5F5F5F5F5F5F5F5F5F5F5F5F5F5F5F5F5F5F5F5F5F5F5F5F5F5F5F5F5F5F5F5F5F5F5F5F5F5F5F5F5F5F5F5F5F5F5F5F5F5F5F5F5F5F5F5F5F5F5F5F5F5F5F5F5F5F5F5F5F5F5F5F5F5F5F5F5F5F5F5F5F5F5F5F5F5F5F5F5F5F5F5F5F5F5F5F5F5F5F5F5F5F5
310
F5F5F5F5F5F5F5F5F5F5F5F5F5F5F5F5F5F5F5F5F5F5F5F5F5F5F5E2F5F5F5F5F5F5F5F5F5F5F5F5F5F5F5F5E2F5F5F5E2E2EFF5F5F5E2F5F5F5F5F5F5F5F5F5F5F5F5F5F5F5F5E2F5F5F5F5F5F5F5F5F5F5F5F5F5F5F5F5F5F5F5F5F5F5F5F5F5F5F5F5F5F5F5F5F5F5F5F5F5F5F5F5F5F5F5F5F5F5F5F5F5F5F5F5F5F5F5
310
F5F5F5F5F5F5F5F5F5F5F5F5F5F5F5F5F5F5F5F5F5F5F5F5F5F5F5F5F5F5F5F5F5F5F5F5F5F5F5F5F5F5F5F5F5F5F5F5F5F5F5F5F5F5F5F5F5F5F5F5F5F5F5F5F5F5F5F5F5F5F5F5F5F5F5F5F5F5F5F5E2F5F5F5F5F5F5F5F5F5F5F5F5F5F5F5F5E2F5F5F5E2E2EFF5F5F5E2F5F5F5F5F5F5F5F5F5F5F5F5F5F5F5F5E2F5F5
310
F5F5F5F5F5F5F5F5F5F5F5F5F5F5F5F5F5F5F5F5F5F5F5F5F5F5F5F5F5F5F5F5F5F5F5F5F5F5F5F5F5F5F5F5F5F5F5F5F5F5F5F5F5F5F5F5F5F5F5F5F5F5F5F5F5F5F5F5F5F5F5F5F5F5F5F5F5F5F5F5F5F5F5F5F5F5F5F5F5F5F5F5F5F5F5F5F5F5F5F5F5F5F5F5F5F5F5F5F5F5F5F5F5F5F5F5F5F5F5F5F5F5F5F5F5F5F5
310
F5F5F5F5F5F5E2F5F5F5F5F5F5F5F5F5F5F5F5F5F5F5F5E2F5F5F5E2E2EFF5F5F5E2F5F5F5F5F5F5F5F5F5F5F5F5F5F5F5F5E2F5F5F5F5F5F5F5F5F5F5F5F5F5F5F5F5F5F5F5F5F5F5F5F5F5F5F5F5F5F5F5F5F5F5F5F5F5F5F5F5F5F5F5F5F5F5F5F5F5F5F5F5F5F5F5F5F5F5F5F5F5F5F5F5F5F5F5F5F5F5F5F5F5F5F5F5
310
F5F5F5F5F5F5F5F5F5F5F5F5F5F5F5F5F5F5F5F5F5F5F5F5F5F5F5F5F5F5F5F5F5F5F5F5F5F5F5F5F5F5F5F5F5F5F5F5F5F5F5F5F5F5F5F5F5F5F5E2F5F5F5F5F5F5F5F5F5F5F5F5F5F5F5F5E2F5F5F5E2E2EFF5F5F5F5F5F5F5F5F5F5F5F5F5F5F5F5F5F5F5F5E2F5F5F5F5F5F5F5F5F5F5F5F5F5F5F5F5F5F5F5F5F5F5F5
310
F5F5F5F5F5F5F5F5F5F5F5F5F5F5F5F5F5F5F5F5F5F5F5F5F5F5F5F5F5F5F5F5F5F5F5F5F5F5F5F5F5F5F5F5F5F5F5F5F5F5F5F5F5F5F5F5F5F5F5F5F5F5F5F5F5F5F5F5F5F5F5F5F5F5F5F5F5F5F5F5F5F5F5F5F5F5F5F5F5F5F5F5F5F5F5F5F5F5F5F5F5F5F5F5F5F5F5F5F5F5F5F5E2F5F5F5F5F5F5F5F5F5F5F5F5F5F5
310
F5F5F5F5F5F5E2E2EFF5F5F5F5F5F5F5F5F5F5F5F5F5F5F5F5F5F5F5F5E2F5F5F5F5F5F5F5F5F5F5F5F5F5F5F5F5F5F5F5F5F5F5F5F5F5F5F5F5F5F5F5F5F5F5F5F5F5F5F5F5F5F5F5F5F5F5F5F5F5F5F5F5F5F5F5F5F5F5F5F5F5F5F5F5F5F5F5F5F5F5F5F5F5F5F5F5F5F5F5F5F5F5F5F5F5F5F5F5F5F5F5F5F5F5F5F5F5
310
F5F5F5F5F5F5F5F5F5F5F5F5F5F5F5F5F5F5F5F5F5F5F5F5F5F5F5F5F5F5F5F5F5F5F5F5F5F5E2F5F5F5F5F5F5F5F5F5F5F5F5F5F5F5F5F5F5F5F5E2E2EFF5F5F5F5F5F5F5F5F5F5F5F5F5F5F5F5F5F5F5F5E2F5F5F5F5F5F5F5F5F5F5F5F5F5F5F5F5F5F5F5F5F5F5F5F5F5F5F5F5F5F5F5F5F5F5F5F5F5F5F5F5F5F5F5F5
310
F5F5F5F5F5F5F5F5F5F5F5F5F5F5F5F5F5F5F5F5F5F5F5F5F5F5F5F5F5F5F5F5F5F5F5F5F5F5F5F5F5F5F5F5F5F5F5F5F5F5F5F5F5F5F5F5F5F5F5F5F5F5F5F5F5F5F5F5F5F5F5F5F5F5F5F5F5F5F5F5F5F5F5F5F5F5F5F5F5F5F5E2F5F5F5F5F5F5F5F5F5F5F5F5F5F5F5F5F5F5F5F5E2E2EFF5F5F5F5F5F5F5F5F5F5F5F5
310
F5F5F5F5F5F5F5F5E2F5F5F5F5F5F5F5F5F5F5F5F5F5F5F5F5F5F5F5F5F5F5F5F5F5F5F5F5F5F5F5F5F5F5F5F5F5F5F5F5F5F5F5F5F5F5F5F5F5F5F5F5F5F5F5F5F5F5F5F5F5F5F5F5F5F5F5F5F5F5F5F5F5F5F5F5F5F5F5F5F5F5F5F5F5F5F5F5F5F5F5F5F5F5F5F5F5F5F5F5F5F5F5F5F5F5F5F5F5F5F5F5F5F5F5F5F5F5
310
F5F5F5F5F5F5F5F5F5F5F5F5F5F5F5F5F5E2F5F5F5F5F5F5F5F5F5F5F5F5F5F5F5F5F5F5F5F5E2E2EFF5F5F5F5F5F5F5F5F5F5F5F5F5F5F5F5F5F5F5F5E2F5F5F5F5F5F5F5F5F5F5F5F5F5F5F5F5F5F5F5F5F5F5F5F5F5F5F5F5F5F5F5F5F5F5F5F5F5F5F5F5F5F5F5F5F5F5F5F5F5F5F5F5F5F5F5F5F5F5F5F5F5F5F5F5F5
310
F5F5F5F5F5F5F5F5F5F5F5F5F5F5F5F5F5F5F5F5F5F5F5F5F5F5F5F5F5F5F5F5F5F5F5F5F5F5F5F5F5F5F5F5F5F5F5F5F5F5F5F5F5F5F5F5F5F5F5F5F5F5F5F5F5F5F5F5F5F5E2F5F5F5F5F5F5F5F5F5F5F5F5F5F5F5F5F5F5F5F5E2E2EFF5F5F5F5F5F5F5F5F5F5F5F5F5F5F5F5F5F5F5F5E2F5F5F5F5F5F5F5F5F5F5F5F5
310
F5F5F5F5F5F5F5F5F5F5F5F5F5F5F5F5F5F5F5F5F5F5F5F5F5F5F5F5F5F5F5F5F5F5F5F5F5F5F5F5F5F5F5F5F5F5F5F5F5F5F5F5F5F5F5F5F5F5F5F5F5F5F5F5F5F5F5F5F5F5F5F5F5F5F5F5F5F5F5F5F5F5F5F5F5F5F5F5F5F5F5F5F5F5F5F5F5F5F5F5F5F5F5F5F5F5F5F5F5F5F5F5F5F5F5F5F5F5F5F5F5F5F5E2F5F5F5
310
F5F5F5F5F5F5F5F5F5F5F5F5F5F5F5F5F5E2E2EFF5F5F5F5F5F5F5F5F5F5F5F5F5F5F5F5F5F5F5F5E2F5F5F5F5F5F5F5F5F5F5F5F5F5F5F5F5F5F5F5F5F5F5F5F5F5F5F5F5F5F5F5F5F5F5F5F5F5F5F5F5F5F5F5F5F5F5F5F5F5F5F5F5F5F5F5F5F5F5F5F5F5F5F5F5F5F5F5F5F5F5F5F5F5F5F5F5F5F5F5F5F5F5F5F5F5F5
310
F5F5F5F5F5F5F5F5F5F5F5F5F5F5F5F5F5F5F5F5F5F5F5F5F5F5F5F5F5F5F5F5F5F5F5F5F5F5F5F5F5F5F5F5F5F5F5F5F5E2F5F5F5F5F5F5F5F5F5F5F5F5F5F5F5F5F5F5F5F5E2E2EFF5F5F5F5F5F5F5F5F5F5F5F5F5F5F5F5F5F5F5F5E2F5F5F5F5F5F5F5F5F5F5F5F5F5F5F5F5F5F5F5F5F5F5F5F5F5F5F5F5F5F5F5F5F5
310
F5F5F5F5F5F5F5F5F5F5F5F5F5F5F5F5F5F5F5F5F5F5F5F5F5F5F5F5F5F5F5F5F5F5F5F5F5F5F5F5F5F5F5F5F5F5F5F5F5F5F5F5F5F5F5F5F5F5F5F5F5F5F5F5F5F5F5F5F5F5F5F5F5F5F5F5F5F5F5F5F5F5F5F5F5F5F5F5F5F5F5F5F5F5F5F5F5F5F5F5F5F5E2F5F5F5F5F5F5F5F5F5F5F5F5F5F5F5F5F5F5F5F5E2E2EFF5
310
F5F5F5F5F5F5F5F5F5F5F5F5F5F5F5F5F5F5F5E2F5F5F5F5F5F5F5F5F5F5F5F5F5F5F5F5F5F5F5F5F5F5F5F5F5F5F5F5F5F5F5F5F5F5F5F5F5F5F5F5F5F5F5F5F5F5F5F5F5F5F5F5F5F5F5F5F5F5F5F5F5F5F5F5F5F5F5F5F5F5F5F5F5F5F5F5F5F5F5F5F5F5F5F5F5F5F5F5F5F5F5F5F5F5F5F5F5F5F5F5F5F5F5F5F5F5F5
310
F5F5F5F5F5F5F5F5F5F5F5F5F5F5F5F5F5F5F5F5F5F5F5F5F5F5F5F5E2F5F5F5F5F5F5F5F5F5F5F5F5F5F5F5F5F5F5F5F5E2E2EFF5F5F5E2F5F5F5F5F5F5F5F5F5F5F5F5F5F5F5F5E2F5F5F5F5F5F5F5F5F5F5F5F5F5F5F5F5F5F5F5F5F5F5F5F5F5F5F5F5F5F5F5F5F5F5F5F5F5F5F5F5F5F5F5F5F5F5F5F5F5F5F5F5F5F5
310
F5F5F5F5F5F5F5F5F5F5F5F5F5F5F5F5F5F5F5F5F5F5F5F5F5F5F5F5F5F5F5F5F5F5F5F5F5F5F5F5F5F5F5F5F5F5F5F5F5F5F5F5F5F5F5F5F5F5F5F5F5F5F5F5F5F5F5F5F5F5F5F5F5F5F5F5F5F5F5F5F5E2F5F5F5F5F5F5F5F5F5F5F5F5F5F5F5F5E2F5F5F5E2E2EFF5F5F5E2F5F5F5F5F5F5F5F5F5F5F5F5F5F5F5F5E2F5
310
F5F5F5F5F5F5F5F5F5F5F5F5F5F5F5F5F5F5F5F5F5F5F5F5F5F5F5F5F5F5F5F5F5F5F5F5F5F5F5F5F5F5F5F5F5F5F5F5F5F5F5F5F5F5F5F5F5F5F5F5F5F5F5F5F5F5F5F5F5F5F5F5F5F5F5F5F5F5F5F5F5F5F5F5F5F5F5F5F5F5F5F5F5F5F5F5F5F5F5F5F5F5F5F5F5F5F5F5F5F5F5F5F5F5F5F5F5F5F5F5F5F5F5F5F5F5F5
310
F5F5F5F5F5F5F5E2F5F5F5F5F5F5F5F5F5F5F5F5F5F5F5F5E2F5F5F5E2E2EFF5F5F5E2F5F5F5F5F5F5F5F5F5F5F5F5F5F5F5F5E2F5F5F5F5F5F5F5F5F5F5F5F5F5F5F5F5F5F5F5F5F5F5F5F5F5F5F5F5F5F5F5F5F5F5F5F5F5F5F5F5F5F5F5F5F5F5F5F5F5F5F5F5F5F5F5F5F5F5F5F5F5F5F5F5F5F5F5F5F5F5F5F5F5F5F5
310
F5F5F5F5F5F5F5F5F5F5F5F5F5F5F5F5F5F5F5F5F5F5F5F5F5F5F5F5F5F5F5F5F5F5F5F5F5F5F5F5F5F5F5F5F5F5F5F5F5F5F5F5F5F5F5F5F5F5F5F5E2F5F5F5F5F5F5F5F5F5F5F5F5F5F5F5F5E2F5F5F5E2E2EFF5F5F5E2F5F5F5F5F5F5F5F5F5F5F5F5F5F5F5F5E2F5F5F5F5F5F5F5F5F5F5F5F5F5F5F5F5F5F5F5F5F5F5
310
F5F5F5F5F5F5F5F5F5F5F5F5F5F5F5F5F5F5F5F5F5F5F5F5F5F5F5F5F5F5F5F5F5F5F5F5F5F5F5F5F5F5F5F5F5F5F5F5F5F5F5F5F5F5F5F5F5F5F5F5F5F5F5F5F5F5F5F5F5F5F5F5F5F5F5F5F5F5F5F5F5F5F5F5F5F5F5F5F5F5F5F5F5F5F5F5F5F5F5F5F5F5F5F5F5F5F5F5F5F5F5F5F5E2F5F5F5F5F5F5F5F5F5F5F5F5F5
310
F5F5F5E2F5F5F5E2E2EFF5F5F5E2F5F5F5F5F5F5F5F5F5F5F5F5F5F5F5F5E2F5F5F5F5F5F5F5F5F5F5F5F5F5F5F5F5F5F5F5F5F5F5F5F5F5F5F5F5F5F5F5F5F5F5F5F5F5F5F5F5F5F5F5F5F5F5F5F5F5F5F5F5F5F5F5F5F5F5F5F5F5F5F5F5F5F5F5F5F5F5F5F5F5F5F5F5F5F5F5F5F5F5F5F5F5F5F5F5F5F5F5F5F5F5F5F5
310
F5F5F5F5F5F5F5F5F5F5F5F5F5F5F5F5F5F5F5F5F5F5F5F5F5F5F5F5F5F5F5F5F5F5F5F5F5F5F5E2F5F5F5F5F5F5F5F5F5F5F5F5F5F5F5F5E2F5F5F5E2E2EFF5F5F5E2F5F5F5F5F5F5F5F5F5F5F5F5F5F5F5F5E2F5F5F5F5F5F5F5F5F5F5F5F5F5F5F5F5F5F5F5F5F5F5F5F5F5F5F5F5F5F5F5F5F5F5F5F5F5F5F5F5F5F5F5
310
F5F5F5F5F5F5F5F5F5F5F5F5F5F5F5F5F5F5F5F5F5F5F5F5F5F5F5F5F5F5F5F5F5F5F5F5F5F5F5F5F5F5F5F5F5F5F5F5F5F5F5F5F5F5F5F5F5F5F5F5F5F5F5F5F5F5F5F5F5F5F5F5F5F5F5F5F5F5F5F5F5F5F5F5F5F5F5F5F5F5F5F5E2F5F5F5F5F5F5F5F5F5F5F5F5F5F5F5F5E2F5F5F5E2E2EFF5F5F5E2F5F5F5F5F5F5F5
310
F5F5F5F5F5F5F5F5F5E2F5F5F5F5F5F5F5F5F5F5F5F5F5F5F5F5F5F5F5F5F5F5F5F5F5F5F5F5F5F5F5F5F5F5F5F5F5F5F5F5F5F5F5F5F5F5F5F5F5F5F5F5F5F5F5F5F5F5F5F5F5F5F5F5F5F5F5F5F5F5F5F5F5F5F5F5F5F5F5F5F5F5F5F5F5F5F5F5F5F5F5F5F5F5F5F5F5F5F5F5F5F5F5F5F5F5F5F5F5F5F5F5F5F5F5F5F5
310
F5F5F5F5F5F5F5F5F5F5F5F5F5F5F5F5F5F5E2F5F5F5F5F5F5F5F5F5F5F5F5F5F5F5F5E2F5F5F5E2E2EFF5F5F5E2F5F5F5F5F5F5F5F5F5F5F5F5F5F5F5F5E2F5F5F5F5F5F5F5F5F5F5F5F5F5F5F5F5F5F5F5F5F5F5F5F5F5F5F5F5F5F5F5F5F5F5F5F5F5F5F5F5F5F5F5F5F5F5F5F5F5F5F5F5F5F5F5F5F5F5F5F5F5F5F5F5
310
F5F5F5F5F5F5F5F5F5F5F5F5F5F5F5F5F5F5F5F5F5F5F5F5F5F5F5F5F5F5F5F5F5F5F5F5F5F5F5F5F5F5F5F5F5F5F5F5F5F5F5F5F5F5F5F5F5F5F5F5F5F5F5F5F5F5F5F5F5F5F5E2F5F5F5F5F5F5F5F5F5F5F5F5F5F5F5F5E2F5F5F5E2E2EFF5F5F5E2F5F5F5F5F5F5F5F5F5F5F5F5F5F5F5F5E2F5F5F5F5F5F5F5F5F5F5F5
310
F5F5F5F5F5F5F5F5F5F5F5F5F5F5F5F5F5F5F5F5F5F5F5F5F5F5F5F5F5F5F5F5F5F5F5F5F5F5F5F5F5F5F5F5F5F5F5F5F5F5F5F5F5F5F5F5F5F5F5F5F5F5F5F5F5F5F5F5F5F5F5F5F5F5F5F5F5F5F5F5F5F5F5F5F5F5F5F5F5F5F5F5F5F5F5F5F5F5F5F5F5F5F5F5F5F5F5F5F5F5F5F5F5F5F5F5F5F5F5F5F5F5F5F5E2F5F5
310
F5F5F5F5F5F5F5F5F5F5F5F5F5F5E2F5F5F5E2E2EFF5F5F5E2F5F5F5F5F5F5F5F5F5F5F5F5F5F5F5F5E2F5F5F5F5F5F5F5F5F5F5F5F5F5F5F5F5F5F5F5F5F5F5F5F5F5F5F5F5F5F5F5F5F5F5F5F5F5F5F5F5F5F5F5F5F5F5F5F5F5F5F5F5F5F5F5F5F5F5F5F5F5F5F5F5F5F5F5F5F5F5F5F5F5F5F5F5F5F5F5F5F5F5F5F5F5
310
F5F5F5F5F5F5F5F5F5F5F5F5F5F5F5F5F5F5F5F5F5F5F5F5F5F5F5F5F5F5F5F5F5F5F5F5F5F5F5F5F5F5F5F5F5F5F5F5F5F5E2F5F5F5F5F5F5F5F5F5F5F5F5F5F5F5F5E2F5F5F5E2E2EFF5F5F5E2F5F5F5F5F5F5F5F5F5F5F5F5F5F5F5F5E2F5F5F5F5F5F5F5F5F5F5F5F5F5F5F5F5F5F5F5F5F5F5F5F5F5F5F5F5F5F5F5F5
310
F5F5F5F5F5F5F5F5F5F5F5F5F5F5F5F5F5F5F5F5F5F5F5F5F5F5F5F5F5F5F5F5F5F5F5F5F5F5F5F5F5F5F5F5F5F5F5F5F5F5F5F5F5F5F5F5F5F5F5F5F5F5F5F5F5F5F5F5F5F5F5F5F5F5F5F5F5F5F5F5F5F5F5F5F5F5F5F5F5F5F5F5F5F5F5F5F5F5F5F5F5F5F5E2F5F5F5F5F5F5F5F5F5F5F5F5F5F5F5F5E2F5F5F5E2E2EF
310
F5F5F5E2F5F5F5F5F5F5F5F5F5F5F5F5F5F5F5F5E2F5F5F5F5F5F5F5F5F5F5F5F5F5F5F5F5F5F5F5F5F5F5F5F5F5F5F5F5F5F5F5F5F5F5F5F5F5F5F5F5F5F5F5F5F5F5F5F5F5F5F5F5F5F5F5F5F5F5F5F5F5F5F5F5F5F5F5F5F5F5F5F5F5F5F5F5F5F5F5F5F5F5F5F5F5F5F5F5F5F5F5F5F5F5F5F5F5F5F5F5F5F5F5F5F5F5
310
F5F5F5F5F5F5F5F5F5F5F5F5F5F5F5F5F5F5F5F5F5F5F5F5F5F5F5F5F5E2F5F5F5F5F5F5F5F5F5F5F5F5F5F5F5F5E2F5F5F5E2E2EFF5F5F5E2F5F5F5F5F5F5F5F5F5F5F5F5F5F5F5F5E2F5F5F5F5F5F5F5F5F5F5F5F5F5F5F5F5F5F5F5F5F5F5F5F5F5F5F5F5F5F5F5F5F5F5F5F5F5F5F5F5F5F5F5F5F5F5F5F5F5F5F5F5F5
310
F5F5F5F5F5F5F5F5F5F5F5F5F5F5F5F5F5F5F5F5F5F5F5F5F5F5F5F5F5F5F5F5F5F5F5F5F5F5F5F5F5F5F5F5F5F5F5F5F5F5F5F5F5F5F5F5F5F5F5F5F5F5F5F5F5F5F5F5F5F5F5F5F5F5F5F5F5F5F5F5F5F5E2F5F5F5F5F5F5F5F5F5F5F5F5F5F5F5F5E2F5F5F5E2E2EFF5F5F5E2F5F5F5F5F5F5F5F5F5F5F5F5F5F5F5F5E2
310
F5F5F5F5F5F5F5F5F5F5F5F5F5F5F5F5F5F5F5F5F5F5F5F5F5F5F5F5F5F5F5F5F5F5F5F5F5F5F5F5F5F5F5F5F5F5F5F5F5F5F5F5F5F5F5F5F5F5F5F5F5F5F5F5F5F5F5F5F5F5F5F5F5F5F5F5F5F5F5F5F5F5F5F5F5F5F5F5F5F5F5F5F5F5F5F5F5F5F5F5F5F5F5F5F5F5F5F5F5F5F5F5F5F5F5F5F5F5F5F5F5F5F5F5F5F5F5
310
F5F5F5F5F5F5F5F5E2F5F5F5F5F5F5F5F5F5F5F5F5F5F5F5F5E2F5F5F5E2E2EFF5F5F5E2F5F5F5F5F5F5F5F5F5F5F5F5F5F5F5F5E2F5F5F5F5F5F5F5F5F5F5F5F5F5F5F5F5F5F5F5F5F5F5F5F5F5F5F5F5F5F5F5F5F5F5F5F5F5F5F5F5F5F5F5F5F5F5F5F5F5F5F5F5F5F5F5F5F5F5F5F5F5F5F5F5F5F5F5F5F5F5F5F5F5F5
310
F5F5F5F5F5F5F5F5F5F5F5F5F5F5F5F5F5F5F5F5F5F5F5F5F5F5F5F5F5F5F5F5F5F5F5F5F5F5F5F5F5F5F5F5F5F5F5F5F5F5F5F5F5F5F5F5F5F5F5F5F5E2F5F5F5F5F5F5F5F5F5F5F5F5F5F5F5F5E2F5F5F5E2E2EFF5F5F5E2F5F5F5F5F5F5F5F5F5F5F5F5F5F5F5F5E2F5F5F5F5F5F5F5F5F5F5F5F5F5F5F5F5F5F5F5F5F5
310
F5F5F5F5F5F5F5F5F5F5F5F5F5F5F5F5F5F5F5F5F5F5F5F5F5F5F5F5F5F5F5F5F5F5F5F5F5F5F5F5F5F5F5F5F5F5F5F5F5F5F5F5F5F5F5F5F5F5F5F5F5F5F5F5F5F5F5F5F5F5F5F5F5F5F5F5F5F5F5F5F5F5F5F5F5F5F5F5F5F5F5F5F5F5F5F5F5F5F5F5F5F5F5F5F5F5F5F5F5F5F5F5F5F5E2F5F5F5F5F5F5F5F5F5F5F5F5
310
F5F5F5F5E2F5F5F5E2E2EFF5F5F5E2F5F5F5F5F5F5F5F5F5F5F5F5F5F5F5F5E2F5F5F5F5F5F5F5F5F5F5F5F5F5F5F5F5F5F5F5F5F5F5F5F5F5F5F5F5F5F5F5F5F5F5F5F5F5F5F5F5F5F5F5F5F5F5F5F5F5F5F5F5F5F5F5F5F5F5F5F5F5F5F5F5F5F5F5F5F5F5F5F5F5F5F5F5F5F5F5F5F5F5F5F5F5F5F5F5F5F5F5F5F5F5F5
310
F5F5F5F5F5F5F5F5F5F5F5F5F5F5F5F5F5F5F5F5F5F5F5F5F5F5F5F5F5F5F5F5F5F5F5F5F5F5F5F5E2F5F5F5F5F5F5F5F5F5F5F5F5F5F5F5F5E2F5F5F5E2E2EFF5F5F5F5F5F5F5F5F5F5F5F5F5F5F5F5F5F5F5F5E2F5F5F5F5F5F5F5F5F5F5F5F5F5F5F5F5F5F5F5F5F5F5F5F5F5F5F5F5F5F5F5F5F5F5F5F5F5F5F5F5F5F5
310
F5F5F5F5F5F5F5F5F5F5F5F5F5F5F5F5F5F5F5F5F5F5F5F5F5F5F5F5F5F5F5F5F5F5F5F5F5F5F5F5F5F5F5F5F5F5F5F5F5F5F5F5F5F5F5F5F5F5F5F5F5F5F5F5F5F5F5F5F5F5F5F5F5F5F5F5F5F5F5F5F5F5F5F5F5F5F5F5F5F5F5F5F5E2F5F5F5F5F5F5F5F5F5F5F5F5F5F5F5F5F5F5F5F5E2E2EFF5F5F5F5F5F5F5F5F5F5
310
F5F5F5F5F5F5F5F5F5F5E2F5F5F5F5F5F5F5F5F5F5F5F5F5F5F5F5F5F5F5F5F5F5F5F5F5F5F5F5F5F5F5F5F5F5F5F5F5F5F5F5F5F5F5F5F5F5F5F5F5F5F5F5F5F5F5F5F5F5F5F5F5F5F5F5F5F5F5F5F5F5F5F5F5F5F5F5F5F5F5F5F5F5F5F5F5F5F5F5F5F5F5F5F5F5F5F5F5F5F5F5F5F5F5F5F5F5F5F5F5F5F5F5F5F5F5F5
310
F5F5F5F5F5F5F5F5F5F5F5F5F5F5F5F5F5F5F5E2F5F5F5F5F5F5F5F5F5F5F5F5F5F5F5F5F5F5F5F5E2E2EFF5F5F5F5F5F5F5F5F5F5F5F5F5F5F5F5F5F5F5F5E2F5F5F5F5F5F5F5F5F5F5F5F5F5F5F5F5F5F5F5F5F5F5F5F5F5F5F5F5F5F5F5F5F5F5F5F5F5F5F5F5F5F5F5F5F5F5F5F5F5F5F5F5F5F5F5F5F5F5F5F5F5F5F5
310
F5F5F5F5F5F5F5F5F5F5F5F5F5F5F5F5F5F5F5F5F5F5F5F5F5F5F5F5F5F5F5F5F5F5F5F5F5F5F5F5F5F5F5F5F5F5F5F5F5F5F5F5F5F5F5F5F5F5F5F5F5F5F5F5F5F5F5F5F5F5F5F5E2F5F5F5F5F5F5F5F5F5F5F5F5F5F5F5F5F5F5F5F5E2E2EFF5F5F5F5F5F5F5F5F5F5F5F5F5F5F5F5F5F5F5F5E2F5F5F5F5F5F5F5F5F5F5
310
F5F5F5F5F5F5F5F5F5F5F5F5F5F5F5F5F5F5F5F5F5F5F5F5F5F5F5F5F5F5F5F5F5F5F5F5F5F5F5F5F5F5F5F5F5F5F5F5F5F5F5F5F5F5F5F5F5F5F5F5F5F5F5F5F5F5F5F5F5F5F5F5F5F5F5F5F5F5F5F5F5F5F5F5F5F5F5F5F5F5F5F5F5F5F5F5F5F5F5F5F5F5F5F5F5F5F5F5F5F5F5F5F5F5F5F5F5F5F5F5F5F5F5F5F5E2F5
310
F5F5F5F5F5F5F5F5F5F5F5F5F5F5F5F5F5F5F5E2E2EFF5F5F5F5F5F5F5F5F5F5F5F5F5F5F5F5F5F5F5F5E2F5F5F5F5F5F5F5F5F5F5F5F5F5F5F5F5F5F5F5F5F5F5F5F5F5F5F5F5F5F5F5F5F5F5F5F5F5F5F5F5F5F5F5F5F5F5F5F5F5F5F5F5F5F5F5F5F5F5F5F5F5F5F5F5F5F5F5F5F5F5F5F5F5F5F5F5F5F5F5F5F5F5F5F5
310
F5F5F5F5F5F5F5F5F5F5F5F5F5F5F5F5F5F5F5F5F5F5F5F5F5F5F5F5F5F5F5F5F5F5F5F5F5F5F5F5F5F5F5F5F5F5F5F5F5F5F5E2F5F5F5F5F5F5F5F5F5F5F5F5F5F5F5F5F5F5F5F5E2E2EFF5F5F5F5F5F5F5F5F5F5F5F5F5F5F5F5F5F5F5F5E2F5F5F5F5F5F5F5F5F5F5F5F5F5F5F5F5F5F5F5F5F5F5F5F5F5F5F5F5F5F5F5
310
F5F5F5F5F5F5F5F5F5F5F5F5F5F5F5F5F5F5F5F5F5F5F5F5F5F5F5F5F5F5F5F5F5F5F5F5F5F5F5F5F5F5F5F5F5F5F5F5F5F5F5F5F5F5F5F5F5F5F5F5F5F5F5F5F5F5F5F5F5F5F5F5F5F5F5F5F5F5F5F5F5F5F5F5F5F5F5F5F5F5F5F5F5F5F5F5F5F5F5F5F5F5F5F5E2F5F5F5F5F5F5F5F5F5F5F5F5F5F5F5F5F5F5F5F5E2E2
310
EFF5F5F5F5F5F5F5F5F5F5F5F5F5F5F5F5F5F5F5F5E2F5F5F5F5F5F5F5F5F5F5F5F5F5F5F5F5F5F5F5F5F5F5F5F5F5F5F5F5F5F5F5F5F5F5F5F5F5F5F5F5F5F5F5F5F5F5F5F5F5F5F5F5F5F5F5F5F5F5F5F5F5F5F5F5F5F5F5F5F5F5F5F5F5F5F5F5F5F5F5F5F5F5F5F5F5F5F5F5F5F5F5F5F5F5F5F5F5F5F5F5F5F5F5F5F5
310
F5F5F5F5F5F5F5F5F5F5F5F5F5F5F5F5F5F5F5F5F5F5F5F5F5F5F5F5F5F5E2F5F5F5F5F5F5F5F5F5F5F5F5F5F5F5F5F5F5F5F5E2E2EFF5F5F5F5F5F5F5F5F5F5F5F5F5F5F5F5F5F5F5F5E2F5F5F5F5F5F5F5F5F5F5F5F5F5F5F5F5F5F5F5F5F5F5F5F5F5F5F5F5F5F5F5F5F5F5F5F5F5F5F5F5F5F5F5F5F5F5F5F5F5F5F5F5
310
F5F5F5F5F5F5F5F5F5F5F5F5F5F5F5F5F5F5F5F5F5F5F5F5F5F5F5F5F5F5F5F5F5F5F5F5F5F5F5F5F5F5F5F5F5F5F5F5F5F5F5F5F5F5F5F5F5F5F5F5F5F5F5F5F5F5F5F5F5F5F5F5F5F5F5F5F5F5F5F5F5F5F5E2F5F5F5F5F5F5F5F5F5F5F5F5F5F5F5F5F5F5F5F5E2E2EFF5F5F5F5F5F5F5F5F5F5F5F5F5F5F5F5F5F5F5F5
310
E2F5F5F5F5F5F5F5F5F5F5F5F5F5F5F5F5F5F5F5F5F5F5F5F5F5F5F5F5F5F5F5F5F5F5F5F5F5F5F5F5F5F5F5F5F5F5F5F5F5F5F5F5F5F5F5F5F5F5F5F5F5F5F5F5F5F5F5F5F5F5F5F5F5F5F5F5F5F5F5F5F5F5F5F5F5F5F5F5F5F5F5F5F5F5F5F5F5F5F5F5F5F5F5F5F5F5F5F5F5F5F5F5F5F5F5F5F5F5F5F5F5F5F5F5F5F5
310
F5F5F5F5F5F5F5F5F5E2F5F5F5F5F5F5F5F5F5F5F5F5F5F5F5F5F5F5F5F5E2E2EFF5F5F5E2F5F5F5F5F5F5F5F5F5F5F5F5F5F5F5F5E2F5F5F5F5F5F5F5F5F5F5F5F5F5F5F5F5F5F5F5F5F5F5F5F5F5F5F5F5F5F5F5F5F5F5F5F5F5F5F5F5F5F5F5F5F5F5F5F5F5F5F5F5F5F5F5F5F5F5F5F5F5F5F5F5F5F5F5F5F5F5F5F5F5
310
F5F5F5F5F5F5F5F5F5F5F5F5F5F5F5F5F5F5F5F5F5F5F5F5F5F5F5F5F5F5F5F5F5F5F5F5F5F5F5F5F5F5F5F5F5F5F5F5F5F5F5F5F5F5F5F5F5F5F5F5F5F5E2F5F5F5F5F5F5F5F5F5F5F5F5F5F5F5F5E2F5F5F5E2E2EFF5F5F5E2F5F5F5F5F5F5F5F5F5F5F5F5F5F5F5F5E2F5F5F5F5F5F5F5F5F5F5F5F5F5F5F5F5F5F5F5F5
310
F5F5F5F5F5F5F5F5F5F5F5F5F5F5F5F5F5F5F5F5F5F5F5F5F5F5F5F5F5F5F5F5F5F5F5F5F5F5F5F5F5F5F5F5F5F5F5F5F5F5F5F5F5F5F5F5F5F5F5F5F5F5F5F5F5F5F5F5F5F5F5F5F5F5F5F5F5F5F5F5F5F5F5F5F5F5F5F5F5F5F5F5F5F5F5F5F5F5F5F5F5F5F5F5F5F5F5F5F5F5F5F5F5F5F5E2F5F5F5F5F5F5F5F5F5F5F5
310
F5F5F5F5F5E2F5F5F5E2E2EFF5F5F5E2F5F5F5F5F5F5F5F5F5F5F5F5F5F5F5F5E2F5F5F5F5F5F5F5F5F5F5F5F5F5F5F5F5F5F5F5F5F5F5F5F5F5F5F5F5F5F5F5F5F5F5F5F5F5F5F5F5F5F5F5F5F5F5F5F5F5F5F5F5F5F5F5F5F5F5F5F5F5F5F5F5F5F5F5F5F5F5F5F5F5F5F5F5F5F5F5F5F5F5F5F5F5F5F5F5F5F5F5F5F5F5
310
F5F5F5F5F5F5F5F5F5F5F5F5F5F5F5F5F5F5F5F5F5F5F5F5F5F5F5F5F5F5F5F5F5F5F5F5F5F5F5F5F5E2F5F5F5F5F5F5F5F5F5F5F5F5F5F5F5F5E2F5F5F5E2E2EFF5F5F5E2F5F5F5F5F5F5F5F5F5F5F5F5F5F5F5F5E2F5F5F5F5F5F5F5F5F5F5F5F5F5F5F5F5F5F5F5F5F5F5F5F5F5F5F5F5F5F5F5F5F5F5F5F5F5F5F5F5F5
310
F5F5F5F5F5F5F5F5F5F5F5F5F5F5F5F5F5F5F5F5F5F5F5F5F5F5F5F5F5F5F5F5F5F5F5F5F5F5F5F5F5F5F5F5F5F5F5F5F5F5F5F5F5F5F5F5F5F5F5F5F5F5F5F5F5F5F5F5F5F5F5F5F5F5F5F5F5F5F5F5F5F5F5F5F5F5F5F5F5F5F5F5F5F5E2F5F5F5F5F5F5F5F5F5F5F5F5F5F5F5F5E2F5F5F5E2E2EFF5F5F5E2F5F5F5F5F5
310
F5F5F5F5F5F5F5F5F5F5F5E2F5F5F5F5F5F5F5F5F5F5F5F5F5F5F5F5F5F5F5F5F5F5F5F5F5F5F5F5F5F5F5F5F5F5F5F5F5F5F5F5F5F5F5F5F5F5F5F5F5F5F5F5F5F5F5F5F5F5F5F5F5F5F5F5F5F5F5F5F5F5F5F5F5F5F5F5F5F5F5F5F5F5F5F5F5F5F5F5F5F5F5F5F5F5F5F5F5F5F5F5F5F5F5F5F5F5F5F5F5F5F5F5F5F5F5
310
F5F5F5F5F5F5F5F5F5F5F5F5F5F5F5F5F5F5F5F5E2F5F5F5F5F5F5F5F5F5F5F5F5F5F5F5F5E2F5F5F5E2E2EFF5F5F5E2F5F5F5F5F5F5F5F5F5F5F5F5F5F5F5F5E2F5F5F5F5F5F5F5F5F5F5F5F5F5F5F5F5F5F5F5F5F5F5F5F5F5F5F5F5F5F5F5F5F5F5F5F5F5F5F5F5F5F5F5F5F5F5F5F5F5F5F5F5F5F5F5F5F5F5F5F5F5F5
310
F5F5F5F5F5F5F5F5F5F5F5F5F5F5F5F5F5F5F5F5F5F5F5F5F5F5F5F5F5F5F5F5F5F5F5F5F5F5F5F5F5F5F5F5F5F5F5F5F5F5F5F5F5F5F5F5F5F5F5F5F5F5F5F5F5F5F5F5F5F5F5F5F5E2F5F5F5F5F5F5F5F5F5F5F5F5F5F5F5F5E2F5F5F5E2E2EFF5F5F5E2F5F5F5F5F5F5F5F5F5F5F5F5F5F5F5F5E2F5F5F5F5F5F5F5F5F5
310
F5F5F5F5F5F5F5F5F5F5F5F5F5F5F5F5F5F5F5F5F5F5F5F5F5F5F5F5F5F5F5F5F5F5F5F5F5F5F5F5F5F5F5F5F5F5F5F5F5F5F5F5F5F5F5F5F5F5F5F5F5F5F5F5F5F5F5F5F5F5F5F5F5F5F5F5F5F5F5F5F5F5F5F5F5F5F5F5F5F5F5F5F5F5F5F5F5F5F5F5F5F5F5F5F5F5F5F5F5F5F5F5F5F5F5F5F5F5F5F5F5F5F5F5F5F5E2
310
F5F5F5F5F5F5F5F5F5F5F5F5F5F5F5F5E2F5F5F5E2E2EFF5F5F5E2F5F5F5F5F5F5F5F5F5F5F5F5F5F5F5F5E2F5F5F5F5F5F5F5F5F5F5F5F5F5F5F5F5F5F5F5F5F5F5F5F5F5F5F5F5F5F5F5F5F5F5F5F5F5F5F5F5F5F5F5F5F5F5F5F5F5F5F5F5F5F5F5F5F5F5F5F5F5F5F5F5F5F5F5F5F5F5F5F5F5F5F5F5F5F5F5F5F5F5F5
310
F5F5F5F5F5F5F5F5F5F5F5F5F5F5F5F5F5F5F5F5F5F5F5F5F5F5F5F5F5F5F5F5F5F5F5F5F5F5F5F5F5F5F5F5F5F5F5F5F5F5F5F5E2F5F5F5F5F5F5F5F5F5F5F5F5F5F5F5F5E2F5F5F5E2E2EFF5F5F5E2F5F5F5F5F5F5F5F5F5F5F5F5F5F5F5F5E2F5F5F5F5F5F5F5F5F5F5F5F5F5F5F5F5F5F5F5F5F5F5F5F5F5F5F5F5F5F5
310
F5F5F5F5F5F5F5F5F5F5F5F5F5F5F5F5F5F5F5F5F5F5F5F5F5F5F5F5F5F5F5F5F5F5F5F5F5F5F5F5F5F5F5F5F5F5F5F5F5F5F5F5F5F5F5F5F5F5F5F5F5F5F5F5F5F5F5F5F5F5F5F5F5F5F5F5F5F5F5F5F5F5F5F5F5F5F5F5F5F5F5F5F5F5F5F5F5F5F5F5F5F5F5F5F5E2F5F5F5F5F5F5F5F5F5F5F5F5F5F5F5F5E2F5F5F5E2
310
E2EFF5F5F5E2F5F5F5F5F5F5F5F5F5F5F5F5F5F5F5F5E2F5F5F5F5F5F5F5F5F5F5F5F5F5F5F5F5F5F5F5F5F5F5F5F5F5F5F5F5F5F5F5F5F5F5F5F5F5F5F5F5F5F5F5F5F5F5F5F5F5F5F5F5F5F5F5F5F5F5F5F5F5F5F5F5F5F5F5F5F5F5F5F5F5F5F5F5F5F5F5F5F5F5F5F5F5F5F5F5F5F5F5F5F5F5F5F5F5F5F5F5F5F5F5F5
310
F5F5F5F5F5F5F5F5F5F5F5F5F5F5F5F5F5F5F5F5F5F5F5F5F5F5F5F5F5F5F5E2F5F5F5F5F5F5F5F5F5F5F5F5F5F5F5F5E2F5F5F5E2E2EFF5F5F5E2F5F5F5F5F5F5F5F5F5F5F5F5F5F5F5F5E2F5F5F5F5F5F5F5F5F5F5F5F5F5F5F5F5F5F5F5F5F5F5F5F5F5F5F5F5F5F5F5F5F5F5F5F5F5F5F5F5F5F5F5F5F5F5F5F5F5F5F5
310
F5F5F5F5F5F5F5F5F5F5F5F5F5F5F5F5F5F5F5F5F5F5F5F5F5F5F5F5F5F5F5F5F5F5F5F5F5F5F5F5F5F5F5F5F5F5F5F5F5F5F5F5F5F5F5F5F5F5F5F5F5F5F5F5F5F5F5F5F5F5F5F5F5F5F5F5F5F5F5F5F5F5F5F5E2F5F5F5F5F5F5F5F5F5F5F5F5F5F5F5F5E2F5F5F5E2E2EFF5F5F5E2F5F5F5F5F5F5F5F5F5F5F5F5F5F5F5
310
F5E2F5F5F5F5F5F5F5F5F5F5F5F5F5F5F5F5F5F5F5F5F5F5F5F5F5F5F5F5F5F5F5F5F5F5F5F5F5F5F5F5F5F5F5F5F5F5F5F5F5F5F5F5F5F5F5F5F5F5F5F5F5F5F5F5F5F5F5F5F5F5F5F5F5F5F5F5F5F5F5F5F5F5F5F5F5F5F5F5F5F5F5F5F5F5F5F5F5F5F5F5F5F5F5F5F5F5F5F5F5F5F5F5F5F5F5F5F5F5F5F5F5F5F5F5F5
310
F5F5F5F5F5F5F5F5F5F5E2F5F5F5F5F5F5F5F5F5F5F5F5F5F5F5F5E2F5F5F5E2E2EFF5F5F5E2F5F5F5F5F5F5F5F5F5F5F5F5F5F5F5F5E2F5F5F5F5F5F5F5F5F5F5F5F5F5F5F5F5F5F5F5F5F5F5F5F5F5F5F5F5F5F5F5F5F5F5F5F5F5F5F5F5F5F5F5F5F5F5F5F5F5F5F5F5F5F5F5F5F5F5F5F5F5F5F5F5F5F5F5F5F5F5F5F5
310
F5F5F5F5F5F5F5F5F5F5F5F5F5F5F5F5F5F5F5F5F5F5F5F5F5F5F5F5F5F5F5F5F5F5F5F5F5F5F5F5F5F5F5F5F5F5F5F5F5F5F5F5F5F5F5F5F5F5F5F5F5F5F5E2F5F5F5F5F5F5F5F5F5F5F5F5F5F5F5F5E2F5F5F5E2E2EFF5F5F5E2F5F5F5F5F5F5F5F5F5F5F5F5F5F5F5F5E2F5F5F5F5F5F5F5F5F5F5F5F5F5F5F5F5F5F5F5
310
F5F5F5F5F5F5F5F5F5F5F5F5F5F5F5F5F5F5F5F5F5F5F5F5F5F5F5F5F5F5F5F5F5F5F5F5F5F5F5F5F5F5F5F5F5F5F5F5F5F5F5F5F5F5F5F5F5F5F5F5F5F5F5F5F5F5F5F5F5F5F5F5F5F5F5F5F5F5F5F5F5F5F5F5F5F5F5F5F5F5F5F5F5F5F5F5F5F5F5F5F5F5F5F5F5F5F5F5F5F5F5F5F5F5F5F5E2F5F5F5F5F5F5F5F5F5F5
310
F5F5F5F5F5F5E2F5F5F5E2E2EFF5F5F5E2F5F5F5F5F5F5F5F5F5F5F5F5F5F5F5F5E2F5F5F5F5F5F5F5F5F5F5F5F5F5F5F5F5F5F5F5F5F5F5F5F5F5F5F5F5F5F5F5F5F5F5F5F5F5F5F5F5F5F5F5F5F5F5F5F5F5F5F5F5F5F5F5F5F5F5F5F5F5F5F5F5F5F5F5F5F5F5F5F5F5F5F5F5F5F5F5F5F5F5F5F5F5F5F5F5F5F5F5F5F5
310
F5F5F5F5F5F5F5F5F5F5F5F5F5F5F5F5F5F5F5F5F5F5F5F5F5F5F5F5F5F5F5F5F5F5F5F5F5F5F5F5F5F5E2F5F5F5F5F5F5F5F5F5F5F5F5F5F5F5F5E2F5F5F5E2E2EFF5F5F5E2F5F5F5F5F5F5F5F5F5F5F5F5F5F5F5F5E2F5F5F5F5F5F5F5F5F5F5F5F5F5F5F5F5F5F5F5F5F5F5F5F5F5F5F5F5F5F5F5F5F5F5F5F5F5F5F5F5
310
F5F5F5F5F5F5F5F5F5F5F5F5F5F5F5F5F5F5F5F5F5F5F5F5F5F5F5F5F5F5F5F5F5F5F5F5F5F5F5F5F5F5F5F5F5F5F5F5F5F5F5F5F5F5F5F5F5F5F5F5F5F5F5F5F5F5F5F5F5F5F5F5F5F5F5F5F5F5F5F5F5F5F5F5F5F5F5F5F5F5F5F5F5F5F5E2F5F5F5F5F5F5F5F5F5F5F5F5F5F5F5F5E2F5F5F5E2E2EFF5F5F5E2F5F5F5F5
310
F5F5F5F5F5F5F5F5F5F5F5F5E2F5F5F5F5F5F5F5F5F5F5F5F5F5F5F5F5F5F5F5F5F5F5F5F5F5F5F5F5F5F5F5F5F5F5F5F5F5F5F5F5F5F5F5F5F5F5F5F5F5F5F5F5F5F5F5F5F5F5F5F5F5F5F5F5F5F5F5F5F5F5F5F5F5F5F5F5F5F5F5F5F5F5F5F5F5F5F5F5F5F5F5F5F5F5F5F5F5F5F5F5F5F5F5F5F5F5F5F5F5F5F5F5F5F5
310
F5F5F5F5F5F5F5F5F5F5F5F5F5F5F5F5F5F5F5F5F5E2F5F5F5F5F5F5F5F5F5F5F5F5F5F5F5F5E2F5F5F5E2E2EFF5F5F5F5F5F5F5F5F5F5F5F5F5F5F5F5F5F5F5F5E2F5F5F5F5F5F5F5F5F5F5F5F5F5F5F5F5F5F5F5F5F5F5F5F5F5F5F5F5F5F5F5F5F5F5F5F5F5F5F5F5F5F5F5F5F5F5F5F5F5F5F5F5F5F5F5F5F5F5F5F5F5
310
F5F5F5F5F5F5F5F5F5F5F5F5F5F5F5F5F5F5F5F5F5F5F5F5F5F5F5F5F5F5F5F5F5F5F5F5F5F5F5F5F5F5F5F5F5F5F5F5F5F5F5F5F5F5F5F5F5F5F5F5F5F5F5F5F5F5F5F5F5F5F5F5F5F5E2F5F5F5F5F5F5F5F5F5F5F5F5F5F5F5F5F5F5F5F5E2E2EFF5F5F5F5F5F5F5F5F5F5F5F5F5F5F5F5F5F5F5F5E2F5F5F5F5F5F5F5F5
310
F5F5F5F5F5F5F5F5F5F5F5F5F5F5F5F5F5F5F5F5F5F5F5F5F5F5F5F5F5F5F5F5F5F5F5F5F5F5F5F5F5F5F5F5F5F5F5F5F5F5F5F5F5F5F5F5F5F5F5F5F5F5F5F5F5F5F5F5F5F5F5F5F5F5F5F5F5F5F5F5F5F5F5F5F5F5F5F5F5F5F5F5F5F5F5F5F5F5F5F5F5F5F5F5F5F5F5F5F5F5F5F5F5F5F5F5F5F5F5F5F5F5F5F5F5F5F5
310
E2F5F5F5F5F5F5F5F5F5F5F5F5F5F5F5F5F5F5F5F5E2E2EFF5F5F5F5F5F5F5F5F5F5F5F5F5F5F5F5F5F5F5F5E2F5F5F5F5F5F5F5F5F5F5F5F5F5F5F5F5F5F5F5F5F5F5F5F5F5F5F5F5F5F5F5F5F5F5F5F5F5F5F5F5F5F5F5F5F5F5F5F5F5F5F5F5F5F5F5F5F5F5F5F5F5F5F5F5F5F5F5F5F5F5F5F5F5F5F5F5F5F5F5F5F5F5
310
F5F5F5F5F5F5F5F5F5F5F5F5F5F5F5F5F5F5F5F5F5F5F5F5F5F5F5F5F5F5F5F5F5F5F5F5F5F5F5F5F5F5F5F5F5F5F5F5F5F5F5F5F5E2F5F5F5F5F5F5F5F5F5F5F5F5F5F5F5F5F5F5F5F5E2E2EFF5F5F5F5F5F5F5F5F5F5F5F5F5F5F5F5F5F5F5F5E2F5F5F5F5F5F5F5F5F5F5F5F5F5F5F5F5F5F5F5F5F5F5F5F5F5F5F5F5F5
310
F5F5F5F5F5F5F5F5F5F5F5F5F5F5F5F5F5F5F5F5F5F5F5F5F5F5F5F5F5F5F5F5F5F5F5F5F5F5F5F5F5F5F5F5F5F5F5F5F5F5F5F5F5F5F5F5F5F5F5F5F5F5F5F5F5F5F5F5F5F5F5F5F5F5F5F5F5F5F5F5F5F5F5F5F5F5F5F5F5F5F5F5F5F5F5F5F5F5F5F5F5F5F5F5F5F5E2F5F5F5F5F5F5F5F5F5F5F5F5F5F5F5F5F5F5F5F5
310
E2E2EFF5F5F5F5F5F5F5F5F5F5F5F5F5F5F5F5F5F5F5F5E2F5F5F5F5F5F5F5F5F5F5F5F5F5F5F5F5F5F5F5F5F5F5F5F5F5F5F5F5F5F5F5F5F5F5F5F5F5F5F5F5F5F5F5F5F5F5F5F5F5F5F5F5F5F5F5F5F5F5F5F5F5F5F5F5F5F5F5F5F5F5F5F5F5F5F5F5F5F5F5F5F5F5F5F5F5F5F5F5F5F5F5F5F5F5F5F5F5F5F5F5F5F5F5
310
F5F5F5F5F5F5F5F5F5F5F5F5F5F5F5F5F5F5F5F5F5F5F5F5F5F5F5F5F5F5F5F5E2F5F5F5F5F5F5F5F5F5F5F5F5F5F5F5F5F5F5F5F5E2E2EFF5F5F5F5F5F5F5F5F5F5F5F5F5F5F5F5F5F5F5F5E2F5F5F5F5F5F5F5F5F5F5F5F5F5F5F5F5F5F5F5F5F5F5F5F5F5F5F5F5F5F5F5F5F5F5F5F5F5F5F5F5F5F5F5F5F5F5F5F5F5F5
310
F5F5F5F5F5F5F5F5F5F5F5F5F5F5F5F5F5F5F5F5F5F5F5F5F5F5F5F5F5F5F5F5F5F5F5F5F5F5F5F5F5F5F5F5F5F5F5F5F5F5F5F5F5F5F5F5F5F5F5F5F5F5F5F5F5F5F5F5F5F5F5F5F5F5F5F5F5F5F5F5F5F5F5F5F5E2F5F5F5F5F5F5F5F5F5F5F5F5F5F5F5F5F5F5F5F5E2E2EFF5F5F5F5F5F5F5F5F5F5F5F5F5F5F5F5F5F5
310
F5F5E2F5F5F5F5F5F5F5F5F5F5F5F5F5F5F5F5F5F5F5F5F5F5F5F5F5F5F5F5F5F5F5F5F5F5F5F5F5F5F5F5F5F5F5F5F5F5F5F5F5F5F5F5F5F5F5F5F5F5F5F5F5F5F5F5F5F5F5F5F5F5F5F5F5F5F5F5F5F5F5F5F5F5F5F5F5F5F5F5F5F5F5F5F5F5F5F5F5F5F5F5F5F5F5F5F5F5F5F5F5F5F5F5F5F5F5F5F5F5F5F5F5F5F5F5
310
F5F5F5F5F5F5F5F5F5F5F5E2F5F5F5F5F5F5F5F5F5F5F5F5F5F5F5F5F5F5F5F5E2E2EFF5F5F5F5F5F5F5F5F5F5F5F5F5F5F5F5F5F5F5F5E2F5F5F5F5F5F5F5F5F5F5F5F5F5F5F5F5F5F5F5F5F5F5F5F5F5F5F5F5F5F5F5F5F5F5F5F5F5F5F5F5F5F5F5F5F5F5F5F5F5F5F5F5F5F5F5F5F5F5F5F5F5F5F5F5F5F5F5F5F5F5F5
310
F5F5F5F5F5F5F5F5F5F5F5F5F5F5F5F5F5F5F5F5F5F5F5F5F5F5F5F5F5F5F5F5F5F5F5F5F5F5F5F5F5F5F5F5F5F5F5F5F5F5F5F5F5F5F5F5F5F5F5F5F5F5F5F5E2F5F5F5F5F5F5F5F5F5F5F5F5F5F5F5F5F5F5F5F5E2E2EFF5F5F5F5F5F5F5F5F5F5F5F5F5F5F5F5F5F5F5F5E2F5F5F5F5F5F5F5F5F5F5F5F5F5F5F5F5F5F5
310
F5F5F5F5F5F5F5F5F5F5F5F5F5F5F5F5F5F5F5F5F5F5F5F5F5F5F5F5F5F5F5F5F5F5F5F5F5F5F5F5F5F5F5F5F5F5F5F5F5F5F5F5F5F5F5F5F5F5F5F5F5F5F5F5F5F5F5F5F5F5F5F5F5F5F5F5F5F5F5F5F5F5F5F5F5F5F5F5F5F5F5F5F5F5F5F5F5F5F5F5F5F5F5F5F5F5F5F5F5F5F5F5F5F5F5F5F5E2F5F5F5F5F5F5F5F5F5
310
F5F5F5F5F5F5F5F5F5F5F5E2E2EFF5F5F5E2F5F5F5F5F5F5F5F5F5F5F5F5F5F5F5F5E2F5F5F5F5F5F5F5F5F5F5F5F5F5F5F5F5F5F5F5F5F5F5F5F5F5F5F5F5F5F5F5F5F5F5F5F5F5F5F5F5F5F5F5F5F5F5F5F5F5F5F5F5F5F5F5F5F5F5F5F5F5F5F5F5F5F5F5F5F5F5F5F5F5F5F5F5F5F5F5F5F5F5F5F5F5F5F5F5F5F5F5F5
310
F5F5F5F5F5F5F5F5F5F5F5F5F5F5F5F5F5F5F5F5F5F5F5F5F5F5F5F5F5F5F5F5F5F5F5F5F5F5F5F5F5F5F5E2F5F5F5F5F5F5F5F5F5F5F5F5F5F5F5F5E2F5F5F5E2E2EFF5F5F5E2F5F5F5F5F5F5F5F5F5F5F5F5F5F5F5F5E2F5F5F5F5F5F5F5F5F5F5F5F5F5F5F5F5F5F5F5F5F5F5F5F5F5F5F5F5F5F5F5F5F5F5F5F5F5F5F5
310
F5F5F5F5F5F5F5F5F5F5F5F5F5F5F5F5F5F5F5F5F5F5F5F5F5F5F5F5F5F5F5F5F5F5F5F5F5F5F5F5F5F5F5F5F5F5F5F5F5F5F5F5F5F5F5F5F5F5F5F5F5F5F5F5F5F5F5F5F5F5F5F5F5F5F5F5F5F5F5F5F5F5F5F5F5F5F5F5F5F5F5F5F5F5F5F5E2F5F5F5F5F5F5F5F5F5F5F5F5F5F5F5F5E2F5F5F5E2E2EFF5F5F5E2F5F5F5
310
F5F5F5F5F5F5F5F5F5F5F5F5F5E2F5F5F5F5F5F5F5F5F5F5F5F5F5F5F5F5F5F5F5F5F5F5F5F5F5F5F5F5F5F5F5F5F5F5F5F5F5F5F5F5F5F5F5F5F5F5F5F5F5F5F5F5F5F5F5F5F5F5F5F5F5F5F5F5F5F5F5F5F5F5F5F5F5F5F5F5F5F5F5F5F5F5F5F5F5F5F5F5F5F5F5F5F5F5F5F5F5F5F5F5F5F5F5F5F5F5F5F5F5F5F5F5F5
310
F5F5F5F5F5F5F5F5F5F5F5F5F5F5F5F5F5F5F5F5F5F5E2F5F5F5F5F5F5F5F5F5F5F5F5F5F5F5F5E2F5F5F5E2E2EFF5F5F5E2F5F5F5F5F5F5F5F5F5F5F5F5F5F5F5F5E2F5F5F5F5F5F5F5F5F5F5F5F5F5F5F5F5F5F5F5F5F5F5F5F5F5F5F5F5F5F5F5F5F5F5F5F5F5F5F5F5F5F5F5F5F5F5F5F5F5F5F5F5F5F5F5F5F5F5F5F5
310
F5F5F5F5F5F5F5F5F5F5F5F5F5F5F5F5F5F5F5F5F5F5F5F5F5F5F5F5F5F5F5F5F5F5F5F5F5F5F5F5F5F5F5F5F5F5F5F5F5F5F5F5F5F5F5F5F5F5F5F5F5F5F5F5F5F5F5F5F5F5F5F5F5F5F5E2F5F5F5F5F5F5F5F5F5F5F5F5F5F5F5F5E2F5F5F5E2E2EFF5F5F5E2F5F5F5F5F5F5F5F5F5F5F5F5F5F5F5F5E2F5F5F5F5F5F5F5
310
F5F5F5F5F5F5F5F5F5F5F5F5F5F5F5F5F5F5F5F5F5F5F5F5F5F5F5F5F5F5F5F5F5F5F5F5F5F5F5F5F5F5F5F5F5F5F5F5F5F5F5F5F5F5F5F5F5F5F5F5F5F5F5F5F5F5F5F5F5F5F5F5F5F5F5F5F5F5F5F5F5F5F5F5F5F5F5F5F5F5F5F5F5F5F5F5F5F5F5F5F5F5F5F5F5F5F5F5F5F5F5F5F5F5F5F5F5F5F5F5F5F5F5F5F5F5F5
310
F5E2F5F5F5F5F5F5F5F5F5F5F5F5F5F5F5F5E2F5F5F5E2E2EFF5F5F5E2F5F5F5F5F5F5F5F5F5F5F5F5F5F5F5F5E2F5F5F5F5F5F5F5F5F5F5F5F5F5F5F5F5F5F5F5F5F5F5F5F5F5F5F5F5F5F5F5F5F5F5F5F5F5F5F5F5F5F5F5F5F5F5F5F5F5F5F5F5F5F5F5F5F5F5F5F5F5F5F5F5F5F5F5F5F5F5F5F5F5F5F5F5F5F5F5F5F5
310
F5F5F5F5F5F5F5F5F5F5F5F5F5F5F5F5F5F5F5F5F5F5F5F5F5F5F5F5F5F5F5F5F5F5F5F5F5F5F5F5F5F5F5F5F5F5F5F5F5F5F5F5F5F5E2F5F5F5F5F5F5F5F5F5F5F5F5F5F5F5F5E2F5F5F5E2E2EFF5F5F5E2F5F5F5F5F5F5F5F5F5F5F5F5F5F5F5F5E2F5F5F5F5F5F5F5F5F5F5F5F5F5F5F5F5F5F5F5F5F5F5F5F5F5F5F5F5
310
F5F5F5F5F5F5F5F5F5F5F5F5F5F5F5F5F5F5F5F5F5F5F5F5F5F5F5F5F5F5F5F5F5F5F5F5F5F5F5F5F5F5F5F5F5F5F5F5F5F5F5F5F5F5F5F5F5F5F5F5F5F5F5F5F5F5F5F5F5F5F5F5F5F5F5F5F5F5F5F5F5F5F5F5F5F5F5F5F5F5F5F5F5F5F5F5F5F5F5F5F5F5F5F5F5F5F5E2F5F5F5F5F5F5F5F5F5F5F5F5F5F5F5F5E2F5F5
310
F5E2E2EFF5F5F5E2F5F5F5F5F5F5F5F5F5F5F5F5F5F5F5F5E2F5F5F5F5F5F5F5F5F5F5F5F5F5F5F5F5F5F5F5F5F5F5F5F5F5F5F5F5F5F5F5F5F5F5F5F5F5F5F5F5F5F5F5F5F5F5F5F5F5F5F5F5F5F5F5F5F5F5F5F5F5F5F5F5F5F5F5F5F5F5F5F5F5F5F5F5F5F5F5F5F5F5F5F5F5F5F5F5F5F5F5F5F5F5F5F5F5F5F5F5F5F5
310
F5F5F5F5F5F5F5F5F5F5F5F5F5F5F5F5F5F5F5F5F5F5F5F5F5F5F5F5F5F5F5F5F5E2F5F5F5F5F5F5F5F5F5F5F5F5F5F5F5F5E2F5F5F5E2E2EFF5F5F5E2F5F5F5F5F5F5F5F5F5F5F5F5F5F5F5F5E2F5F5F5F5F5F5F5F5F5F5F5F5F5F5F5F5F5F5F5F5F5F5F5F5F5F5F5F5F5F5F5F5F5F5F5F5F5F5F5F5F5F5F5F5F5F5F5F5F5
310
F5F5F5F5F5F5F5F5F5F5F5F5F5F5F5F5F5F5F5F5F5F5F5F5F5F5F5F5F5F5F5F5F5F5F5F5F5F5F5F5F5F5F5F5F5F5F5F5F5F5F5F5F5F5F5F5F5F5F5F5F5F5F5F5F5F5F5F5F5F5F5F5F5F5F5F5F5F5F5F5F5F5F5F5F5F5E2F5F5F5F5F5F5F5F5F5F5F5F5F5F5F5F5E2F5F5F5E2E2EFF5F5F5E2F5F5F5F5F5F5F5F5F5F5F5F5F5
310
F5F5F5E2F5F5F5F5F5F5F5F5F5F5F5F5F5F5F5F5F5F5F5F5F5F5F5F5F5F5F5F5F5F5F5F5F5F5F5F5F5F5F5F5F5F5F5F5F5F5F5F5F5F5F5F5F5F5F5F5F5F5F5F5F5F5F5F5F5F5F5F5F5F5F5F5F5F5F5F5F5F5F5F5F5F5F5F5F5F5F5F5F5F5F5F5F5F5F5F5F5F5F5F5F5F5F5F5F5F5F5F5F5F5F5F5F5F5F5F5F5F5F5F5F5F5F5
310
F5F5F5F5F5F5F5F5F5F5F5F5E2F5F5F5F5F5F5F5F5F5F5F5F5F5F5F5F5E2F5F5F5E2E2EFF5F5F5E2F5F5F5F5F5F5F5F5F5F5F5F5F5F5F5F5E2F5F5F5F5F5F5F5F5F5F5F5F5F5F5F5F5F5F5F5F5F5F5F5F5F5F5F5F5F5F5F5F5F5F5F5F5F5F5F5F5F5F5F5F5F5F5F5F5F5F5F5F5F5F5F5F5F5F5F5F5F5F5F5F5F5F5F5F5F5F5
310
F5F5F5F5F5F5F5F5F5F5F5F5F5F5F5F5F5F5F5F5F5F5F5F5F5F5F5F5F5F5F5F5F5F5F5F5F5F5F5F5F5F5F5F5F5F5F5F5F5F5F5F5F5F5F5F5F5F5F5F5F5F5F5F5F5E2F5F5F5F5F5F5F5F5F5F5F5F5F5F5F5F5E2F5F5F5E2E2EFF5F5F5E2F5F5F5F5F5F5F5F5F5F5F5F5F5F5F5F5E2F5F5F5F5F5F5F5F5F5F5F5F5F5F5F5F5F5
310
F5F5F5F5F5F5F5F5F5F5F5F5F5F5F5F5F5F5F5F5F5F5F5F5F5F5F5F5F5F5F5F5F5F5F5F5F5F5F5F5F5F5F5F5F5F5F5F5F5F5F5F5F5F5F5F5F5F5F5F5F5F5F5F5F5F5F5F5F5F5F5F5F5F5F5F5F5F5F5F5F5F5F5F5F5F5F5F5F5F5F5F5F5F5F5F5F5F5F5F5F5F5F5F5F5F5F5F5F5F5F5F5F5F5F5F5F5F5E2F5F5F5F5F5F5F5F5
310
F5F5F5F5F5F5F5F5E2F5F5F5E2E2EFF5F5F5E2F5F5F5F5F5F5F5F5F5F5F5F5F5F5F5F5E2F5F5F5F5F5F5F5F5F5F5F5F5F5F5F5F5F5F5F5F5F5F5F5F5F5F5F5F5F5F5F5F5F5F5F5F5F5F5F5F5F5F5F5F5F5F5F5F5F5F5F5F5F5F5F5F5F5F5F5F5F5F5F5F5F5F5F5F5F5F5F5F5F5F5F5F5F5F5F5F5F5F5F5F5F5F5F5F5F5F5F5
310
F5F5F5F5F5F5F5F5F5F5F5F5F5F5F5F5F5F5F5F5F5F5F5F5F5F5F5F5F5F5F5F5F5F5F5F5F5F5F5F5F5F5F5F5E2F5F5F5F5F5F5F5F5F5F5F5F5F5F5F5F5E2F5F5F5E2E2EFF5F5F5E2F5F5F5F5F5F5F5F5F5F5F5F5F5F5F5F5E2F5F5F5F5F5F5F5F5F5F5F5F5F5F5F5F5F5F5F5F5F5F5F5F5F5F5F5F5F5F5F5F5F5F5F5F5F5F5
310
F5F5F5F5F5F5F5F5F5F5F5F5F5F5F5F5F5F5F5F5F5F5F5F5F5F5F5F5F5F5F5F5F5F5F5F5F5F5F5F5F5F5F5F5F5F5F5F5F5F5F5F5F5F5F5F5F5F5F5F5F5F5F5F5F5F5F5F5F5F5F5F5F5F5F5F5F5F5F5F5F5F5F5F5F5F5F5F5F5F5F5F5F5F5F5F5F5E2F5F5F5F5F5F5F5F5F5F5F5F5F5F5F5F5E2F5F5F5E2E2EFF5F5F5E2F5F5
310
F5F5F5F5F5F5F5F5F5F5F5F5F5F5E2F5F5F5F5F5F5F5F5F5F5F5F5F5F5F5F5F5F5F5F5F5F5F5F5F5F5F5F5F5F5F5F5F5F5F5F5F5F5F5F5F5F5F5F5F5F5F5F5F5F5F5F5F5F5F5F5F5F5F5F5F5F5F5F5F5F5F5F5F5F5F5F5F5F5F5F5F5F5F5F5F5F5F5F5F5F5F5F5F5F5F5F5F5F5F5F5F5F5F5F5F5F5F5F5F5F5F5F5F5F5F5F5
310
F5F5F5F5F5F5F5F5F5F5F5F5F5F5F5F5F5F5F5F5F5F5F5E2F5F5F5F5F5F5F5F5F5F5F5F5F5F5F5F5E2F5F5F5E2E2EFF5F5F5E2F5F5F5F5F5F5F5F5F5F5F5F5F5F5F5F5E2F5F5F5F5F5F5F5F5F5F5F5F5F5F5F5F5F5F5F5F5F5F5F5F5F5F5F5F5F5F5F5F5F5F5F5F5F5F5F5F5F5F5F5F5F5F5F5F5F5F5F5F5F5F5F5F5F5F5F5
310
F5F5F5F5F5F5F5F5F5F5F5F5F5F5F5F5F5F5F5F5F5F5F5F5F5F5F5F5F5F5F5F5F5F5F5F5F5F5F5F5F5F5F5F5F5F5F5F5F5F5F5F5F5F5F5F5F5F5F5F5F5F5F5F5F5F5F5F5F5F5F5F5F5F5F5F5E2F5F5F5F5F5F5F5F5F5F5F5F5F5F5F5F5E2F5F5F5E2E2EFF5F5F5E2F5F5F5F5F5F5F5F5F5F5F5F5F5F5F5F5E2F5F5F5F5F5F5
310
F5F5F5F5F5F5F5F5F5F5F5F5F5F5F5F5F5F5F5F5F5F5F5F5F5F5F5F5F5F5F5F5F5F5F5F5F5F5F5F5F5F5F5F5F5F5F5F5F5F5F5F5F5F5F5F5F5F5F5F5F5F5F5F5F5F5F5F5F5F5F5F5F5F5F5F5F5F5F5F5F5F5F5F5F5F5F5F5F5F5F5F5F5F5F5F5F5F5F5F5F5F5F5F5F5F5F5F5F5F5F5F5F5F5F5F5F5F5F5F5F5F5F5F5F5F5F5
310
F5F5E2F5F5F5F5F5F5F5F5F5F5F5F5F5F5F5F5E2F5F5F5E2E2EFF5F5F5F5F5F5F5F5F5F5F5F5F5F5F5F5F5F5F5F5E2F5F5F5F5F5F5F5F5F5F5F5F5F5F5F5F5F5F5F5F5F5F5F5F5F5F5F5F5F5F5F5F5F5F5F5F5F5F5F5F5F5F5F5F5F5F5F5F5F5F5F5F5F5F5F5F5F5F5F5F5F5F5F5F5F5F5F5F5F5F5F5F5F5F5F5F5F5F5F5F5
310
F5F5F5F5F5F5F5F5F5F5F5F5F5F5F5F5F5F5F5F5F5F5F5F5F5F5F5F5F5F5F5F5F5F5F5F5F5F5F5F5F5F5F5F5F5F5F5F5F5F5F5F5F5F5F5E2F5F5F5F5F5F5F5F5F5F5F5F5F5F5F5F5F5F5F5F5E2E2EFF5F5F5F5F5F5F5F5F5F5F5F5F5F5F5F5F5F5F5F5E2F5F5F5F5F5F5F5F5F5F5F5F5F5F5F5F5F5F5F5F5F5F5F5F5F5F5F5
310
F5F5F5F5F5F5F5F5F5F5F5F5F5F5F5F5F5F5F5F5F5F5F5F5F5F5F5F5F5F5F5F5F5F5F5F5F5F5F5F5F5F5F5F5F5F5F5F5F5F5F5F5F5F5F5F5F5F5F5F5F5F5F5F5F5F5F5F5F5F5F5F5F5F5F5F5F5F5F5F5F5F5F5F5F5F5F5F5F5F5F5F5F5F5F5F5F5F5F5F5F5F5F5F5F5F5F5F5E2F5F5F5F5F5F5F5F5F5F5F5F5F5F5F5F5F5F5
310
F5F5E2E2EFF5F5F5F5F5F5F5F5F5F5F5F5F5F5F5F5F5F5F5F5E2F5F5F5F5F5F5F5F5F5F5F5F5F5F5F5F5F5F5F5F5F5F5F5F5F5F5F5F5F5F5F5F5F5F5F5F5F5F5F5F5F5F5F5F5F5F5F5F5F5F5F5F5F5F5F5F5F5F5F5F5F5F5F5F5F5F5F5F5F5F5F5F5F5F5F5F5F5F5F5F5F5F5F5F5F5F5F5F5F5F5F5F5F5F5F5F5F5F5F5F5F5
310
F5F5F5F5F5F5F5F5F5F5F5F5F5F5F5F5F5F5F5F5F5F5F5F5F5F5F5F5F5F5F5F5F5F5E2F5F5F5F5F5F5F5F5F5F5F5F5F5F5F5F5F5F5F5F5E2E2EFF5F5F5F5F5F5F5F5F5F5F5F5F5F5F5F5F5F5F5F5E2F5F5F5F5F5F5F5F5F5F5F5F5F5F5F5F5F5F5F5F5F5F5F5F5F5F5F5F5F5F5F5F5F5F5F5F5F5F5F5F5F5F5F5F5F5F5F5F5
310
F5F5F5F5F5F5F5F5F5F5F5F5F5F5F5F5F5F5F5F5F5F5F5F5F5F5F5F5F5F5F5F5F5F5F5F5F5F5F5F5F5F5F5F5F5F5F5F5F5F5F5F5F5F5F5F5F5F5F5F5F5F5F5F5F5F5F5F5F5F5F5F5F5F5F5F5F5F5F5F5F5F5F5F5F5F5F5E2F5F5F5F5F5F5F5F5F5F5F5F5F5F5F5F5F5F5F5F5E2E2EFF5F5F5F5F5F5F5F5F5F5F5F5F5F5F5F5
310
F5F5F5F5E2E2E2E2E2E2E2E2E2E2E2E2E2E2E2E2E2E2E2E2E2E2E2E2E2E2E2E2E2E2E2E2E2E2E2E2E2E2E2E2E2E2E2E2E2E2E2E2E2E2E2E2E2E2E2E2E2E2E2E2E2E2E2E2E2E2E2E2E2E2E2E2E2E2E2E2E2E2E2E2E2E2E2E2E2E2E2E2E2E2E2E2E2E2E2E2E2E2E2E2E2E2E2E2E2E2E2E2E2E2E2E2E2E2E2E2E2E2E2E2E2E2E2
310
E2E2E2E2E2E2E2E2E2E2E2E2E2E2F5F5F5F5F5F5F5F5F5F5F5F5F5F5F5F5F5F5F5F5E2E2EFF5F5F5F5F5F5F5F5F5F5F5F5F5F5F5F5F5F5F5F5F5F5F5F5F5F5F5F5F5F5F5F5F5F5F5F5F5F5F5F5F5F5F5F5F5F5F5F5F5F5F5F5F5F5F5F5F5F5F5F5F5F5F5F5F5F5F5F5F5F5F5F5F5F5F5F5F5F5F5F5F5F5F5F5F5F5F5F5F5F5
310
F5F5F5F5F5F5F5F5F5F5F5F5F5F5F5F5F5F5F5F5F5F5F5F5F5F5F5F5F5F5F5F5F5F5F5F5F5F5F5F5F5F5F5F5F5F5F5F5F5F5F5F5F5F5F5F5F5F5F5F5F5F5F5F5F5F5F5F5F5F5F5F5F5F5F5F5F5F5F5F5F5F5F5F5F5F5F5E2E2EFF5F5F5F5F5F5F5F5F5F5F5F5F5F5F5F5F5F5F5F5F5F5F5F5F5F5F5F5F5F5F5F5F5F5F5F5F5
310
F5F5F5F5F5F5F5F5F5F5F5F5F5F5F5F5F5F5F5F5F5F5F5F5F5F5F5F5F5F5F5F5F5F5F5F5F5F5F5F5F5F5F5F5F5F5F5F5F5F5F5F5F5F5F5F5F5F5F5F5F5F5F5F5F5F5F5F5F5F5F5F5F5F5F5F5F5F5F5F5F5F5F5F5F5F5F5F5F5F5F5F5F5F5F5F5F5F5F5F5F5F5F5F5F5F5F5F5F5F5F5F5F5F5F5F5F5F5F5F5F5F5F5F5F5F5F5
310
F5F5F5F5F5F5F5F5F5F5F5F5F5E2E2EFF5F5F5F5F5F5F5F5F5F5F5F5F5F5F5F5F5F5F5F5F5F5F5F5F5F5F5F5F5F5F5F5F5F5F5F5F5F5F5F5F5F5F5F5F5F5F5F5F5F5F5F5F5F5F5F5F5F5F5F5F5F5F5F5F5F5F5F5F5F5F5F5F5F5F5F5F5F5F5F5F5F5F5F5F5F5F5F5F5F5F5F5F5F5F5F5F5F5F5F5F5F5F5F5F5F5F5F5F5F5F5
310
F5F5F5F5F5F5F5F5F5F5F5F5F5F5F5F5F5F5F5F5F5F5F5F5F5F5F5F5F5F5F5F5F5F5F5F5F5F5F5F5F5F5F5F5F5F5F5F5F5F5F5F5F5F5F5F5F5F5F5F5F5F5F5F5F5F5E2E2EFF5F5F5F5F5F5F5F5F5F5F5F5F5F5F5F5F5F5F5F5F5F5F5F5F5F5F5F5F5F5F5F5F5F5F5F5F5F5F5F5F5F5F5F5F5F5F5F5F5F5F5F5F5F5F5F5F5F5
310
F5F5F5F5F5F5F5F5F5F5F5F5F5F5F5F5F5F5F5F5F5F5F5F5F5F5F5F5F5F5F5F5F5F5F5F5F5F5F5F5F5F5F5F5F5F5F5F5F5F5F5F5F5F5F5F5F5F5F5F5F5F5F5F5F5F5F5F5F5F5F5F5F5F5F5F5F5F5F5F5F5F5F5F5F5F5F5F5F5F5F5F5F5F5F5F5F5F5F5F5F5F5F5F5F5F5F5F5F5F5F5F5F5F5F5F5F5F5F5E2E2EFF5F5F5E2F5
310
F5F5F5F5F5F5F5F5F5F5F5F5F5F5F5F5F5F5F5F5F5F5F5F5F5F5F5F5F5F5F5F5F5F5F5F5F5F5F5F5F5F5F5F5F5F5F5F5F5F5F5F5F5F5F5F5F5F5F5F5F5F5F5F5F5F5F5F5F5F5F5F5F5F5F5F5F5F5F5F5F5F5F5F5F5F5F5F5F5F5F5F5F5F5F5F5F5F5F5F5F5F5F5F5F5F5F5F5F5F5F5F5F5F5F5F5F5F5F5F5F5F5F5F5F5F5F5
310
F5F5F5F5F5F5F5F5F5F5F5F5F5F5F5F5F5F5F5F5F5F5F5F5F5F5F5F5F5F5F5F5F5F5F5F5F5F5F5F5F5E2F5F5F5E2E2EFF5F5F5E2F5F5F5F5F5F5F5F5F5F5F5F5F5F5F5F5F5F5F5F5F5F5F5F5F5F5F5F5F5F5F5F5F5F5F5F5F5F5F5F5F5F5F5F5F5F5F5F5F5F5F5F5F5F5F5F5F5F5F5F5F5F5F5F5F5F5F5F5F5F5F5F5F5F5F5
310
F5F5F5F5F5F5F5F5F5F5F5F5F5F5F5F5F5F5F5F5F5F5F5F5F5F5F5F5F5F5F5F5F5F5F5F5F5F5F5F5F5F5F5F5F5F5F5F5F5F5F5F5F5F5F5F5F5F5F5F5F5F5F5F5F5F5F5F5F5F5F5F5F5F5F5F5F5F5F5F5F5F5F5F5F5F5F5F5F5F5F5F5F5F5E2F5F5F5E2E2EFF5F5F5E2F5F5F5F5F5F5F5F5F5F5F5F5F5F5F5F5F5F5F5F5F5F5
310
F5F5F5F5F5F5F5F5F5F5F5F5F5F5F5F5F5F5F5F5F5F5F5F5F5F5F5F5F5F5F5F5F5F5F5F5F5F5F5F5F5F5F5F5F5F5F5F5F5F5F5F5F5F5F5F5F5F5F5F5F5F5F5F5F5F5F5F5F5F5F5F5F5F5F5F5F5F5F5F5F5F5F5F5F5F5F5F5F5F5F5F5F5F5F5F5F5F5F5F5F5F5F5F5F5F5F5F5F5F5F5F5F5F5F5F5F5F5F5F5F5F5F5F5F5F5F5
310
F5F5F5F5F5F5F5F5F5F5F5F5F5F5F5F5F5F5F5F5E2F5F5F5E2E2EFF5F5F5E2F5F5F5F5F5F5F5F5F5F5F5F5F5F5F5F5F5F5F5F5F5F5F5F5F5F5F5F5F5F5F5F5F5F5F5F5F5F5F5F5F5F5F5F5F5F5F5F5F5F5F5F5F5F5F5F5F5F5F5F5F5F5F5F5F5F5F5F5F5F5F5F5F5F5F5F5F5F5F5F5F5F5F5F5F5F5F5F5F5F5F5F5F5F5F5F5
310
F5F5F5F5F5F5F5F5F5F5F5F5F5F5F5F5F5F5F5F5F5F5F5F5F5F5F5F5F5F5F5F5F5F5F5F5F5F5F5F5F5F5F5F5F5F5F5F5F5F5F5F5F5F5F5F5F5F5F5F5F5F5F5F5F5F5F5F5F5F5F5F5F5E2F5F5F5E2E2EFF5F5F5E2F5F5F5F5F5F5F5F5F5F5F5F5F5F5F5F5F5F5F5F5F5F5F5F5F5F5F5F5F5F5F5F5F5F5F5F5F5F5F5F5F5F5F5
310
F5F5F5F5F5F5F5F5F5F5F5F5F5F5F5F5F5F5F5F5F5F5F5F5F5F5F5F5F5F5F5F5F5F5F5F5F5F5F5F5F5F5F5F5F5F5F5F5F5F5F5F5F5F5F5F5F5F5F5F5F5F5F5F5F5F5F5F5F5F5F5F5F5F5F5F5F5F5F5F5F5F5F5F5F5F5F5F5F5F5F5F5F5F5F5F5F5F5F5F5F5F5F5F5F5F5F5F5F5F5F5F5F5F5F5F5F5F5F5F5F5F5F5F5F5F5E2
310
F5F5F5E2E2EFF5F5F5E2F5F5F5F5F5F5F5F5F5F5F5F5F5F5F5F5F5F5F5F5F5F5F5F5F5F5F5F5F5F5F5F5F5F5F5F5F5F5F5F5F5F5F5F5F5F5F5F5F5F5F5F5F5F5F5F5F5F5F5F5F5F5F5F5F5F5F5F5F5F5F5F5F5F5F5F5F5F5F5F5F5F5F5F5F5F5F5F5F5F5F5F5F5F5F5F5F5F5F5F5F5F5F5F5F5F5F5F5F5F5F5F5F5F5F5F5F5
310
F5F5F5F5F5F5F5F5F5F5F5F5F5F5F5F5F5F5F5F5F5F5F5F5F5F5F5F5F5F5F5F5F5F5F5F5F5F5F5F5F5F5F5F5F5F5F5F5F5F5F5F5E2F5F5F5E2E2EFF5F5F5E2F5F5F5F5F5F5F5F5F5F5F5F5F5F5F5F5F5F5F5F5F5F5F5F5F5F5F5F5F5F5F5F5F5F5F5F5F5F5F5F5F5F5F5F5F5F5F5F5F5F5F5F5F5F5F5F5F5F5F5F5F5F5F5F5
310
F5F5F5F5F5F5F5F5F5F5F5F5F5F5F5F5F5F5F5F5F5F5F5F5F5F5F5F5F5F5F5F5F5F5F5F5F5F5F5F5F5F5F5F5F5F5F5F5F5F5F5F5F5F5F5F5F5F5F5F5F5F5F5F5F5F5F5F5F5F5F5F5F5F5F5F5F5F5F5F5F5F5F5F5F5F5F5F5F5F5F5F5F5F5F5F5F5F5F5F5F5F5F5F5F5E2F5F5F5E2E2EFF5F5F5E2F5F5F5F5F5F5F5F5F5F5F5
310
F5F5F5F5F5F5F5F5F5F5F5F5F5F5F5F5F5F5F5F5F5F5F5F5F5F5F5F5F5F5F5F5F5F5F5F5F5F5F5F5F5F5F5F5F5F5F5F5F5F5F5F5F5F5F5F5F5F5F5F5F5F5F5F5F5F5F5F5F5F5F5F5F5F5F5F5F5F5F5F5F5F5F5F5F5F5F5F5F5F5F5F5F5F5F5F5F5F5F5F5F5F5F5F5F5F5F5F5F5F5F5F5F5F5F5F5F5F5F5F5F5F5F5F5F5F5F5
310
F5F5F5F5F5F5F5F5F5F5F5F5F5F5F5F5F5F5F5F5F5F5F5F5F5F5F5F5F5F5F5E2F5F5F5E2E2EFF5F5F5E2E2E2E2E2E2E2E2F5F5F5F5F5F5F5F5F5E2E2E2E2E2E2E2E2E2E2E2E2E2E2E2E2F5F5F5F5F5F5F5F5E2E2E2E2E2E2E2E2E2E2E2E2E2E2E2E2F5F5F5F5F5F5F5F5F5E2E2E2E2E2E2E2E2E2E2E2E2E2E2E2F5F5F5F5F5
310
F5F5F5F5E2E2E2E2E2E2E2E2E2E2E2E2E2E2E2F5F5F5F5F5F5F5F5F5E2E2E2E2E2E2E2E2E2E2E2E2E2E2E2E2F5F5F5F5F5F5F5F5E2E2E2E2E2E2E2E2E2E2E2E2E2E2E2E2F5F5F5F5F5F5F5F5F5E2E2E2E2E2E2E2E2F5F5F5E2E2EFF5F5F5F5F5F5F5F5F5F5F5F5F5F5F5F5F5F5F5F5F5F5F5F5F5F5F5F5F5F5F5F5F5F5F5F5
310
F5F5F5F5F5F5F5F5F5F5F5F5F5F5F5F5F5F5F5F5F5F5F5F5F5F5F5F5F5F5F5F5F5F5F5F5F5F5F5F5F5F5F5F5F5F5F5F5F5F5F5F5F5F5F5F5F5F5F5F5F5F5F5F5F5F5F5F5F5F5F5F5F5F5F5F5F5F5F5F5F5F5F5F5F5F5F5F5F5F5F5F5F5F5F5F5F5F5F5F5F5F5F5F5F5F5F5F5F5F5F5F5F5F5F5F5F5F5F5F5F5F5F5F5F5F5F5
310
F5F5F5F5F5F5F5F5F5F5F5F5F5F5E2E2EFF5F5F5F5F5F5F5F5F5F5F5F5F5F5F5F5F5F5F5F5F5F5F5F5F5F5F5F5F5F5F5F5F5F5F5F5F5F5F5F5F5F5F5F5F5F5F5F5F5F5F5F5F5F5F5F5F5F5F5F5F5F5F5F5F5F5F5F5F5F5F5F5F5F5F5F5F5F5F5F5F5F5F5F5F5F5F5F5F5F5F5F5F5F5F5F5F5F5F5F5F5F5F5F5F5F5F5F5F5F5
310
F5F5F5F5F5F5F5F5F5F5F5F5F5F5F5F5F5F5F5F5F5F5F5F5F5F5F5F5F5F5F5F5F5F5F5F5F5F5F5F5F5F5F5F5F5F5F5F5F5F5F5F5F5F5F5F5F5F5F5F5F5F5F5F5F5F5F5E2EFEFF5F5F5F5F5F5F5F5F5F5F5F5F5F5F5F5F5F5F5F5F5F5F5F5F5F5F5F5F5F5F5F5F5F5F5F5F5F5F5F5F5F5F5F5F5F5F5F5F5F5F5F5F5F5F5F5F5
310
F5F5F5F5F5F5F5F5F5F5F5F5F5F5F5F5F5F5F5F5F5F5F5F5F5F5F5F5F5F5F5F5F5F5F5F5F5F5F5F5F5F5F5F5F5F5F5F5F5F5F5F5F5F5F5F5F5F5F5F5F5F5F5F5F5F5F5F5F5F5F5F5F5F5F5F5F5F5F5F5F5F5F5F5F5F5F5F5F5F5F5F5F5F5F5F5F5F5F5F5F5F5F5F5F5F5F5F5F5F5F5F5F5F5F5F5F5F5F5F5E2EFEFE2E2E2E2
310
E2E2E2E2E2E2E2E2E2E2E2E2E2E2E2E2E2E2E2E2E2E2E2E2E2E2E2E2E2E2E2E2E2E2E2E2E2E2E2E2E2E2E2E2E2E2E2E2E2E2E2E2E2E2E2E2E2E2E2E2E2E2E2E2E2E2E2E2E2E2E2E2E2E2E2E2E2E2E2E2E2E2E2E2E2E2E2E2E2E2E2E2E2E2E2E2E2E2E2E2E2E2E2E2E2E2E2E2E2E2E2E2E2E2E2E2E2E2E2E2E2E2E2E2E2E2E2
310
E2E2E2E2E2E2E2E2E2E2E2E2E2E2E2E2E2E2E2E2E2E2E2E2E2E2E2E2E2E2E2E2E2E2E2E2E2E2E2E2E2E2E2E2E2E2E2EFEF
  0
XRECORD
  5
F33A9
102
{ACAD_REACTORS
330
F33A8
102
}
330
F33A8
100
AcDbXrecord
280
     1
270
     1
271
     1
  0
XRECORD
  5
F33AA
102
{ACAD_REACTORS
330
F33A8
102
}
330
F33A8
100
AcDbXrecord
280
     1
270
     1
271
     1
  0
XRECORD
  5
F33AB
102
{ACAD_REACTORS
330
F33A8
102
}
330
F33A8
100
AcDbXrecord
280
     1
270
     1
271
     1
  0
XRECORD
  5
F33AC
102
{ACAD_REACTORS
330
F33A8
102
}
330
F33A8
100
AcDbXrecord
280
     1
270
     1
271
     1
  0
XRECORD
  5
F33AD
102
{ACAD_REACTORS
330
F33A8
102
}
330
F33A8
100
AcDbXrecord
280
     1
270
     1
271
     1
  0
XRECORD
  5
F33AE
102
{ACAD_REACTORS
330
F33A8
102
}
330
F33A8
100
AcDbXrecord
280
     1
270
     1
271
     1
  0
XRECORD
  5
F33A1
102
{ACAD_REACTORS
330
F33A0
102
}
330
F33A0
100
AcDbXrecord
280
     1
270
     1
271
     1
  0
XRECORD
  5
F33A2
102
{ACAD_REACTORS
330
F33A0
102
}
330
F33A0
100
AcDbXrecord
280
     1
270
     1
271
     1
  0
XRECORD
  5
F33A3
102
{ACAD_REACTORS
330
F33A0
102
}
330
F33A0
100
AcDbXrecord
280
     1
270
     1
271
     1
  0
XRECORD
  5
F33A4
102
{ACAD_REACTORS
330
F33A0
102
}
330
F33A0
100
AcDbXrecord
280
     1
270
     1
271
     1
  0
XRECORD
  5
F33A5
102
{ACAD_REACTORS
330
F33A0
102
}
330
F33A0
100
AcDbXrecord
280
     1
270
     1
271
     1
  0
XRECORD
  5
F33A6
102
{ACAD_REACTORS
330
F33A0
102
}
330
F33A0
100
AcDbXrecord
280
     1
270
     1
271
     1
  0
XRECORD
  5
F3377
102
{ACAD_REACTORS
330
F3376
102
}
330
F3376
100
AcDbXrecord
280
     1
270
     1
271
     1
  0
XRECORD
  5
F3378
102
{ACAD_REACTORS
330
F3376
102
}
330
F3376
100
AcDbXrecord
280
     1
270
     1
271
     1
  0
XRECORD
  5
F3379
102
{ACAD_REACTORS
330
F3376
102
}
330
F3376
100
AcDbXrecord
280
     1
270
     1
271
     1
  0
XRECORD
  5
F337A
102
{ACAD_REACTORS
330
F3376
102
}
330
F3376
100
AcDbXrecord
280
     1
270
     1
271
     1
  0
XRECORD
  5
F337B
102
{ACAD_REACTORS
330
F3376
102
}
330
F3376
100
AcDbXrecord
280
     1
270
     1
271
     1
  0
XRECORD
  5
F337C
102
{ACAD_REACTORS
330
F3376
102
}
330
F3376
100
AcDbXrecord
280
     1
270
     1
271
     1
  0
CELLSTYLEMAP
  5
F33E9
102
{ACAD_REACTORS
330
F33E8
102
}
330
F33E8
100
AcDbCellStyleMap
 90
        3
300
CELLSTYLE
  1
TABLEFORMAT_BEGIN
 90
        5
170
     1
 91
        0
 92
    32768
 62
   257
 93
        1
300
CONTENTFORMAT
  1
CONTENTFORMAT_BEGIN
 90
        0
 91
        0
 92
        4
 93
        0
300

 40
0.0
140
1.0
 94
        5
 62
     0
340
F338C
144
0.25
309
CONTENTFORMAT_END
171
     0
 94
        6
 95
        1
302
GRIDFORMAT
  1
GRIDFORMAT_BEGIN
 90
        0
 91
        1
 62
     0
 92
       -2
340
0
 93
        0
 40
0.045
309
GRIDFORMAT_END
 95
        2
302
GRIDFORMAT
  1
GRIDFORMAT_BEGIN
 90
        0
 91
        1
 62
     0
 92
       -2
340
0
 93
        0
 40
0.045
309
GRIDFORMAT_END
 95
        4
302
GRIDFORMAT
  1
GRIDFORMAT_BEGIN
 90
        0
 91
        1
 62
     0
 92
       -2
340
0
 93
        0
 40
0.045
309
GRIDFORMAT_END
 95
        8
302
GRIDFORMAT
  1
GRIDFORMAT_BEGIN
 90
        0
 91
        1
 62
     0
 92
       -2
340
0
 93
        0
 40
0.045
309
GRIDFORMAT_END
 95
       16
302
GRIDFORMAT
  1
GRIDFORMAT_BEGIN
 90
        0
 91
        1
 62
     0
 92
       -2
340
0
 93
        0
 40
0.045
309
GRIDFORMAT_END
 95
       32
302
GRIDFORMAT
  1
GRIDFORMAT_BEGIN
 90
        0
 91
        1
 62
     0
 92
       -2
340
0
 93
        0
 40
0.045
309
GRIDFORMAT_END
309
TABLEFORMAT_END
  1
CELLSTYLE_BEGIN
 90
        1
 91
        1
300
_TITLE
309
CELLSTYLE_END
300
CELLSTYLE
  1
TABLEFORMAT_BEGIN
 90
        5
170
     1
 91
        0
 92
        0
 62
   257
 93
        1
300
CONTENTFORMAT
  1
CONTENTFORMAT_BEGIN
 90
        0
 91
        0
 92
        4
 93
        0
300

 40
0.0
140
1.0
 94
        5
 62
     0
340
F338C
144
0.18
309
CONTENTFORMAT_END
171
     0
 94
        6
 95
        1
302
GRIDFORMAT
  1
GRIDFORMAT_BEGIN
 90
        0
 91
        1
 62
     0
 92
       -2
340
0
 93
        0
 40
0.045
309
GRIDFORMAT_END
 95
        2
302
GRIDFORMAT
  1
GRIDFORMAT_BEGIN
 90
        0
 91
        1
 62
     0
 92
       -2
340
0
 93
        0
 40
0.045
309
GRIDFORMAT_END
 95
        4
302
GRIDFORMAT
  1
GRIDFORMAT_BEGIN
 90
        0
 91
        1
 62
     0
 92
       -2
340
0
 93
        0
 40
0.045
309
GRIDFORMAT_END
 95
        8
302
GRIDFORMAT
  1
GRIDFORMAT_BEGIN
 90
        0
 91
        1
 62
     0
 92
       -2
340
0
 93
        0
 40
0.045
309
GRIDFORMAT_END
 95
       16
302
GRIDFORMAT
  1
GRIDFORMAT_BEGIN
 90
        0
 91
        1
 62
     0
 92
       -2
340
0
 93
        0
 40
0.045
309
GRIDFORMAT_END
 95
       32
302
GRIDFORMAT
  1
GRIDFORMAT_BEGIN
 90
        0
 91
        1
 62
     0
 92
       -2
340
0
 93
        0
 40
0.045
309
GRIDFORMAT_END
309
TABLEFORMAT_END
  1
CELLSTYLE_BEGIN
 90
        2
 91
        1
300
_HEADER
309
CELLSTYLE_END
300
CELLSTYLE
  1
TABLEFORMAT_BEGIN
 90
        5
170
     1
 91
        0
 92
        0
 62
   257
 93
        1
300
CONTENTFORMAT
  1
CONTENTFORMAT_BEGIN
 90
        0
 91
        0
 92
        4
 93
        0
300

 40
0.0
140
1.0
 94
        2
 62
     0
340
F338C
144
0.18
309
CONTENTFORMAT_END
171
     0
 94
        6
 95
        1
302
GRIDFORMAT
  1
GRIDFORMAT_BEGIN
 90
        0
 91
        1
 62
     0
 92
       -2
340
0
 93
        0
 40
0.045
309
GRIDFORMAT_END
 95
        2
302
GRIDFORMAT
  1
GRIDFORMAT_BEGIN
 90
        0
 91
        1
 62
     0
 92
       -2
340
0
 93
        0
 40
0.045
309
GRIDFORMAT_END
 95
        4
302
GRIDFORMAT
  1
GRIDFORMAT_BEGIN
 90
        0
 91
        1
 62
     0
 92
       -2
340
0
 93
        0
 40
0.045
309
GRIDFORMAT_END
 95
        8
302
GRIDFORMAT
  1
GRIDFORMAT_BEGIN
 90
        0
 91
        1
 62
     0
 92
       -2
340
0
 93
        0
 40
0.045
309
GRIDFORMAT_END
 95
       16
302
GRIDFORMAT
  1
GRIDFORMAT_BEGIN
 90
        0
 91
        1
 62
     0
 92
       -2
340
0
 93
        0
 40
0.045
309
GRIDFORMAT_END
 95
       32
302
GRIDFORMAT
  1
GRIDFORMAT_BEGIN
 90
        0
 91
        1
 62
     0
 92
       -2
340
0
 93
        0
 40
0.045
309
GRIDFORMAT_END
309
TABLEFORMAT_END
  1
CELLSTYLE_BEGIN
 90
        3
 91
        2
300
_DATA
309
CELLSTYLE_END
  0
XRECORD
  5
F33EC
102
{ACAD_REACTORS
330
F33EB
102
}
330
F33EB
100
AcDbXrecord
280
     1
102
RTVSPropertyOp0
 70
     1
102
RTVSPropertyOp1
 70
     1
102
RTVSPropertyOp2
 70
     1
102
RTVSPropertyOp3
 70
     1
102
RTVSPropertyOp4
 70
     1
102
RTVSPropertyOp5
 70
     1
102
RTVSPropertyOp6
 70
     1
102
RTVSPropertyOp7
 70
     1
102
RTVSPropertyOp8
 70
     1
102
RTVSPropertyOp9
 70
     1
102
RTVSPropertyOp10
 70
     1
102
RTVSPropertyOp11
 70
     1
102
RTVSPropertyOp12
 70
     1
102
RTVSPropertyOp13
 70
     1
102
RTVSPropertyOp14
 70
     1
102
RTVSPropertyOp15
 70
     1
102
RTVSPropertyOp16
 70
     1
102
RTVSPropertyOp17
 70
     1
102
RTVSPropertyOp18
 70
     1
102
RTVSPropertyOp19
 70
     1
102
RTVSPropertyOp20
 70
     1
102
RTVSPropertyOp21
 70
     1
102
RTVSPropertyOp22
 70
     1
102
RTVSPropertyOp23
 70
     1
102
RTVSPropertyOp24
 70
     1
102
RTVSPropertyOp25
 70
     1
102
RTVSPropertyOp26
 70
     1
102
RTVSPropertyOp27
 70
     1
  0
XRECORD
  5
F33F0
102
{ACAD_REACTORS
330
F33EF
102
}
330
F33EF
100
AcDbXrecord
280
     1
102
RTVSPropertyOp0
 70
     1
102
RTVSPropertyOp1
 70
     1
102
RTVSPropertyOp2
 70
     1
102
RTVSPropertyOp3
 70
     1
102
RTVSPropertyOp4
 70
     1
102
RTVSPropertyOp5
 70
     1
102
RTVSPropertyOp6
 70
     1
102
RTVSPropertyOp7
 70
     1
102
RTVSPropertyOp8
 70
     1
102
RTVSPropertyOp9
 70
     1
102
RTVSPropertyOp10
 70
     1
102
RTVSPropertyOp11
 70
     1
102
RTVSPropertyOp12
 70
     1
102
RTVSPropertyOp13
 70
     1
102
RTVSPropertyOp14
 70
     1
102
RTVSPropertyOp15
 70
     1
102
RTVSPropertyOp16
 70
     1
102
RTVSPropertyOp17
 70
     1
102
RTVSPropertyOp18
 70
     1
102
RTVSPropertyOp19
 70
     1
102
RTVSPropertyOp20
 70
     1
102
RTVSPropertyOp21
 70
     1
102
RTVSPropertyOp22
 70
     1
102
RTVSPropertyOp23
 70
     1
102
RTVSPropertyOp24
 70
     1
102
RTVSPropertyOp25
 70
     1
102
RTVSPropertyOp26
 70
     1
102
RTVSPropertyOp27
 70
     1
  0
XRECORD
  5
F33EE
102
{ACAD_REACTORS
330
F33ED
102
}
330
F33ED
100
AcDbXrecord
280
     1
102
RTVSPropertyOp0
 70
     1
102
RTVSPropertyOp1
 70
     1
102
RTVSPropertyOp2
 70
     1
102
RTVSPropertyOp3
 70
     1
102
RTVSPropertyOp4
 70
     1
102
RTVSPropertyOp5
 70
     1
102
RTVSPropertyOp6
 70
     1
102
RTVSPropertyOp7
 70
     1
102
RTVSPropertyOp8
 70
     1
102
RTVSPropertyOp9
 70
     1
102
RTVSPropertyOp10
 70
     1
102
RTVSPropertyOp11
 70
     1
102
RTVSPropertyOp12
 70
     1
102
RTVSPropertyOp13
 70
     1
102
RTVSPropertyOp14
 70
     1
102
RTVSPropertyOp15
 70
     1
102
RTVSPropertyOp16
 70
     1
102
RTVSPropertyOp17
 70
     1
102
RTVSPropertyOp18
 70
     1
102
RTVSPropertyOp19
 70
     1
102
RTVSPropertyOp20
 70
     1
102
RTVSPropertyOp21
 70
     1
102
RTVSPropertyOp22
 70
     1
102
RTVSPropertyOp23
 70
     1
102
RTVSPropertyOp24
 70
     1
102
RTVSPropertyOp25
 70
     1
102
RTVSPropertyOp26
 70
     1
102
RTVSPropertyOp27
 70
     1
  0
ENDSEC
  0
EOF
